<svg xmlns="http://www.w3.org/2000/svg" xmlns:xlink="http://www.w3.org/1999/xlink" width="178.5" height="62" viewBox="0 0 178.5 62">
  <defs>
    <clipPath id="clip-path">
      <rect width="159.333" height="15.782" fill="none"/>
    </clipPath>
  </defs>
  <g id="그룹_259" data-name="그룹 259" transform="translate(-219.5 -316)">
    <text id="취침시간" transform="translate(223 368)" font-size="8" font-family="NanumSquareRoundOTFR, NanumSquareRoundOTF" opacity="0.5"><tspan x="0" y="0">취침시간</tspan></text>
    <line id="선_631" data-name="선 631" x1="178.5" transform="translate(219.5 316.5)" fill="none" stroke="#907d9f" stroke-width="1" opacity="0.6"/>
    <line id="선_632" data-name="선 632" x1="178.5" transform="translate(219.5 377.5)" fill="none" stroke="#907d9f" stroke-width="1" opacity="0.6"/>
    <text id="운동시간" transform="translate(223 352)" font-size="8" font-family="NanumSquareRoundOTFR, NanumSquareRoundOTF" opacity="0.5"><tspan x="0" y="0">운동시간</tspan></text>
    <rect id="사각형_494" data-name="사각형 494" width="128" height="11" rx="3" transform="translate(265 343)" fill="rgba(235,229,239,0.5)"/>
    <g id="반복_그리드_21" data-name="반복 그리드 21" transform="translate(230.4 322.027)" opacity="0.5" clip-path="url(#clip-path)">
      <g transform="translate(-263.4 -397.028)">
        <path id="패스_51" data-name="패스 51" d="M6562.8,437.428h8.387l-1.725,9.285h-4.784Z" transform="translate(-6297.306 -38.124)" fill="none" stroke="#000" stroke-linejoin="round" stroke-width="0.6" opacity="0.6"/>
      </g>
      <g transform="translate(-247.4 -397.028)">
        <path id="패스_51-2" data-name="패스 51" d="M6562.8,437.428h8.387l-1.725,9.285h-4.784Z" transform="translate(-6297.306 -38.124)" fill="none" stroke="#000" stroke-linejoin="round" stroke-width="0.6" opacity="0.6"/>
      </g>
      <g transform="translate(-231.4 -397.028)">
        <path id="패스_51-3" data-name="패스 51" d="M6562.8,437.428h8.387l-1.725,9.285h-4.784Z" transform="translate(-6297.306 -38.124)" fill="none" stroke="#000" stroke-linejoin="round" stroke-width="0.6" opacity="0.6"/>
      </g>
      <g transform="translate(-215.4 -397.028)">
        <path id="패스_51-4" data-name="패스 51" d="M6562.8,437.428h8.387l-1.725,9.285h-4.784Z" transform="translate(-6297.306 -38.124)" fill="none" stroke="#000" stroke-linejoin="round" stroke-width="0.6" opacity="0.6"/>
      </g>
      <g transform="translate(-199.4 -397.028)">
        <path id="패스_51-5" data-name="패스 51" d="M6562.8,437.428h8.387l-1.725,9.285h-4.784Z" transform="translate(-6297.306 -38.124)" fill="none" stroke="#000" stroke-linejoin="round" stroke-width="0.6" opacity="0.6"/>
      </g>
      <g transform="translate(-183.4 -397.028)">
        <path id="패스_51-6" data-name="패스 51" d="M6562.8,437.428h8.387l-1.725,9.285h-4.784Z" transform="translate(-6297.306 -38.124)" fill="none" stroke="#000" stroke-linejoin="round" stroke-width="0.6" opacity="0.6"/>
      </g>
      <g transform="translate(-167.4 -397.028)">
        <path id="패스_51-7" data-name="패스 51" d="M6562.8,437.428h8.387l-1.725,9.285h-4.784Z" transform="translate(-6297.306 -38.124)" fill="none" stroke="#000" stroke-linejoin="round" stroke-width="0.6" opacity="0.6"/>
      </g>
      <g transform="translate(-151.4 -397.028)">
        <path id="패스_51-8" data-name="패스 51" d="M6562.8,437.428h8.387l-1.725,9.285h-4.784Z" transform="translate(-6297.306 -38.124)" fill="none" stroke="#000" stroke-linejoin="round" stroke-width="0.6" opacity="0.6"/>
      </g>
      <g transform="translate(-135.4 -397.028)">
        <path id="패스_51-9" data-name="패스 51" d="M6562.8,437.428h8.387l-1.725,9.285h-4.784Z" transform="translate(-6297.306 -38.124)" fill="none" stroke="#000" stroke-linejoin="round" stroke-width="0.6" opacity="0.6"/>
      </g>
      <g transform="translate(-119.4 -397.028)">
        <path id="패스_51-10" data-name="패스 51" d="M6562.8,437.428h8.387l-1.725,9.285h-4.784Z" transform="translate(-6297.306 -38.124)" fill="none" stroke="#000" stroke-linejoin="round" stroke-width="0.6" opacity="0.6"/>
      </g>
    </g>
    <rect id="사각형_675" data-name="사각형 675" width="53" height="11" rx="3" transform="translate(265 360)" fill="rgba(235,229,239,0.5)"/>
    <text id="영양제" transform="translate(333 368)" font-size="8" font-family="NanumSquareRoundOTFR, NanumSquareRoundOTF" opacity="0.5"><tspan x="0" y="0">영양제</tspan></text>
    <rect id="사각형_676" data-name="사각형 676" width="28" height="11" rx="3" transform="translate(365 360)" fill="rgba(235,229,239,0.5)"/>
  </g>
</svg>
