<svg xmlns="http://www.w3.org/2000/svg" viewBox="0 0 58.03 52.1"><defs><style>.cls-1{fill:#8ad3e5;}.cls-2{fill:#a1e4f3;}.cls-3,.cls-8{fill:none;stroke-miterlimit:10;}.cls-3{stroke:#7fc6d3;stroke-width:0.77px;}.cls-4{fill:#05587d;}.cls-5{fill:#fffbf6;}.cls-6{fill:#b2e7f6;}.cls-7{fill:#58a2c3;}.cls-8{stroke:#58a2c3;stroke-width:0.28px;}.cls-9{fill:#71bed9;}</style></defs><title>자산 75</title><g id="레이어_2" data-name="레이어 2"><g id="레이어_1-2" data-name="레이어 1"><path class="cls-1" d="M42.47,0H26.39a10.47,10.47,0,0,0-7.72,3.39,7.69,7.69,0,0,0-4.31-1.31H13.14A7.76,7.76,0,0,0,5.48,8.64L3.81,15.05A110,110,0,0,0,.41,37L.09,43.09a7.77,7.77,0,0,0,7.67,9h6.6a7.75,7.75,0,0,0,6.31-3.26,10.48,10.48,0,0,0,5.72,1.7H45.26A12.81,12.81,0,0,0,58,37.72V15.56A15.6,15.6,0,0,0,42.47,0"/><path class="cls-2" d="M53.82,31.18A13.67,13.67,0,1,1,40.15,17.51,13.67,13.67,0,0,1,53.82,31.18"/><path class="cls-3" d="M49.8,31.11a9.4,9.4,0,1,1-9.4-9.4A9.4,9.4,0,0,1,49.8,31.11Z"/><path class="cls-4" d="M46,30.92a5.79,5.79,0,1,1-5.79-5.79A5.78,5.78,0,0,1,46,30.92"/><path class="cls-4" d="M14.52,15.2h0a2.37,2.37,0,0,1-2.37-2.37v-3a2.37,2.37,0,0,1,4.73,0v3a2.37,2.37,0,0,1-2.36,2.37"/><path class="cls-5" d="M27.2,15H25.15A2.18,2.18,0,0,1,23,12.85V7.08a2.18,2.18,0,0,1,2.18-2.19H27.2a2.19,2.19,0,0,1,2.19,2.19v5.77A2.19,2.19,0,0,1,27.2,15"/><path class="cls-6" d="M6.74,17.06S1,40,4,43.76c0,0,1,3.72,10.14,2.7,0,0,4.06,0-2.37-9.46a40.23,40.23,0,0,1-3-17.58s-.67-7.43-2-2.36"/><path class="cls-6" d="M39.53,3.2S47,1.51,51,5.23c0,0,3,2,4,9.46,0,0-.33,2-3-2,0,0-4.73-5.41-9.12-6.09,0,0-7.78-3.72-3.38-3.38"/><path class="cls-6" d="M54.6,17.81s.94-.23,1.18,2.11c0,0,0,2.58-1.18,1.87,0,0-2.1-3.74,0-4"/><path class="cls-7" d="M15.12,19.87h0A1.17,1.17,0,0,1,14,18.71v-.26a1.17,1.17,0,0,1,2.34,0v.26a1.17,1.17,0,0,1-1.17,1.16"/><rect class="cls-8" x="31.44" y="5.64" width="3.58" height="5.01" rx="0.9"/><path class="cls-7" d="M33.7,7a.56.56,0,1,1-.56-.56A.56.56,0,0,1,33.7,7"/><path class="cls-7" d="M33.7,9a.56.56,0,1,1-.56-.56A.56.56,0,0,1,33.7,9"/><path class="cls-9" d="M.27,46.74c-.4-.85,16.49,4.26,17.39-2.3,0,0,4.14-15.31.73-40.91,0,0,.62-.32,1.51,4.14,0,0,3,7.42.49,41.26,0,0-.23,3.24-8.3,3.17H9A9.19,9.19,0,0,1,.27,46.74"/></g></g></svg>