<svg xmlns="http://www.w3.org/2000/svg" xmlns:xlink="http://www.w3.org/1999/xlink" viewBox="0 0 55.96 55.86"><defs><style>.cls-1{fill:none;}.cls-2{fill:#5476e2;}.cls-3{fill:#e9f2ff;}.cls-4{opacity:0.5;}.cls-5{clip-path:url(#clip-path);}.cls-6{fill:#385c87;}.cls-7{opacity:0.44;}.cls-8{clip-path:url(#clip-path-2);}.cls-9{opacity:0.6;}.cls-10{clip-path:url(#clip-path-3);}.cls-11{fill:#fff;}.cls-12{clip-path:url(#clip-path-4);}</style><clipPath id="clip-path" transform="translate(0 0)"><rect class="cls-1" x="11.7" y="14.88" width="12.37" height="26.57"/></clipPath><clipPath id="clip-path-2" transform="translate(0 0)"><rect class="cls-1" x="28" width="27.79" height="55.64"/></clipPath><clipPath id="clip-path-3" transform="translate(0 0)"><rect class="cls-1" x="3.28" y="8.24" width="11.72" height="18.06"/></clipPath><clipPath id="clip-path-4" transform="translate(0 0)"><rect class="cls-1" x="3.09" y="29.96" width="2.2" height="3.45"/></clipPath></defs><title>자산 81</title><g id="레이어_2" data-name="레이어 2"><g id="레이어_1-2" data-name="레이어 1"><path class="cls-2" d="M28,0A27.91,27.91,0,1,0,55.91,27.92,27.92,27.92,0,0,0,28,0M28,41.9a14,14,0,1,1,14-14,14,14,0,0,1-14,14" transform="translate(0 0)"/><path class="cls-3" d="M24,14.35l-4-13a24.91,24.91,0,0,1,17.31.43l-4.15,13.1S30.1,12.94,24,14.35" transform="translate(0 0)"/><path class="cls-3" d="M33.26,41.2l4.92,12.68a24.91,24.91,0,0,1-17.3.84l3.19-13.37s3.24,1.7,9.19-.15" transform="translate(0 0)"/><path class="cls-3" d="M14.66,32.63,2,37.55a24.91,24.91,0,0,1-.84-17.3l13.37,3.18s-1.69,3.25.15,9.2" transform="translate(0 0)"/><path class="cls-3" d="M41.37,23.28l12.76-4.71a24.88,24.88,0,0,1,.56,17.31l-13.31-3.4s1.74-3.22,0-9.2" transform="translate(0 0)"/><g class="cls-4"><g class="cls-5"><path class="cls-6" d="M22,14.88s-12.85,7.62-6.13,20c0,0,1.91,4.27,8.2,6.46,0,0-7.3,1.6-11.78-8.25,0,0-4.18-13.89,9.71-18.22" transform="translate(0 0)"/></g></g><g class="cls-7"><g class="cls-8"><path class="cls-6" d="M28,0S47.49-.23,54.85,20.42a1.09,1.09,0,0,1,0,.17c.45,1.67,7,28.07-23.38,35.05,0,0,7.41-1.24,15.6-10.82,9-10.5,8.61-27.41-4.84-38.19C38.78,3.83,32.73-.25,28,0" transform="translate(0 0)"/></g></g><g class="cls-9"><g class="cls-10"><path class="cls-11" d="M13.36,8.39A20.18,20.18,0,0,0,3.28,25.24a1.11,1.11,0,0,0,2.21,0,17.9,17.9,0,0,1,9-14.94,1.11,1.11,0,0,0-1.11-1.91" transform="translate(0 0)"/></g></g><g class="cls-9"><g class="cls-12"><path class="cls-11" d="M3.09,31.06v1.25a.87.87,0,0,0,.1.42.77.77,0,0,0,.23.36.82.82,0,0,0,.35.23.88.88,0,0,0,.43.09A1.1,1.1,0,0,0,5,33.09a1.15,1.15,0,0,0,.33-.78V31.06a.87.87,0,0,0-.1-.42A.77.77,0,0,0,5,30.28a.8.8,0,0,0-.35-.22A.87.87,0,0,0,4.2,30a1.12,1.12,0,0,0-.78.32,1.15,1.15,0,0,0-.33.78" transform="translate(0 0)"/></g></g></g></g></svg>