<svg xmlns="http://www.w3.org/2000/svg" xmlns:xlink="http://www.w3.org/1999/xlink" viewBox="0 0 81.11 24.55"><defs><style>.cls-1,.cls-5{fill:none;}.cls-2{opacity:0.65;}.cls-3{clip-path:url(#clip-path);}.cls-4{fill:#c8ede8;}.cls-5{stroke:#fff;stroke-miterlimit:10;stroke-width:0.5px;}</style><clipPath id="clip-path"><rect class="cls-1" width="81.11" height="24.55"/></clipPath></defs><title>자산 6</title><g id="레이어_2" data-name="레이어 2"><g id="레이어_1-2" data-name="레이어 1"><g class="cls-2"><g class="cls-3"><polygon class="cls-4" points="80.67 24.55 0.85 24.55 0.85 21.46 1.99 19.72 0.85 17.24 1.74 15.75 1.49 14.01 0.85 10.54 1.74 6.32 0 4.34 0.85 3.1 0.85 0 80.67 0 80.87 3.35 79.13 5.58 80.67 8.56 80.62 11.04 79.88 13.77 81.11 17.24 78.88 19.22 80.67 21.46 80.67 24.55"/></g></g><line class="cls-5" x1="1.49" y1="4.31" x2="79.26" y2="4.31"/><line class="cls-5" x1="1.49" y1="9.59" x2="79.26" y2="9.59"/><line class="cls-5" x1="1.49" y1="14.87" x2="79.26" y2="14.87"/><line class="cls-5" x1="1.49" y1="20.15" x2="79.26" y2="20.15"/></g></g></svg>