<svg xmlns="http://www.w3.org/2000/svg" viewBox="0 0 119.43 122.16"><defs><style>.cls-1{fill:#ffe6e3;}.cls-2,.cls-3,.cls-4,.cls-5{fill:none;stroke:#fff;stroke-miterlimit:10;}.cls-2{stroke-width:0.76px;}.cls-3{stroke-width:0.26px;}.cls-4{stroke-width:0.33px;}.cls-5{stroke-width:0.3px;}</style></defs><title>자산 42</title><g id="레이어_2" data-name="레이어 2"><g id="레이어_1-2" data-name="레이어 1"><rect class="cls-1" width="119.43" height="122.16"/><rect class="cls-2" x="4.96" y="4.26" width="109.02" height="113.22"/><line class="cls-3" x1="4.96" y1="9.74" x2="114.12" y2="9.74"/><line class="cls-3" x1="4.96" y1="15.88" x2="114.12" y2="15.88"/><line class="cls-3" x1="4.96" y1="22.02" x2="114.12" y2="22.02"/><line class="cls-3" x1="4.96" y1="28.17" x2="114.12" y2="28.17"/><line class="cls-3" x1="4.96" y1="34.31" x2="114.12" y2="34.31"/><line class="cls-3" x1="4.96" y1="40.45" x2="114.12" y2="40.45"/><line class="cls-3" x1="4.96" y1="46.59" x2="114.12" y2="46.59"/><line class="cls-3" x1="4.96" y1="52.74" x2="114.12" y2="52.74"/><line class="cls-3" x1="4.96" y1="58.88" x2="114.12" y2="58.88"/><line class="cls-3" x1="4.96" y1="65.02" x2="114.12" y2="65.02"/><line class="cls-3" x1="4.96" y1="71.16" x2="114.12" y2="71.16"/><line class="cls-3" x1="4.96" y1="77.31" x2="114.12" y2="77.31"/><line class="cls-3" x1="4.96" y1="83.45" x2="114.12" y2="83.45"/><line class="cls-3" x1="4.96" y1="89.59" x2="114.12" y2="89.59"/><line class="cls-3" x1="4.96" y1="95.74" x2="114.12" y2="95.74"/><line class="cls-3" x1="4.96" y1="101.11" x2="114.12" y2="101.11"/><line class="cls-3" x1="4.96" y1="106.49" x2="114.12" y2="106.49"/><line class="cls-3" x1="4.96" y1="111.86" x2="114.12" y2="111.86"/><line class="cls-4" x1="10.6" y1="4.74" x2="10.6" y2="117.54"/><line class="cls-4" x1="16.53" y1="4.74" x2="16.53" y2="117.54"/><line class="cls-4" x1="22.6" y1="4.74" x2="22.6" y2="117.54"/><line class="cls-4" x1="28.67" y1="4.74" x2="28.67" y2="117.54"/><line class="cls-4" x1="34.75" y1="4.74" x2="34.75" y2="117.54"/><line class="cls-4" x1="40.82" y1="4.74" x2="40.82" y2="117.54"/><line class="cls-4" x1="46.9" y1="4.74" x2="46.9" y2="117.54"/><line class="cls-4" x1="52.97" y1="4.74" x2="52.97" y2="117.54"/><line class="cls-4" x1="59.04" y1="4.74" x2="59.04" y2="117.54"/><line class="cls-4" x1="65.12" y1="4.74" x2="65.12" y2="117.54"/><line class="cls-4" x1="71.19" y1="4.74" x2="71.19" y2="117.54"/><line class="cls-4" x1="77.27" y1="4.74" x2="77.27" y2="117.54"/><line class="cls-4" x1="83.34" y1="4.74" x2="83.34" y2="117.54"/><line class="cls-4" x1="89.42" y1="4.74" x2="89.42" y2="117.54"/><line class="cls-4" x1="95.49" y1="4.74" x2="95.49" y2="117.54"/><line class="cls-4" x1="101.56" y1="4.74" x2="101.56" y2="117.54"/><line class="cls-4" x1="107.64" y1="4.74" x2="107.64" y2="117.54"/><line class="cls-5" x1="113.71" y1="9.55" x2="113.71" y2="101"/></g></g></svg>