<svg xmlns="http://www.w3.org/2000/svg" viewBox="0 0 71.58 81.66"><defs><style>.cls-1{fill:#efce8e;}.cls-2{fill:#d38742;}.cls-3{fill:#83d15a;}.cls-4{fill:none;stroke:#ffefca;stroke-miterlimit:10;stroke-width:0.5px;}</style></defs><title>자산 67</title><g id="레이어_2" data-name="레이어 2"><g id="레이어_1-2" data-name="레이어 1"><path class="cls-1" d="M35.13,33s10.79,22.8,8.09,48.64L55.59,81S48.41,46.37,35.13,33"/><path class="cls-2" d="M39,39a4.93,4.93,0,1,1-4.92-4.92A4.93,4.93,0,0,1,39,39"/><path class="cls-2" d="M48.45,36.25a4.93,4.93,0,1,1-4.93-4.93,4.93,4.93,0,0,1,4.93,4.93"/><path class="cls-3" d="M41.08,33.6a.43.43,0,0,1,0-.05c13.14-2.52,30.49-.37,30.49-.37-9.56-10-21.79-9.72-28.29-8.64C47.84,12.73,57.77,0,57.77,0,42.88,3.73,37.32,16,35.58,21.32,34,15.11,32.76,7.43,32.76,7.43c-6.3,5.62-7,11.13-6.21,15.11C21.66,21,13.05,20,5.66,27.63c0,0,8.69,1.05,16.2,2.4C14.21,32.86,4.06,39.4,0,54.51c0,0,14.23-19.94,33.77-17.65,0,0,5.38.1,4.84-1.74,1.32-.41,1-1.28,2.41-1.56l.06,0"/><line class="cls-4" x1="25.3" y1="31.6" x2="30.58" y2="31.46"/><line class="cls-4" x1="26.63" y1="39.31" x2="33.4" y2="39.17"/></g></g></svg>