<svg xmlns="http://www.w3.org/2000/svg" xmlns:xlink="http://www.w3.org/1999/xlink" viewBox="0 0 60.73 63.31"><defs><style>.cls-1{fill:none;}.cls-2{fill:#f4f4f4;}.cls-3{fill:#3f2419;}.cls-4{opacity:0.67;}.cls-5{clip-path:url(#clip-path);}.cls-6{fill:#a8a9a9;}.cls-7{clip-path:url(#clip-path-2);}.cls-8{opacity:0.65;}.cls-9{clip-path:url(#clip-path-3);}.cls-10{fill:#fff;}.cls-11{fill:#eaeaea;}</style><clipPath id="clip-path"><rect class="cls-1" x="15.6" y="30.59" width="23.44" height="2.17"/></clipPath><clipPath id="clip-path-2"><rect class="cls-1" x="44.87" y="28.23" width="3.13" height="1.97"/></clipPath><clipPath id="clip-path-3"><rect class="cls-1" x="4.83" y="31.49" width="11.8" height="28.54"/></clipPath></defs><title>자산 78</title><g id="레이어_2" data-name="레이어 2"><g id="레이어_1-2" data-name="레이어 1"><path class="cls-2" d="M51,24.13c0-4.11-11.41-7.44-25.48-7.44S0,20,0,24.13A2.81,2.81,0,0,0,.84,26V40.21c.4,12.45,10.1,22.55,21,23.1h7.29c11.59,0,21-10.34,21-23.1V26A2.86,2.86,0,0,0,51,24.13"/><path class="cls-3" d="M45.82,26.27c0,2.19-9.16,4-20.46,4S4.9,28.46,4.9,26.27s9.16-4,20.46-4,20.46,1.78,20.46,4"/><g class="cls-4"><g class="cls-5"><path class="cls-6" d="M15.83,32.14a64.47,64.47,0,0,0,23-.95c.38-.09.22-.68-.17-.59A63.55,63.55,0,0,1,16,31.55c-.39-.06-.55.53-.16.59"/></g></g><g class="cls-4"><g class="cls-7"><path class="cls-6" d="M45.28,30.18a8.26,8.26,0,0,0,2.63-1.41.32.32,0,0,0,0-.45.33.33,0,0,0-.45,0,7.82,7.82,0,0,1-2.35,1.25.33.33,0,0,0-.23.39.32.32,0,0,0,.4.22"/></g></g><g class="cls-8"><g class="cls-9"><path class="cls-10" d="M4.83,31.49a26.86,26.86,0,0,0,9.57,3.05S13.23,56.36,16.63,60a16.52,16.52,0,0,1-9.09-4.75c-1.88-1.91-2.38-5.45-2.4-8.75,0-5.39-.31-15-.31-15"/></g></g><path class="cls-2" d="M49.63,35.11A11.64,11.64,0,0,1,53,33.9a3.9,3.9,0,0,0,.58,0l.35,0c-.29,0-.28,0,0,0s.44.11.66.18c-.46-.15.16.09.23.12.46.22-.12-.2.21.13.11.11.21.21.3.32-.14-.18-.16-.2-.07-.05s.08.12,0,0a5.15,5.15,0,0,1,.16.56c.1.39,0,0,.07.48.09,1.11.18,2.21.17,3.32,0,.51,0,1-.06,1.52l-.06.5c0-.22,0-.23,0-.05s-.11.56-.18.83a4.38,4.38,0,0,1-1,2,5.94,5.94,0,0,1-2.55,1.42,9.81,9.81,0,0,1-3.59.41,2.51,2.51,0,0,0-2.5,2.5,2.56,2.56,0,0,0,2.5,2.5,13.89,13.89,0,0,0,8-2,9.52,9.52,0,0,0,4.12-6.18,23.54,23.54,0,0,0,.17-6.86,7.56,7.56,0,0,0-1.5-4.31,6.8,6.8,0,0,0-3-2c-3.06-1.13-6.21.18-9,1.48a2.52,2.52,0,0,0-.89,3.42,2.55,2.55,0,0,0,3.42.89"/><path class="cls-11" d="M9.91,4.94a14.67,14.67,0,0,1,3.3,4.51c.77,2,.13,3.54-.84,5.27A7.66,7.66,0,0,0,11,19.29a3.64,3.64,0,0,0,2.4,3.29c1.22.42,1.75-1.51.53-1.92s-1.08-2.15-.77-3.09c.57-1.71,1.86-3.08,2.26-4.87.8-3.63-1.78-6.73-4.12-9.18C10.43,2.59,9,4,9.91,4.94"/><path class="cls-11" d="M22.78,1.84a5.17,5.17,0,0,1,2.6,2.91A5.62,5.62,0,0,1,25,9a14,14,0,0,0-1.48,4.43,13.85,13.85,0,0,0,.94,5.24c.39,1.23,2.32.7,1.93-.53-.57-1.8-1.21-3.73-.69-5.62.46-1.68,1.53-3.14,1.84-4.88A7.13,7.13,0,0,0,23.79.12c-1.14-.58-2.16,1.15-1,1.72"/><path class="cls-11" d="M35.74,5.55A16,16,0,0,1,37,9.75a7.43,7.43,0,0,1-.91,4c-1,2.21-1.52,4.93,0,7.06.74,1,2.48,0,1.73-1-1.54-2.18-.07-4.61.75-6.73,1-2.71.14-5.45-.89-8a1,1,0,0,0-1.23-.7,1,1,0,0,0-.7,1.23"/></g></g></svg>