<svg xmlns="http://www.w3.org/2000/svg" xmlns:xlink="http://www.w3.org/1999/xlink" viewBox="0 0 29.67 56.36"><defs><style>.cls-1{fill:none;}.cls-2{fill:#f2f2f2;}.cls-3{fill:#a51a43;}.cls-4{opacity:0.54;}.cls-5{clip-path:url(#clip-path);}.cls-6{fill:#fff;}.cls-7{clip-path:url(#clip-path-2);}</style><clipPath id="clip-path"><rect class="cls-1" x="22.3" y="3.02" width="2.44" height="16.85"/></clipPath><clipPath id="clip-path-2"><rect class="cls-1" x="18.21" y="23.14" width="3.71" height="3.95"/></clipPath></defs><title>자산 70</title><g id="레이어_2" data-name="레이어 2"><g id="레이어_1-2" data-name="레이어 1"><path class="cls-2" d="M0,0,1.17,18A13.78,13.78,0,0,0,12.73,31.48V52.55H7a1.91,1.91,0,0,0,0,3.81H22.25a1.91,1.91,0,0,0,0-3.81H16.53v-21A13.54,13.54,0,0,0,28.5,18L29.67,0Z"/><path class="cls-3" d="M14.87,30.8h0A11.9,11.9,0,0,1,3,18.9L2.57,13l24.51-.08-.32,6A11.89,11.89,0,0,1,14.87,30.8"/><g class="cls-4"><g class="cls-5"><path class="cls-6" d="M22.85,3.86,23,11.64a21.81,21.81,0,0,1-.62,7.16c-.35,1.07,1.34,1.53,1.69.46a22.54,22.54,0,0,0,.69-7.32L24.6,3.86a.88.88,0,0,0-1.75,0"/></g></g><g class="cls-4"><g class="cls-7"><path class="cls-6" d="M20.19,23.78,20.1,24l.09-.21a4,4,0,0,1-.49.85l.13-.18a3.67,3.67,0,0,1-.71.71l.18-.14a3.8,3.8,0,0,1-.66.41.87.87,0,0,0-.4.52.88.88,0,0,0,.61,1.08,1,1,0,0,0,.67-.09,4.71,4.71,0,0,0,2.36-2.73.9.9,0,0,0-.09-.68.88.88,0,0,0-.52-.4.91.91,0,0,0-1.08.61"/></g></g><path class="cls-2" d="M14.92,34.75l-.48,16.63a.59.59,0,0,0,1.17,0l.48-16.63a.59.59,0,0,0-1.17,0"/></g></g></svg>