<svg xmlns="http://www.w3.org/2000/svg" xmlns:xlink="http://www.w3.org/1999/xlink" viewBox="0 0 81.12 24.55"><defs><style>.cls-1{fill:url(#무제_그라디언트_10);}.cls-2{fill:none;}.cls-3{opacity:0.5;}.cls-4{clip-path:url(#clip-path);}.cls-5{clip-path:url(#clip-path-2);}.cls-6{mask:url(#mask);}.cls-7{fill:url(#무제_그라디언트_9);}</style><linearGradient id="무제_그라디언트_10" x1="-82.96" y1="376.85" x2="-81.96" y2="376.85" gradientTransform="matrix(81.11, 0, 0, -81.11, 6729.65, 30580.06)" gradientUnits="userSpaceOnUse"><stop offset="0" stop-color="#666"/><stop offset="0.26" stop-color="#898989"/><stop offset="0.58" stop-color="#adadad"/><stop offset="0.84" stop-color="#c4c4c4"/><stop offset="1" stop-color="#ccc"/></linearGradient><clipPath id="clip-path"><rect class="cls-2" width="81.11" height="24.55"/></clipPath><clipPath id="clip-path-2"><polygon class="cls-2" points="80.67 24.55 0.85 24.55 0.85 21.46 1.99 19.72 0.85 17.24 1.74 15.75 1.49 14.01 0.85 10.54 1.74 6.33 0 4.34 0.85 3.1 0.85 0 80.67 0 80.87 3.35 79.13 5.58 80.67 8.56 80.62 11.04 79.88 13.77 81.11 17.24 78.88 19.22 80.67 21.46 80.67 24.55"/></clipPath><mask id="mask" x="0" y="0" width="81.12" height="24.55" maskUnits="userSpaceOnUse"><rect class="cls-1" width="81.12" height="24.55"/></mask><linearGradient id="무제_그라디언트_9" x1="-82.96" y1="376.85" x2="-81.96" y2="376.85" gradientTransform="matrix(81.11, 0, 0, -81.11, 6729.65, 30580.06)" gradientUnits="userSpaceOnUse"><stop offset="0" stop-color="#17b1ff"/><stop offset="0.09" stop-color="#26b8ee"/><stop offset="0.39" stop-color="#52cebc"/><stop offset="0.65" stop-color="#72df97"/><stop offset="0.87" stop-color="#86e880"/><stop offset="1" stop-color="#8dec78"/></linearGradient></defs><title>자산 13</title><g id="레이어_2" data-name="레이어 2"><g id="레이어_1-2" data-name="레이어 1"><g class="cls-3"><g class="cls-4"><g class="cls-5"><g class="cls-6"><rect class="cls-7" width="81.12" height="24.55"/></g></g></g></g></g></g></svg>