<svg xmlns="http://www.w3.org/2000/svg" xmlns:xlink="http://www.w3.org/1999/xlink" viewBox="0 0 38.11 75.51"><defs><style>.cls-1{fill:none;}.cls-2{fill:#e488a6;}.cls-3{fill:#3c374d;}.cls-4{fill:#d86f96;}.cls-5{fill:#c8597d;}.cls-6{opacity:0.45;}.cls-7{clip-path:url(#clip-path);}.cls-8{fill:#fff;}.cls-9{fill:#adc1c1;}.cls-10{opacity:0.58;}.cls-11{clip-path:url(#clip-path-2);}</style><clipPath id="clip-path"><rect class="cls-1" x="28.77" y="25.12" width="7.03" height="6.9"/></clipPath><clipPath id="clip-path-2"><rect class="cls-1" x="1.26" y="23.34" width="6.73" height="48.14"/></clipPath></defs><title>자산 76</title><g id="레이어_2" data-name="레이어 2"><g id="레이어_1-2" data-name="레이어 1"><path class="cls-2" d="M18.69,35.14c3.22,0,3.23-5,0-5s-3.22,5,0,5"/><path class="cls-3" d="M8.25,75.51h0A2.25,2.25,0,0,1,6,73.26V71h4.5v2.25a2.25,2.25,0,0,1-2.25,2.25"/><path class="cls-3" d="M30.52,75.51h0a2.24,2.24,0,0,1-2.25-2.25V71h4.5v2.25a2.25,2.25,0,0,1-2.25,2.25"/><path class="cls-2" d="M35.37,71.54H3.44A3.44,3.44,0,0,1,0,68.1V31.77a9.09,9.09,0,0,1,9.09-9.09H29a9.09,9.09,0,0,1,9.09,9.09v37a2.74,2.74,0,0,1-2.74,2.74"/><path class="cls-4" d="M12.05,65.68h0A2.69,2.69,0,0,1,9.36,63V35.64a2.69,2.69,0,1,1,5.38,0V63a2.69,2.69,0,0,1-2.69,2.7"/><path class="cls-4" d="M21.22,65.68h0A2.7,2.7,0,0,1,18.53,63V35.64a2.7,2.7,0,1,1,5.39,0V63a2.7,2.7,0,0,1-2.7,2.7"/><path class="cls-4" d="M30.4,65.68h0A2.7,2.7,0,0,1,27.7,63V35.64a2.7,2.7,0,1,1,5.39,0V63a2.7,2.7,0,0,1-2.69,2.7"/><path class="cls-5" d="M9.09,22.68S.39,23.2,0,31.77v37a2.74,2.74,0,0,0,2.74,2.74h3V31.72s-1.09-4.63,3.39-9"/><g class="cls-6"><g class="cls-7"><path class="cls-8" d="M29.52,27.15l.21.08c-.11-.05-.14-.06-.07,0l.11,0,.37.18c.26.14.52.28.76.44l.35.24.15.11c.19.13-.13-.11,0,0s.45.38.66.58.39.4.57.61l.14.18c.08.09.09.1,0,0,.09.11.18.25.26.37a8.74,8.74,0,0,1,.84,1.53,1,1,0,0,0,1.4.37,1.06,1.06,0,0,0,.37-1.41,9.94,9.94,0,0,0-5.61-5.3,1,1,0,0,0-1.27.71,1.07,1.07,0,0,0,.72,1.27"/></g></g><rect class="cls-9" x="8.36" y="3.3" width="1.52" height="19.28"/><rect class="cls-9" x="28.03" y="3.3" width="1.52" height="19.28"/><path class="cls-3" d="M29.56,3.56H8.39V1.89A1.89,1.89,0,0,1,10.28,0H27.67a1.89,1.89,0,0,1,1.89,1.89Z"/><g class="cls-10"><g class="cls-11"><path class="cls-8" d="M7.6,23.36a9,9,0,0,0-5.16,5.23c-1.26,3-1.19,6.4-1.18,9.62l.06,21.35c0,2,0,4,0,6a23,23,0,0,0,.41,5.74.32.32,0,0,0,.61-.17A20,20,0,0,1,2,66c0-1.66,0-3.31,0-5l0-10.18,0-10.18c0-3.28-.25-6.69.5-9.91C3.08,27.88,4.82,25,7.77,24c.38-.13.22-.74-.17-.61"/></g></g></g></g></svg>