<svg xmlns="http://www.w3.org/2000/svg" xmlns:xlink="http://www.w3.org/1999/xlink" viewBox="0 0 154.68 57.76"><defs><style>.cls-1,.cls-11,.cls-12{fill:none;}.cls-2{opacity:0.7;}.cls-3{clip-path:url(#clip-path);}.cls-4{fill:#ff4554;}.cls-5{clip-path:url(#clip-path-2);}.cls-6{fill:#00cf99;}.cls-7{clip-path:url(#clip-path-3);}.cls-8{clip-path:url(#clip-path-4);}.cls-9{clip-path:url(#clip-path-5);}.cls-10{fill:#898989;}.cls-11,.cls-12{stroke:#898989;stroke-miterlimit:10;}.cls-11{stroke-width:0.74px;}.cls-12{stroke-linecap:round;stroke-width:0.56px;}</style><clipPath id="clip-path"><rect class="cls-1" x="120.77" y="7.29" width="19.63" height="25.94"/></clipPath><clipPath id="clip-path-2"><rect class="cls-1" x="93.2" y="17.39" width="20.23" height="25.74"/></clipPath><clipPath id="clip-path-3"><rect class="cls-1" x="65.72" y="25.63" width="20.67" height="25.07"/></clipPath><clipPath id="clip-path-4"><rect class="cls-1" x="10.66" y="33.54" width="21.19" height="23.8"/></clipPath><clipPath id="clip-path-5"><rect class="cls-1" x="38.34" y="31" width="21.09" height="24.53"/></clipPath></defs><title>자산 79</title><g id="레이어_2" data-name="레이어 2"><g id="레이어_1-2" data-name="레이어 1"><g class="cls-2"><g class="cls-3"><path class="cls-4" d="M139.17,33.23c.26-1.4,1.23-25.94,1.23-25.94l-19.63,8Z"/></g></g><g class="cls-2"><g class="cls-5"><path class="cls-6" d="M110,43.14c.37-1.37,3.4-25.75,3.4-25.75L93.2,23.7Z"/></g></g><g class="cls-2"><g class="cls-7"><path class="cls-4" d="M79.89,50.7c.53-1.31,6.5-25.07,6.5-25.07L65.72,29.26Z"/></g></g><g class="cls-2"><g class="cls-8"><path class="cls-4" d="M21.47,57.34c.74-1.21,10.38-23.8,10.38-23.8L10.66,34Z"/></g></g><g class="cls-2"><g class="cls-9"><path class="cls-6" d="M50.91,55.53C51.56,54.26,59.43,31,59.43,31L38.34,33.1Z"/></g></g><path class="cls-10" d="M.45,33.89a319.4,319.4,0,0,0,61.93-3.72,320.27,320.27,0,0,0,60.15-15.61A316.24,316.24,0,0,0,154.44.85c.54-.26.07-1.06-.46-.8A318.5,318.5,0,0,1,96.2,22,320.08,320.08,0,0,1,35.28,32.36,318.7,318.7,0,0,1,.45,33c-.6,0-.6.9,0,.93"/><polyline class="cls-11" points="9.69 34.04 20.85 56.86 30.93 33.26"/><polyline class="cls-12" points="37.69 32.88 49.95 55.13 58.87 31.07"/><polyline class="cls-12" points="65.11 29.61 79.3 50.7 86.05 25.94"/><polyline class="cls-12" points="92.44 23.97 109.69 43.73 112.91 18.26"/><polyline class="cls-12" points="119.84 15.82 138.79 33.4 139.54 7.82"/></g></g></svg>