<svg xmlns="http://www.w3.org/2000/svg" viewBox="0 0 58.39 46.94"><defs><style>.cls-1{fill:#e9eaea;}.cls-2{fill:#a8a9a9;}.cls-3{fill:#cbcccc;}</style></defs><title>자산 80</title><g id="레이어_2" data-name="레이어 2"><g id="레이어_1-2" data-name="레이어 1"><rect class="cls-1" x="13.02" y="19.66" width="31.89" height="5.98" transform="translate(-7.04 15.18) rotate(-26.29)"/><path class="cls-2" d="M13.1,43.53l-1.82.89a3,3,0,0,1-4-1.36L.31,29a3,3,0,0,1,1.36-4l1.81-.9a3,3,0,0,1,4,1.36l7,14.08a3,3,0,0,1-1.36,4"/><path class="cls-3" d="M20.6,46.29l-.52.26a3.72,3.72,0,0,1-5-1.68L3.64,21.66a3.7,3.7,0,0,1,1.68-5l.53-.26a3.7,3.7,0,0,1,5,1.68l11.47,23.2a3.72,3.72,0,0,1-1.69,5"/><path class="cls-2" d="M54.91,22.87l1.81-.9a3,3,0,0,0,1.36-4l-7-14.07a3,3,0,0,0-4-1.36l-1.81.89a3,3,0,0,0-1.37,4l7,14.08a3,3,0,0,0,4,1.36"/><path class="cls-3" d="M52.54,30.51l.53-.26a3.73,3.73,0,0,0,1.69-5L43.29,2.07a3.72,3.72,0,0,0-5-1.68l-.52.26a3.71,3.71,0,0,0-1.69,5L47.57,28.83a3.7,3.7,0,0,0,5,1.68"/></g></g></svg>