<svg xmlns="http://www.w3.org/2000/svg" xmlns:xlink="http://www.w3.org/1999/xlink" viewBox="0 0 102.38 94.8"><defs><style>.cls-1{fill:url(#무제_그라디언트_6);}.cls-2{fill:none;}.cls-3{opacity:0.65;}.cls-4{clip-path:url(#clip-path);}.cls-5{clip-path:url(#clip-path-2);}.cls-6{mask:url(#mask);}.cls-7{fill:url(#무제_그라디언트_5);}</style><linearGradient id="무제_그라디언트_6" x1="-72.33" y1="483.84" x2="-71.33" y2="483.84" gradientTransform="matrix(0, -61.17, -61.17, 0, 29646.86, -4346.51)" gradientUnits="userSpaceOnUse"><stop offset="0" stop-color="#666"/><stop offset="0.18" stop-color="#878787"/><stop offset="0.57" stop-color="#c7c7c7"/><stop offset="0.85" stop-color="#f0f0f0"/><stop offset="1" stop-color="#fff"/></linearGradient><clipPath id="clip-path"><rect class="cls-2" x="10.63" y="35.12" width="81.11" height="24.55"/></clipPath><clipPath id="clip-path-2"><polygon class="cls-2" points="91.3 59.67 11.48 59.67 11.48 56.58 12.62 54.84 11.48 52.36 12.37 50.87 12.12 49.14 11.48 45.66 12.37 41.45 10.63 39.46 11.48 38.22 11.48 35.12 91.3 35.12 91.5 38.47 89.76 40.7 91.3 43.68 91.25 46.16 90.5 48.89 91.75 52.36 89.51 54.35 91.3 56.58 91.3 59.67"/></clipPath><mask id="mask" x="0" y="0" width="102.38" height="94.8" maskUnits="userSpaceOnUse"><rect class="cls-1" x="9.93" y="16.49" width="82.52" height="61.82" transform="translate(-16.84 31.94) rotate(-30)"/></mask><linearGradient id="무제_그라디언트_5" x1="-72.33" y1="483.84" x2="-71.33" y2="483.84" gradientTransform="matrix(0, -61.17, -61.17, 0, 29646.86, -4346.5)" gradientUnits="userSpaceOnUse"><stop offset="0" stop-color="#745cff"/><stop offset="0.12" stop-color="#8761f7"/><stop offset="0.54" stop-color="#c772da"/><stop offset="0.84" stop-color="#f07cc9"/><stop offset="1" stop-color="#ff80c2"/></linearGradient></defs><title>자산 7</title><g id="레이어_2" data-name="레이어 2"><g id="레이어_1-2" data-name="레이어 1"><g class="cls-3"><g class="cls-4"><g class="cls-5"><g class="cls-6"><rect class="cls-7" x="9.93" y="16.49" width="82.52" height="61.82" transform="translate(-16.84 31.94) rotate(-30)"/></g></g></g></g></g></g></svg>