<svg xmlns="http://www.w3.org/2000/svg" xmlns:xlink="http://www.w3.org/1999/xlink" viewBox="0 0 32.66 28.18"><defs><style>.cls-1{fill:url(#무제_그라디언트_28);}.cls-2{fill:none;}.cls-3{opacity:0.5;}.cls-4{clip-path:url(#clip-path);}.cls-5{clip-path:url(#clip-path-2);}.cls-6{mask:url(#mask);}.cls-7{fill:url(#무제_그라디언트_27);}</style><linearGradient id="무제_그라디언트_28" x1="-555.88" y1="328.43" x2="-554.88" y2="328.43" gradientTransform="matrix(32.67, 0, 0, -32.67, 18158.34, 10742.69)" gradientUnits="userSpaceOnUse"><stop offset="0" stop-color="#666"/><stop offset="0.58" stop-color="#bebebe"/><stop offset="1" stop-color="#fff"/></linearGradient><clipPath id="clip-path" transform="translate(0)"><rect class="cls-2" width="32.67" height="28.18"/></clipPath><clipPath id="clip-path-2" transform="translate(0)"><path class="cls-2" d="M16.42,7.66C16.42,2.6,12.26,0,7.5,0S0,4.1,0,9.15a9.38,9.38,0,0,0,2.84,6.79H2.77L16.55,28.18l13.13-12.1a9.38,9.38,0,0,0,3-6.93C32.67,4.1,29.92,0,25.16,0s-8.65,2.6-8.65,7.66Z"/></clipPath><mask id="mask" x="0" y="0" width="32.67" height="28.18" maskUnits="userSpaceOnUse"><g transform="translate(0)"><rect class="cls-1" width="32.66" height="28.18"/></g></mask><linearGradient id="무제_그라디언트_27" x1="-555.88" y1="328.43" x2="-554.88" y2="328.43" gradientTransform="matrix(32.67, 0, 0, -32.67, 18158.34, 10742.69)" gradientUnits="userSpaceOnUse"><stop offset="0" stop-color="#8418ff"/><stop offset="0.68" stop-color="#2b38ef"/><stop offset="1" stop-color="#0048e7"/></linearGradient></defs><title>자산 39</title><g id="레이어_2" data-name="레이어 2"><g id="레이어_1-2" data-name="레이어 1"><g class="cls-3"><g class="cls-4"><g class="cls-5"><g class="cls-6"><rect class="cls-7" width="32.66" height="28.18"/></g></g></g></g></g></g></svg>