<svg xmlns="http://www.w3.org/2000/svg" viewBox="0 0 96.84 36"><defs><style>.cls-1{fill:none;stroke:#000;stroke-miterlimit:10;stroke-width:0.31px;}</style></defs><title>자산 61</title><g id="레이어_2" data-name="레이어 2"><g id="레이어_1-2" data-name="레이어 1"><rect class="cls-1" x="2.57" y="2.42" width="14.35" height="14.35"/><path class="cls-1" d="M2.57,2.42,4.05.94A2.64,2.64,0,0,1,5.94.15h7.42a2.64,2.64,0,0,1,1.89.79l1.66,1.53"/><path class="cls-1" d="M16.91,2.47l1.55,1.58a2.67,2.67,0,0,1,.78,1.89v7.42a2.71,2.71,0,0,1-.78,1.9l-1.58,1.49a2.81,2.81,0,0,1,0,2.46l1.56,1.58a2.64,2.64,0,0,1,.79,1.89V30.1A2.64,2.64,0,0,1,18.41,32l-1.57,1.57"/><path class="cls-1" d="M2.51,2.57.94,4.14A2.64,2.64,0,0,0,.15,6v7.42a2.68,2.68,0,0,0,.79,1.9l1.48,1.48a1.82,1.82,0,0,0,.09,2.34L.94,20.74a2.64,2.64,0,0,0-.79,1.89v7.42A2.66,2.66,0,0,0,.94,32l1.48,1.48"/><rect class="cls-1" x="2.48" y="19.23" width="14.35" height="14.35"/><path class="cls-1" d="M16.83,33.58l-1.48,1.48a2.71,2.71,0,0,1-1.9.78H6a2.67,2.67,0,0,1-1.89-.78L2.57,33.49"/><rect class="cls-1" x="25.12" y="2.42" width="14.35" height="14.35"/><path class="cls-1" d="M25.12,2.42,26.6.94A2.66,2.66,0,0,1,28.5.15h7.42a2.64,2.64,0,0,1,1.89.79l1.66,1.53"/><path class="cls-1" d="M39.47,2.47,41,4.05a2.68,2.68,0,0,1,.79,1.89v7.42a2.72,2.72,0,0,1-.79,1.9l-1.57,1.49a2.79,2.79,0,0,1,0,2.46L41,20.79a2.67,2.67,0,0,1,.78,1.89V30.1A2.67,2.67,0,0,1,41,32L39.4,33.56"/><path class="cls-1" d="M25.06,2.57,23.49,4.14A2.67,2.67,0,0,0,22.71,6v7.42a2.71,2.71,0,0,0,.78,1.9L25,16.83a1.82,1.82,0,0,0,.09,2.34l-1.57,1.57a2.67,2.67,0,0,0-.78,1.89v7.42a2.69,2.69,0,0,0,.78,1.9L25,33.43"/><rect class="cls-1" x="25.03" y="19.23" width="14.35" height="14.35"/><path class="cls-1" d="M39.38,33.58,37.9,35.06a2.67,2.67,0,0,1-1.89.78H28.59a2.69,2.69,0,0,1-1.9-.78l-1.57-1.57"/><rect class="cls-1" x="57.46" y="2.42" width="14.35" height="14.35"/><path class="cls-1" d="M57.46,2.42,58.94.94A2.64,2.64,0,0,1,60.83.15h7.42a2.68,2.68,0,0,1,1.9.79L71.8,2.47"/><path class="cls-1" d="M71.8,2.47l1.55,1.58a2.67,2.67,0,0,1,.78,1.89v7.42a2.71,2.71,0,0,1-.78,1.9l-1.57,1.49a2.83,2.83,0,0,1,0,2.46l1.56,1.58a2.64,2.64,0,0,1,.79,1.89V30.1A2.64,2.64,0,0,1,73.3,32l-1.57,1.57"/><path class="cls-1" d="M57.4,2.57,55.83,4.14A2.68,2.68,0,0,0,55,6v7.42a2.72,2.72,0,0,0,.79,1.9l1.48,1.48a1.82,1.82,0,0,0,.09,2.34l-1.57,1.57A2.68,2.68,0,0,0,55,22.63v7.42a2.7,2.7,0,0,0,.79,1.9l1.48,1.48"/><rect class="cls-1" x="57.37" y="19.23" width="14.35" height="14.35"/><path class="cls-1" d="M71.72,33.58l-1.48,1.48a2.71,2.71,0,0,1-1.9.78H60.92A2.67,2.67,0,0,1,59,35.06l-1.57-1.57"/><rect class="cls-1" x="80.01" y="2.42" width="14.35" height="14.35"/><path class="cls-1" d="M80,2.42,81.49.94a2.68,2.68,0,0,1,1.9-.79h7.42A2.64,2.64,0,0,1,92.7.94l1.66,1.53"/><path class="cls-1" d="M94.36,2.47,95.9,4.05a2.64,2.64,0,0,1,.79,1.89v7.42a2.68,2.68,0,0,1-.79,1.9l-1.57,1.49a2.81,2.81,0,0,1,0,2.46l1.56,1.58a2.67,2.67,0,0,1,.78,1.89V30.1A2.67,2.67,0,0,1,95.86,32l-1.57,1.57"/><path class="cls-1" d="M80,2.57,78.38,4.14A2.67,2.67,0,0,0,77.6,6v7.42a2.71,2.71,0,0,0,.78,1.9l1.48,1.48A1.82,1.82,0,0,0,80,19.17l-1.57,1.57a2.67,2.67,0,0,0-.78,1.89v7.42a2.69,2.69,0,0,0,.78,1.9l1.48,1.48"/><rect class="cls-1" x="79.92" y="19.23" width="14.35" height="14.35"/><path class="cls-1" d="M94.27,33.58l-1.48,1.48a2.67,2.67,0,0,1-1.89.78H83.48a2.71,2.71,0,0,1-1.9-.78L80,33.49"/><path class="cls-1" d="M49.64,11.53A1.58,1.58,0,1,1,48.06,10,1.58,1.58,0,0,1,49.64,11.53Z"/><path class="cls-1" d="M49.64,22.92a1.58,1.58,0,1,1-1.58-1.58A1.58,1.58,0,0,1,49.64,22.92Z"/></g></g></svg>