<svg xmlns="http://www.w3.org/2000/svg" xmlns:xlink="http://www.w3.org/1999/xlink" viewBox="0 0 30.58 42.37"><defs><style>.cls-1{fill:none;}.cls-2{fill:#5476e2;}.cls-3{fill:#fff9ee;}.cls-4{opacity:0.61;}.cls-5{clip-path:url(#clip-path);}.cls-6{fill:#fff;}.cls-7{opacity:0.97;}.cls-8{clip-path:url(#clip-path-2);}</style><clipPath id="clip-path"><rect class="cls-1" x="9.67" y="2.06" width="13.09" height="18.82"/></clipPath><clipPath id="clip-path-2"><rect class="cls-1" x="23.33" y="23.96" width="2.93" height="4.98"/></clipPath></defs><title>자산 77</title><g id="레이어_2" data-name="레이어 2"><g id="레이어_1-2" data-name="레이어 1"><path class="cls-2" d="M24.57,41l-.9.4a9.83,9.83,0,0,1-13-5L.85,14.22a9.83,9.83,0,0,1,5-13l.89-.4a9.84,9.84,0,0,1,13,5L29.56,28a9.83,9.83,0,0,1-5,13"/><path class="cls-3" d="M25,40.76l-1.8.8a9.36,9.36,0,0,1-12.35-4.75L6.06,26,25,17.58l4.82,10.83A9.36,9.36,0,0,1,25,40.76"/><g class="cls-4"><g class="cls-5"><path class="cls-6" d="M10.35,3.48c3.37.33,5.36,3.68,6.62,6.46,1.56,3.44,2.92,7,4.37,10.47.35.82,1.71.46,1.36-.38-1.6-3.87-3.06-7.86-4.9-11.63-1.48-3-3.87-6-7.45-6.34-.91-.09-.9,1.33,0,1.42"/></g></g><g class="cls-7"><g class="cls-8"><path class="cls-6" d="M23.42,25c.28.57.54,1.15.79,1.73,0,.07.06.13.08.19s0-.06,0,0l.06.13c.06.14.12.29.17.44s.24.59.35.89A.71.71,0,0,0,26.24,28a2.25,2.25,0,0,0-.48-.9.71.71,0,0,0-1,1c.08.1,0-.06,0,0a.75.75,0,0,0,.07.12c.05.1,0,0,0,0s0,.14.05.16L26.24,28c-.47-1.27-1-2.51-1.6-3.73a.71.71,0,0,0-1-.25.72.72,0,0,0-.25,1"/></g></g></g></g></svg>