<svg xmlns="http://www.w3.org/2000/svg" viewBox="0 0 51.39 44.64"><defs><style>.cls-1{fill:none;stroke:#878787;stroke-miterlimit:10;stroke-width:1.33px;}</style></defs><title>자산 65</title><g id="레이어_2" data-name="레이어 2"><g id="레이어_1-2" data-name="레이어 1"><path class="cls-1" d="M.07,12.42H20.5s5.11-.5,4.65-6.42c0,0-.42-5.75-7.14-5.31,0,0-5.07-.11-4.56,7.59"/><path class="cls-1" d="M.21,18.85H44s7.14-1.1,6.73-7.82c-.1-.33.21-7.92-7.14-8.47,0,0-4.76-1.1-8.28,4.18"/><line class="cls-1" x1="0.41" y1="23.8" x2="28.05" y2="23.8"/><path class="cls-1" d="M0,27.76H40.26s5.48,0,7,4.4c0,0,3.63,9.79-6.62,11.77,0,0-6.93,1.1-8.17-7.92"/><line class="cls-1" x1="0.62" y1="32.93" x2="15.73" y2="32.93"/><line class="cls-1" x1="20.59" y1="33.04" x2="26.8" y2="33.04"/></g></g></svg>