<svg xmlns="http://www.w3.org/2000/svg" viewBox="0 0 64.69 73.76"><defs><style>.cls-1{fill:#f9d7e5;}.cls-2{fill:#fffffe;}.cls-3{fill:#fff0f5;}.cls-4{fill:#e84450;}.cls-5{fill:#ea5a40;}.cls-6{fill:#f6e473;}.cls-7{fill:#64a3d9;}.cls-8,.cls-9{fill:none;stroke:#3eb8a7;stroke-miterlimit:10;}.cls-8{stroke-width:0.3px;}.cls-9{stroke-width:0.32px;}.cls-10{fill:#f4eda4;}.cls-11{fill:#f2f2f2;}</style></defs><title>자산 73</title><g id="레이어_2" data-name="레이어 2"><g id="레이어_1-2" data-name="레이어 1"><path class="cls-1" d="M64.5,34.27c0-4.47-14.41-8.1-32.19-8.1S.13,29.8.13,34.27a2,2,0,0,0,.06.48H.13V61.29A9.58,9.58,0,0,0,9.61,71a93.17,93.17,0,0,0,45,0l.18,0a9.58,9.58,0,0,0,9.48-9.69v-26a2.32,2.32,0,0,0,.24-1"/><path class="cls-2" d="M.47,34.42a6.35,6.35,0,0,1,2.64-3c2.79-2,6.25-2.81,9.55-3.42a106,106,0,0,1,38.58,0,36.39,36.39,0,0,1,9.83,3,6.22,6.22,0,0,1,3.25,3,7.15,7.15,0,0,1,.36,2.61q.09,6.62-.43,13.22c-.06.78-.3,1.77-1.06,1.87s-1.13-.53-1.42-1.11c-1.47-3.05-1-7.1-3.37-9.47a2.5,2.5,0,0,0-2-.85c-1,.14-1.66,1.18-2,2.18-.76,2.42-.37,5.19-1.59,7.41-.37.67-1.09,1.33-1.8,1.05s-.79-1-.89-1.68c-.36-2.49-.73-5-1.09-7.46q-.48,2.59-1,5.17c-.09.46-.25,1-.7,1.12a.93.93,0,0,1-.73-.18c-1.6-1-1.61-3.3-1.81-5.21s-1.44-4.23-3.27-3.8a3.29,3.29,0,0,0-2,2.15c-2.08,4.95-.57,11-3,15.74C34,55.2,33.63,51.74,33.78,48.8s.49-6.18-1.24-8.53a1.75,1.75,0,0,0-1-.76c-.87-.15-1.51.82-1.79,1.69-1.12,3.51-.46,7.41-1.51,10.95a2.67,2.67,0,0,1-.76,1.36A1.92,1.92,0,0,1,25,53.24a4.73,4.73,0,0,1-1.18-2.41c-.76-3.21-.64-6.88-2.76-9.37A3.5,3.5,0,0,0,19,40.15c-2.15-.26-3.52,2.31-3.94,4.49s-.76,4.77-2.69,5.78L10.1,43.5A3.11,3.11,0,0,0,9,41.73c-1.38-.84-2.9,1-3.31,2.53s-1.12,5.52-2.33,4a23.17,23.17,0,0,0,.27-6.44c-.12-1.17-.44-2.51-1.49-3s-2.55.89-1.75,1.75C0,40.12.14,35.65.31,35c0-.2.1-.38.16-.55"/><path class="cls-3" d="M21.13,39.58a150,150,0,0,0,26.8-.51c.61-.07.61-1,0-1a150,150,0,0,1-26.8.51c-.61,0-.61.91,0,.95"/><path class="cls-3" d="M56.71,39.2c1.23-.3,2.46-.58,3.68-.91.86-.23,1.93-.86,1.66-1.91a.48.48,0,0,0-.92.25.21.21,0,0,1-.05.24,1.23,1.23,0,0,1-.33.26,4.57,4.57,0,0,1-1.15.38l-3.14.77c-.6.14-.34,1.06.25.92"/><path class="cls-4" d="M30.88,18.35c-1.39.84-3.17,3-3.63,8.34A2,2,0,0,0,28,28.41c.84.67,2.46,1.42,5.33,1.1a3.19,3.19,0,0,0,2.81-3.23c0-2.25-.45-5.31-2.41-7.48a2.27,2.27,0,0,0-2.83-.45"/><path class="cls-5" d="M47.69.82S44.29,5.48,46,7.18c1.45.21,1.7,1.49,3.39,0,0-1.48.49-2.12-1.69-6.36"/><path class="cls-6" d="M47.61,3.36s-2.17,3-1.09,4.08c.93.13,1.09,1,2.18,0,0-1,.31-1.36-1.09-4.08"/><path class="cls-7" d="M48,29.84h-.79a1.31,1.31,0,0,1-1.3-1.3v-19a1.3,1.3,0,0,1,1.3-1.3H48a1.3,1.3,0,0,1,1.3,1.3v19a1.31,1.31,0,0,1-1.3,1.3"/><path class="cls-8" d="M47.59,8.25a6,6,0,0,1,0-.6"/><path class="cls-5" d="M17.9,0s-3.4,4.67-1.7,6.36c1.46.22,1.7,1.49,3.39,0,0-1.48.49-2.12-1.69-6.36"/><path class="cls-6" d="M17.82,2.55s-2.17,3-1.09,4.07c.94.13,1.09,1,2.18,0,0-1,.31-1.36-1.09-4.07"/><path class="cls-7" d="M18.17,29h-.75a1.29,1.29,0,0,1-1.29-1.29v-19a1.29,1.29,0,0,1,1.29-1.29h.75a1.29,1.29,0,0,1,1.29,1.29v19A1.29,1.29,0,0,1,18.17,29"/><path class="cls-8" d="M17.8,7.43a6,6,0,0,1,0-.6"/><path class="cls-5" d="M29.45,2.1S25.77,7.19,27.61,9c1.58.23,1.84,1.62,3.68,0,0-1.62.52-2.31-1.84-6.94"/><path class="cls-6" d="M29.37,4.88S27,8.14,28.19,9.32c1,.15,1.18,1,2.35,0,0-1,.34-1.48-1.17-4.44"/><path class="cls-7" d="M29.7,33.76H29a1.39,1.39,0,0,1-1.38-1.38V11.59A1.38,1.38,0,0,1,29,10.21h.72a1.38,1.38,0,0,1,1.38,1.38V32.38a1.39,1.39,0,0,1-1.38,1.38"/><path class="cls-9" d="M29.34,10.21c0,.06,0-.66,0-.66"/><path class="cls-4" d="M18.37,22.39c-1.39.83-3.16,3-3.62,8.34a2,2,0,0,0,.73,1.72c.84.66,2.45,1.41,5.32,1.09a3.19,3.19,0,0,0,2.81-3.23c0-2.25-.44-5.31-2.41-7.48a2.27,2.27,0,0,0-2.83-.44"/><path class="cls-4" d="M43,21.58c-1.39.84-3.16,3-3.63,8.34a2,2,0,0,0,.74,1.72c.84.67,2.45,1.42,5.32,1.1a3.2,3.2,0,0,0,2.81-3.24c0-2.24-.44-5.3-2.41-7.48A2.29,2.29,0,0,0,43,21.58"/><path class="cls-10" d="M17.73,23.85l-.11.19a.12.12,0,0,0,0,.1.17.17,0,0,0,.06.08.15.15,0,0,0,.11,0,.27.27,0,0,0,.08-.07L18,24a.12.12,0,0,0,0-.1.16.16,0,0,0-.06-.08.12.12,0,0,0-.1,0,.1.1,0,0,0-.08.06"/><path class="cls-10" d="M18.66,25.24c0,.08,0,.15,0,.23a0,0,0,0,0,0,.05.09.09,0,0,0,0,.05.16.16,0,0,0,.08.06.14.14,0,0,0,.11,0,.16.16,0,0,0,.06-.08,1.85,1.85,0,0,1,0-.23v0a.08.08,0,0,0,0-.05.09.09,0,0,0-.08-.06.12.12,0,0,0-.1,0s-.06.05-.06.08"/><path class="cls-10" d="M21.6,25.69v.08a.14.14,0,0,0,0,.09.21.21,0,0,0,.1,0,.11.11,0,0,0,.09,0,.12.12,0,0,0,0-.09v-.08a.11.11,0,0,0,0-.09.09.09,0,0,0-.09,0,.13.13,0,0,0-.1,0,.12.12,0,0,0,0,.09"/><path class="cls-10" d="M16.72,27.2a.3.3,0,0,0,0,.15.41.41,0,0,0,0,.18.1.1,0,0,0,.06.08.12.12,0,0,0,.1,0s.07,0,.08-.06,0,0,0,0v-.07h0v0a.17.17,0,0,1,0-.1v0l0-.09,0,0,0,0a.17.17,0,0,0,0-.1s0-.07-.06-.08a.12.12,0,0,0-.1,0,.1.1,0,0,0-.08.06"/><path class="cls-10" d="M19.53,28.1a.49.49,0,0,0,0,.11.16.16,0,0,0,.06.08l.05,0h.05a.16.16,0,0,0,.08-.06.09.09,0,0,0,0-.1l0-.11a.1.1,0,0,0-.07-.08l0,0h-.05a.16.16,0,0,0-.08.06.14.14,0,0,0,0,.11"/><path class="cls-10" d="M22.4,28.85l0,0,0,0a.19.19,0,0,1,0,.07v0a.11.11,0,0,0,0,.1.18.18,0,0,0,.08.07.18.18,0,0,0,.1,0s.06,0,.06-.08,0-.05,0-.08,0-.06,0-.09,0,0,0,0l0-.07a.16.16,0,0,0-.08-.06h-.11a.16.16,0,0,0-.06.08.14.14,0,0,0,0,.11"/><path class="cls-10" d="M21.14,31v.11a.18.18,0,0,0,0,.1.15.15,0,0,0,.1,0,.25.25,0,0,0,.09,0,.13.13,0,0,0,0-.1V31a.13.13,0,0,0,0-.1.15.15,0,0,0-.09,0l-.1,0a.18.18,0,0,0,0,.1"/><path class="cls-10" d="M17.9,30v.11a.15.15,0,0,0,0,.09.13.13,0,0,0,.1,0,.14.14,0,0,0,.13-.13V30a.13.13,0,0,0,0-.1.15.15,0,0,0-.09,0,.14.14,0,0,0-.14.14"/><path class="cls-10" d="M16.66,31.15v.15a.18.18,0,0,0,0,.1.15.15,0,0,0,.1,0,.25.25,0,0,0,.09,0,.18.18,0,0,0,0-.1v-.15a.15.15,0,0,0,0-.09.11.11,0,0,0-.09,0,.12.12,0,0,0-.1,0,.15.15,0,0,0,0,.09"/><path class="cls-10" d="M32,19.93v.22a.18.18,0,0,0,0,.1.15.15,0,0,0,.1,0,.15.15,0,0,0,.09,0,.18.18,0,0,0,0-.1v-.22a.18.18,0,0,0,0-.1.15.15,0,0,0-.09,0,.15.15,0,0,0-.1,0,.18.18,0,0,0,0,.1"/><path class="cls-10" d="M34.37,22.83a.83.83,0,0,0,0,.15.16.16,0,0,0,.06.08h.1s.07,0,.08-.06a.2.2,0,0,0,0-.11.83.83,0,0,1,0-.15.24.24,0,0,0-.06-.08h0s0,0-.06,0a.16.16,0,0,0-.08.06.2.2,0,0,0,0,.11"/><path class="cls-10" d="M32.33,23a1.85,1.85,0,0,0,0,.23.1.1,0,0,0,.06.08.12.12,0,0,0,.1,0s.07,0,.08-.06l0,0v-.07a1.85,1.85,0,0,1,0-.23.18.18,0,0,0-.07-.08.16.16,0,0,0-.1,0,.16.16,0,0,0-.08.06v0a.08.08,0,0,0,0,.07"/><path class="cls-10" d="M34,26a.66.66,0,0,0,0,.15.09.09,0,0,0,.06.08l.05,0h0s.07,0,.08-.06a.14.14,0,0,0,0-.11l0-.15a.24.24,0,0,0-.06-.08h-.11a.16.16,0,0,0-.08.06.17.17,0,0,0,0,.1"/><path class="cls-10" d="M31,26v.15a.15.15,0,0,0,0,.1.15.15,0,0,0,.09,0,.13.13,0,0,0,.1,0,.18.18,0,0,0,0-.1V26a.15.15,0,0,0,0-.09.15.15,0,0,0-.1,0,.11.11,0,0,0-.09,0A.18.18,0,0,0,31,26"/><path class="cls-10" d="M32.41,27.91c0,.06,0,.13,0,.19a.05.05,0,0,0,0,0s0,0,0,0h.1a.1.1,0,0,0,.08-.06l0,0V28l0-.19a.13.13,0,0,0,0-.05l0,0,0,0H32.5a.16.16,0,0,0-.08.06v0a.09.09,0,0,0,0,.07"/><path class="cls-10" d="M42.65,23.39a1.08,1.08,0,0,1-.08.19v.06l0,.05a.17.17,0,0,0,.08.06.18.18,0,0,0,.1,0l0,0a.06.06,0,0,0,0-.06c0-.06.05-.12.08-.19v-.05s0,0,0-.05a.1.1,0,0,0-.08-.06.12.12,0,0,0-.1,0l0,0,0,.06"/><path class="cls-10" d="M44.35,22.9c0,.06,0,.13,0,.19a.05.05,0,0,0,0,0l0,0h0a0,0,0,0,0,0,0,.1.1,0,0,0,.08-.06l0,0V23c0-.07,0-.13,0-.19s0,0,0,0,0,0,0,0l0,0h-.06a.16.16,0,0,0-.08.06,0,0,0,0,1,0,0,.09.09,0,0,0,0,.07"/><path class="cls-10" d="M46.34,25.12a.56.56,0,0,1,0,.12.16.16,0,0,0,.06.08h.05s0,0,.06,0a.16.16,0,0,0,.08-.06.17.17,0,0,0,0-.1s0-.08,0-.12a.16.16,0,0,0-.06-.08h0a0,0,0,0,0-.05,0,.1.1,0,0,0-.08.06.12.12,0,0,0,0,.1"/><path class="cls-10" d="M44.72,25.35v.11a.13.13,0,0,0,0,.1.15.15,0,0,0,.09,0,.14.14,0,0,0,.14-.14v-.11a.15.15,0,0,0,0-.09.13.13,0,0,0-.1,0,.11.11,0,0,0-.09,0,.1.1,0,0,0,0,.09"/><path class="cls-10" d="M41.33,26.07v.11a.11.11,0,0,0,0,.09.09.09,0,0,0,.09,0,.13.13,0,0,0,.1,0,.13.13,0,0,0,0-.09v-.11a.14.14,0,0,0-.14-.14.15.15,0,0,0-.09,0,.18.18,0,0,0,0,.1"/><path class="cls-10" d="M43.18,27.05a.49.49,0,0,1,0,.11v.05a.08.08,0,0,0,0,.05.14.14,0,0,0,.08.07.18.18,0,0,0,.1,0l0,0a.09.09,0,0,0,0-.06s0-.07,0-.11a0,0,0,0,0,0-.05.07.07,0,0,0,0-.05.18.18,0,0,0-.08-.07.2.2,0,0,0-.11,0l0,0,0,.06"/><path class="cls-10" d="M46.11,27.2v0a.18.18,0,0,0,0,.1.15.15,0,0,0,.1,0,.11.11,0,0,0,.09,0,.13.13,0,0,0,0-.1v0a.13.13,0,0,0,0-.1.15.15,0,0,0-.09,0,.14.14,0,0,0-.14.14"/><path class="cls-10" d="M41.59,28.85V29a.14.14,0,0,0,.14.14.15.15,0,0,0,.09,0,.13.13,0,0,0,0-.1v-.15a.11.11,0,0,0,0-.09.15.15,0,0,0-.09,0,.13.13,0,0,0-.1,0,.18.18,0,0,0,0,.09"/><path class="cls-10" d="M44.24,29.38a.36.36,0,0,1,0,.11.16.16,0,0,0,.06.08l0,0h.06a.16.16,0,0,0,.08-.06.17.17,0,0,0,0-.1s0-.08,0-.11a.1.1,0,0,0-.06-.08l0,0h0a.1.1,0,0,0-.08.06.14.14,0,0,0,0,.11"/><path class="cls-10" d="M47,29.41s0,.05,0,.08,0,.05.08.06h.1s.06-.05.06-.08v0a.19.19,0,0,0,0-.07l0-.07s0-.05-.08-.06h0l-.05,0s-.06.05-.06.08,0,0,0,0a.14.14,0,0,0,0,.06"/><path class="cls-10" d="M42.63,31.11v.13a.11.11,0,0,0,0,.09.15.15,0,0,0,.09,0,.13.13,0,0,0,.1,0,.18.18,0,0,0,0-.09v-.13a.14.14,0,0,0-.14-.14.15.15,0,0,0-.09,0,.13.13,0,0,0,0,.1"/><path class="cls-2" d="M14.7,33.63c.52-.52,3.3-1,5-.78a15.92,15.92,0,0,0,3.31.87A12.39,12.39,0,0,0,25,34.5Z"/><path class="cls-2" d="M39.4,33.64c.49-.56,3.23-1.18,5-1.13a16,16,0,0,0,3.36.64,12.15,12.15,0,0,0,2,.65Z"/><path class="cls-2" d="M26.92,34.27c.49-.56,3.23-1.18,5-1.13a15.92,15.92,0,0,0,3.36.64,12.15,12.15,0,0,0,2,.65Z"/><path class="cls-2" d="M31.39,29.64c.35-.55,2.41-1.12,3.73-1a10.16,10.16,0,0,0,2.54.7,8.55,8.55,0,0,0,1.49.68Z"/><path class="cls-11" d="M4.47,48.46a2.49,2.49,0,0,0,1-1.45c.24-.75.42-1.53.62-2.29a5,5,0,0,1,.91-2,1.67,1.67,0,0,1,1.84-.54c.3.12.43-.36.14-.48A2,2,0,0,0,7.12,42a3.48,3.48,0,0,0-1.23,1.73c-.29.79-.47,1.64-.69,2.45a3,3,0,0,1-1,1.9c-.27.17,0,.6.25.43"/><path class="cls-11" d="M12.71,50.53c1.79-1.5,2.08-3.9,2.6-6a6.05,6.05,0,0,1,1.58-3.29,3.32,3.32,0,0,1,3.41-.29c.3.12.43-.36.14-.48a4.08,4.08,0,0,0-3.16-.06A4.24,4.24,0,0,0,15.22,43c-.87,2.4-.74,5.41-2.87,7.18-.25.2.11.55.36.35"/><path class="cls-11" d="M26.84,53.88c1,0,1.44-1.26,1.68-2.07A17,17,0,0,0,29,48.17a33.05,33.05,0,0,1,.6-4.42c.15-.69.32-1.39.51-2.07s.55-1.6,1.43-1.65c.32,0,.32-.52,0-.5a2.14,2.14,0,0,0-1.82,1.73,25.69,25.69,0,0,0-.94,4.24c-.19,1.3-.27,2.61-.36,3.91a12,12,0,0,1-.28,2c-.15.57-.51,2-1.28,2-.32,0-.32.51,0,.5"/><path class="cls-11" d="M36.84,56.8a4.14,4.14,0,0,0,.59-1.75c.16-.71.5-1.36.64-2.08a40.78,40.78,0,0,0,.35-4.7,34.62,34.62,0,0,1,.73-5c.33-1.36.9-4.11,2.84-3.76.31.06.45-.43.13-.48-1.42-.26-2.38.87-2.85,2.08a21.23,21.23,0,0,0-1.13,5c-.23,1.81-.32,3.63-.43,5.44a10.78,10.78,0,0,1-.59,2.69,6.94,6.94,0,0,1-.72,2.23c-.19.25.24.5.44.25"/><path class="cls-11" d="M47.4,48a1.09,1.09,0,0,0,.71-.8,14.38,14.38,0,0,0,.35-1.58l.75-3.52c.06-.32-.42-.45-.49-.14-.21,1-.43,2-.65,3.08l-.32,1.51c-.06.32-.11.87-.49,1s-.17.56.14.48"/><path class="cls-11" d="M50.87,50.79a1.47,1.47,0,0,0,2-.69,9.69,9.69,0,0,0,.82-3.44,29.89,29.89,0,0,1,.67-3.78c.32-1.13,1.13-2.58,2.54-2.24.31.07.45-.41.13-.49-2.29-.55-3.12,2.19-3.44,3.88-.24,1.24-.36,2.5-.58,3.74a10.22,10.22,0,0,1-.4,1.72c-.22.58-.8,1.25-1.47.87-.28-.16-.53.28-.25.43"/><path class="cls-11" d="M.5,40.37A1.29,1.29,0,0,1,1,39.44a1.23,1.23,0,0,1,1.08-.21.25.25,0,0,0,.13-.48A1.79,1.79,0,0,0,.68,39,1.78,1.78,0,0,0,0,40.37a.25.25,0,0,0,.25.25.26.26,0,0,0,.25-.25"/></g></g></svg>