<svg xmlns="http://www.w3.org/2000/svg" viewBox="0 0 39.76 34.51"><defs><style>.cls-1{fill:#fee18e;}</style></defs><title>자산 56</title><g id="레이어_2" data-name="레이어 2"><g id="레이어_1-2" data-name="레이어 1"><polygon class="cls-1" points="17.44 7.63 16.99 7.53 17.74 7.76 17.44 7.63"/><path class="cls-1" d="M18.62,8.84c-.35-.05,0,.54-.3.41a3.4,3.4,0,0,0,1.11.61,2.28,2.28,0,0,1-.81-1"/><path class="cls-1" d="M20,10.12a3.6,3.6,0,0,0-.59-.26,2.25,2.25,0,0,0,.59.26"/><path class="cls-1" d="M19.4,9a3,3,0,0,1,.83.62,8,8,0,0,0-.77-1c-.11,0-.36,0-.06.33"/><path class="cls-1" d="M18.44,7.87l.06,0s0-.08-.06,0"/><polygon class="cls-1" points="22.82 12.32 22.82 12.23 22.77 12.26 22.82 12.32"/><path class="cls-1" d="M19.46,8.61a.89.89,0,0,0-.54-.4,4.79,4.79,0,0,1,.54.49c.05,0,.07,0,0-.09"/><path class="cls-1" d="M20.85,10.77c-.06-.16-.15-.33-.24-.51,0,.19.14.52.24.51"/><path class="cls-1" d="M18.5,8.05l0,0c0,.12,0,.09,0,0"/><path class="cls-1" d="M18.5,8.05a1.81,1.81,0,0,0,.42.16,4.23,4.23,0,0,0-.42-.3.33.33,0,0,1,0,.14"/><path class="cls-1" d="M25.07,11.65c-.24.17-1-.19-1.26-.9-.63-.32-1,.67-1,1.49.11-.08.19-.16.81.2-.06-.28-.82-1.36-.22-1.13.76.54.46.6.67,1,0-.53,1.21.44,1.45-.09l-.7-.43c0-.07.35,0,.24-.17"/><path class="cls-1" d="M21.91,11.26l-.23-.18a3.07,3.07,0,0,1,.41,1c.44.24.59.23.68.18l-1-1Z"/><path class="cls-1" d="M20.78,10.16c.39-.06,1,.33.92-.21-.6-.59-.6-.24-1.05-.51,1,.94-.4-.15.15.69a4.1,4.1,0,0,1-.57-.48c.14.21.27.41.38.61v0h0c0-.07,0-.1,0,0l0,0,.13,0c.22.33,0,.1-.13,0l0,0h0l1.08.85a7.1,7.1,0,0,0-.9-.92"/><path class="cls-1" d="M19.23,7.36l.89.72-.19-.61-.1.13c-.4-.51-.45-.27-.6-.24"/><polygon class="cls-1" points="22.8 12.52 22.45 12.66 23.26 12.78 22.8 12.52"/><path class="cls-1" d="M24.07,19.57c-.4-.39-.82-.93-.85-.59l.07.35a1.63,1.63,0,0,1,.78.24"/><path class="cls-1" d="M2.66,14.85l-.26.07.07.08a.86.86,0,0,0,.21.07c0-.06-.1-.13,0-.22"/><path class="cls-1" d="M1,14.58a5.2,5.2,0,0,1,.74-.35,2.93,2.93,0,0,0-.74.35"/><path class="cls-1" d="M23,9.71c.18-.1.25-.19.22-.26-.18.1-.28.19-.22.26"/><path class="cls-1" d="M10.94,16.75a.42.42,0,0,1,0-.1c-.05,0-.05,0,0,.1"/><path class="cls-1" d="M18.86,26.56l-.07,0c-.09.32,0,.2.07,0"/><path class="cls-1" d="M15.43,21h0l0,0Z"/><path class="cls-1" d="M14.29,20.92a1,1,0,0,1,1.14,0l-.14-1Z"/><path class="cls-1" d="M30.39,4.62a5,5,0,0,0-1.1-.12A9,9,0,0,1,30.53,4l.78-.2c.36-.1.4-.17-.07-.36a2.25,2.25,0,0,1-1.17.62c-.57.18-1.24.33-1.92.47A18,18,0,0,0,26.32,5c-.38.16-.48.31-.48.57l-.55-.1c.14,0,.16-.09.3-.11-1.09-.27-.58.87-1.89,1-.46,0-.8-.06-.52-.25l-.94.47c-.29,0-.26-.14,0-.19l-1.49.43v0a8,8,0,0,1-.82.72c-.42,0,.16-.15,0-.25l-.77.44c-.41-.17.22-.59.81-.7-1-.79-.64.41-2.46.27L18.35,7c-.66-.42-1.22-.06-2.21-.17.27.12,2,.4,1.18.89a1.52,1.52,0,0,0-1.05.38c-.1-.35-.55-.13-1.14.06L15,7.64c-.61.32-.49.54-.8.86A1.11,1.11,0,0,1,13,8.12c-1.17.28,1,.32-.36.83A5.77,5.77,0,0,0,10,10.16c-.71.08,0-.32-.27-.36l-.45.57c-.14,0-.14-.09-.14-.15-.43.32.13.46-.58.87,0,.3-.37.22-1.18.35a3.32,3.32,0,0,0-2.1.85c-.45.06-.14-.26-.41-.34-.66.5-.95.72-1.18.91a3.14,3.14,0,0,0-.62.67c.07,0,0,.1,0,.2-.44.15-.89.31-1.34.5.59-.2.85-.11.94,0a.62.62,0,0,1-.05.57c.2,0,.55-.1.77-.13l.56-.1a4.24,4.24,0,0,0-.33.5,2.3,2.3,0,0,1-1,0,.43.43,0,0,0,.1.09,4.58,4.58,0,0,1-.56.11,1.92,1.92,0,0,1-.37,0c-.11,0-.15-.08-.19-.16.24-.07.49-.15.74-.21a1,1,0,0,0-.84-.34c0,.05,0,.14-.08.24a.26.26,0,0,0-.21-.07c-.1,0,0,.11,0,.22l-.83.16.21,0-.33.24c-.11.09-.22.14-.27.3a.91.91,0,0,0,0,.46.54.54,0,0,0,.12.23,13.55,13.55,0,0,0,2.42.43c1,.11,2.16.16,3.22.29-1,.17-1,.43-1.55.76,0-.26-.57-.31-1.17-.43A3.8,3.8,0,0,1,1.53,17c.31.24-.12.3-.33.26a9.76,9.76,0,0,0,2.44.54c-.6.24.11.32.59.6.43-.67,2.33,0,3.36.06-.06.25-.42.42-1.61.07a1.81,1.81,0,0,0,1.61.22c.5-.12,1-.24,1.36.09-.21-.05-.29-.11-.43,0,.55-.1,1.64.35,1.32.5l-.2,0c1.32.41,4.07,1,4.43.42a4.09,4.09,0,0,1-.47.81L16.49,19c-.34.48.16,1.95-1,2a2.49,2.49,0,0,0,1.39.31c-.2-.13-.36-.9-.05-.87.68.79.49.45,1.38,1.2-.3-.2.26-.94.77-.79-.11.1-.16.83-.37.88l1.48-.51c-.35.07-.22.68,0,1-.09-.19,1.1.28,1.47.28l-.5-.32c1.42.48,1.71-.8,3.13-.41-.21.12-.68.93,0,1.21.43-.33,2-1.66,3.32-1.67l.18.3c.33,0,.74,0,1-.05a16.45,16.45,0,0,1-3.8,1.7c.5.33.08.32.9.5.23.29-.52.23-.77.19l1.86.6c0-.25.41-.29.79-.31l.29,0h.37c.21,0,.34-.07.32-.18-.23,0-.56-.05-.73,0H26.31c0-.26.4-.54.94-.7a3.22,3.22,0,0,1,.91-.13,3.85,3.85,0,0,1,1.14.17c.21.15.17.37.05.57s-.34.37-.32.46a4.82,4.82,0,0,1,2,.28c-.23,0-.48.07-.75.09a2.58,2.58,0,0,0,1.43.14,2.68,2.68,0,0,1,1.67.42c.44.14,2.21,1.21,1.93.83a17.19,17.19,0,0,1-3.93-3.82l1.41.77c.53.28,1.13.58,1.5.79a3.73,3.73,0,0,1,1.22,1,2.76,2.76,0,0,0,1,1,.49.49,0,0,1-.19-.46c.52.19.64.58,1.2.52-.78-.64,1.32.09-.46-.52.37-.11.84.17,1.44.18-.77-.37-.74-.76-1-1.1.2.12.47.26.74.4l.58.28.52.12a.37.37,0,0,0,.37-.26.29.29,0,0,0-.1-.35l-.25-.22c-.33-.3-.62-.58-1.08-1,.1,0,0-.27.53,0a7.53,7.53,0,0,1-1-.68c.26-.29.81.7,1.37.62-.59-.25-1.55-1.05-2.37-1.55-.79-.13.9.88,1.62,1.39-.6-.21-1.27-.56-2.45-1.12s-2-1-2.68-1.35c-.91-.54.56-.05.27-.17a4.11,4.11,0,0,0-1.82-.95c-.55-.17-.88-.19-1-.59a.58.58,0,0,1,.44-.4c.21-.06.47-.06.57-.17.83.54.68.92,1.08,1.24-.07-.14-.15-.3-.25-.46a2.45,2.45,0,0,1,1.07.75c.09-.16-.6-.76-1.39-1.46-.4-.36-.82-.73-1.21-1.11a9,9,0,0,1-1-1.06c-.3-.09-.76-.33-.7-.05l.42.31c.14.56-1-.32-.64.23a4.52,4.52,0,0,1-2.08-1.37l.18-.46c-.08.11.27.64.58.72-.45-.12-.67-1.48-1.41-1.35l.28.7a5,5,0,0,1-2.16-1.27c0,.6.17.11.26.92.06-.85,1.6,1.56,1.45.46,0,.89.62,1,.88,1.9.08-.13,0-.41.47.14a.76.76,0,0,1,.21,0l0,0,0,0s0,0,0,0a.94.94,0,0,1-.12-.43c.51,0,1.36.79,1.77.92.28.34-.25,0-.18.29l.62.18a.38.38,0,0,0,0,.3l0,.18a.43.43,0,0,1,0,.11.19.19,0,0,1-.09.14c-.08,0-.06.09-.32-.07l.21.19.11.11c0,.23,0,.34.26.39,0,.07.8.19.32.12l.73.36L31,20a9.49,9.49,0,0,0,1.07.63c.4.25.75.53.05.32.38.2.9.49.81.53l-1-.45c.13.06.13.12,0,.13a.74.74,0,0,1-.4-.11c-.27-.11-.41-.17,0,.09-1.32-.72-1.48-.8-1.5-.77s.08.18-.15.05l.67.56-.11,0c-.16,0-.19.07-.36.16l.35.43c-.06.13-.41,0-.72-.19a3.38,3.38,0,0,0-.86-.4c.05-.12.16-.06.26,0a1.17,1.17,0,0,0-.21-.25c-.09-.06-.06-.07-.3-.12a7.61,7.61,0,0,0-1.17-.12,3.74,3.74,0,0,1-2.16-.44,1.11,1.11,0,0,1-.8-.2h.09l-.13,0-.42-.29a1.81,1.81,0,0,0,.34.27,6.64,6.64,0,0,0-1-.11l-.08-.39H23.2c-.34-.22-.34.09-.2.4a2.1,2.1,0,0,0-.55.09c-.16-.64-1,0-1.3-.75-.32.23-1.95-.24-2.3.33,0-.08-.09-.15.11-.1A2.05,2.05,0,0,0,17.74,19l-.07-.49-1.06.38c-.49-.41-.69-.62-.05-.83-1.46.2-1.13-.07-2.4.18l.13-.27c-.41-.09-1.15.14-1.34-.16a7.72,7.72,0,0,0-2.8-1l-1-.25a5.74,5.74,0,0,1-.58-.18A1.75,1.75,0,0,1,7.8,16c-.41.35-.45.24-.48.11s0-.27-.54-.06a1.58,1.58,0,0,1,.79-.33c-.41,0-.46-.09-.53-.15s-.2-.07-1.13,0c.48-.1.88-.1,1.14-.16-.14,0-.6,0-.32,0a7.92,7.92,0,0,1,.81-.08c-.24,0-.68-.14-1.24-.12l-2.09,0c1.12-.23,1.1-.27.55-.48.58-.06,1.17-.11.92.11.18-.08.84-.28,1.14-.45s.29-.24,0-.34a.39.39,0,0,0,.41-.21,12.56,12.56,0,0,0,1.25-.49H8.31c-.07-.58.47-.33,1.18-.67v.06c1.79-.21.64-.46,2.44-.58l-.21-.31c-.09-.78,1.6-.07,2.47-.64l-.4-.09c.45-.41,1.77.55,2.32.5.14,0-.15.16-.29.25,1.5.05,0-.5,1.05-.9.26.19-.07.69.63.54.4.11,1.81-1.34,2.9-1.09-.26-.14-.52-.28-.06-.54.73-.26,2.19.24,2.73-.52a.26.26,0,0,1,.17.12c.54-.28,1.81-.66,2.09-1.06,1,1.07,3.1-1.25,2.67,0l1-.25-.16.15a5.32,5.32,0,0,0,1.82-.83c0,.07-.3.24-.42.33a.78.78,0,0,1,.18,0,.27.27,0,0,1,.08.21c0,.18-.16.25-.15.32s.16.14.37.36L30,9.05c.09,0-.14.24-.42.48s-.52.45-.72.66a1.23,1.23,0,0,0-.39.7.27.27,0,0,1-.09-.15,1.54,1.54,0,0,1,0,.17l-.2.3a6.69,6.69,0,0,1-.5.58c-.35.38-.75.73-1.11,1.07-.7.68-1.23,1.3-.92,2L25.11,16c1.09-1.19.31.55.9.18-.33.54-1.34,1-.91.37l.13-.06c-.37-.66-1.44,1.4-1.79,1.06-2,2.46-4.24,4.57-6.16,6.83l.64.09-.68.78c-.27.12-.57,0-.08-.55-.24.05-.39.33-.46.61s0,.21,0,.31a.6.6,0,0,0,.06.18c-.36.26-.37,0-.38-.19s0-.39,0-.33l-.13.22h.08a1.13,1.13,0,0,1-.26,1c-.23.11-.18-.31-.25-.26s0-.05-.1.1l-.36.37a2.14,2.14,0,0,0,.12.54c-.24.61-.48.55-.32,1.12-.07-.21-.21-.22-.37-.11a1.19,1.19,0,0,0-.51.64l-.2.48a1.67,1.67,0,0,1-.12.23s0-.13,0-.19a2.58,2.58,0,0,1,0-.75c-.33.33-.33-.32-.31-1-.08.3-.56,1.3-.52.47a3,3,0,0,0,.68-1.48,2.24,2.24,0,0,1,.46-1.24c-.48.68-.12-1.18-.8-.47.08-.5.37-.11.61-.43-.38-1.63.28-3.68.22-5.75-.13,0-.34.31-.53-.15l.7-1.07c0-.41-.75-.41-.26-1.14-.12.1-.29.25-.32,0,.81-4-.07-8.37,1.54-12.38-.3.54-.29.16-.26-.26-.09.27-.33,0-.51,0l.67-1.67C14.85,1.71,15.49.23,15,0l0,.56c-.47-.8-1.36.87-2.06.69.55.88-1.17,2.07-.39,3.51-.17.28-.2-.28-.38-.14.27.38.29.79.09,1.55l-.07-.1a48.78,48.78,0,0,1-.84,5.47l.37-.15a2.71,2.71,0,0,1-.3.86c.5.63.11-1.47.67-.88-.77.64-.21,3.66-1.05,4.09,0,.8.42-.22.38.59l-.23.2.28.21c-.07.53-.36.78-.54.8a3,3,0,0,0-.05-.51c-.29.68,0,1.93-.07,2.17l.15-.77c.08,1.1,0,2.31,0,3.52,0,.61,0,1.21,0,1.79,0,.29,0,.58.07.86l.06.53.08.58.17-.26a6.13,6.13,0,0,1,.05,2,9.14,9.14,0,0,0,0,2.28l0-.05a2.09,2.09,0,0,1,.19.61l.06.39a1.93,1.93,0,0,1,.06.36c-.27-.17-.16,1.43-.47,1.15.35.66.43.78.54.77s.1,0,.18-.06a.48.48,0,0,1,.31-.09l-.1.58c.2,0,.27-.16.4.52-.08-.19-.11.05-.12.26s0,.4-.17.29a.83.83,0,0,0,.07.3c.06,0,.07,0,.1,0a1.08,1.08,0,0,0,.13-.15c.09-.12.2-.31.32-.51a4,4,0,0,1,.3-.31,1.18,1.18,0,0,1,.29-.24c.17-.1.3-.06.4.27.91-2.05-1.08.13-.64-.47-.16-.18.76-1.53,1.11-1.81.11-.09.18-.06.26,0a1.4,1.4,0,0,1,.12.18.38.38,0,0,0,.18.09c.27.07.73-.17,1.46-1.22-.14.19-.14.29-.29.49a6.76,6.76,0,0,0,.82-1.12,3.17,3.17,0,0,1,.93-1c.1-.85.88-1,.55-1.56l-1.1,1.56a14.64,14.64,0,0,0,.75-1.61,4.15,4.15,0,0,1,.38-.7,2.35,2.35,0,0,1,.61-.61,2.13,2.13,0,0,1-.19.8c.37-.17.37-.62.75-.8.19.23,0,.57-.35,1-.17.22-.3.37-.51.68a5,5,0,0,0-.57,1c.27-.12.62-.73.83-1.07s.25-.41.36,0c-.25-1,1-1.06,1.18-2.23l.23.28a2.32,2.32,0,0,1,.33-.74l0,.7c.22-.87,1.27-1,1.6-1.72-1,1.26-.56,0-1.2.37.92-1.85,1.45-.3,2.77-2.15-.16.27-.9.75-.72.28a3.78,3.78,0,0,1,1.11-.73c.9-1.2-.43-.05-.19-.68.66-.12.33-.68.64-1.28l.28.22c1.26-1.18-.3-.82.89-1.85l0,.83.4-.71.22.39a3.34,3.34,0,0,1,1.17-1.64c-.33,0-.45-.5,0-1.1.48-.27.09.44.71-.44,0,.33.09.72-.46.88.06.11,0,.33.09.44.54-.28.91-1.07,1.15-1.38a1.33,1.33,0,0,1-.33.28l.56-1.55c.26-.11.23.11.19.33a7.54,7.54,0,0,1,.42-.94.83.83,0,0,1,.13,1l.32-.7a6.85,6.85,0,0,1,.41-.8c.2,0,1.09-.89,1-.58a7.85,7.85,0,0,0,1.12-1.77,18.44,18.44,0,0,1,1-1.89,5.12,5.12,0,0,1,.34-.65c-.05,0-.07-.15,0-.4A1.42,1.42,0,0,0,34.93,7L35,6.69c.06-.22.13-.45.17-.67a2.34,2.34,0,0,0,0-.64c0-.21-.4-.65-.68-.58a5.15,5.15,0,0,1,0-.59c-.4-.12-.4.11-.45.3s-.16.31-.9.27c-.54,0-.51-.14-.39-.29s.47-.38.25-.43c-.56.18-1.31.45-2,.64a6.73,6.73,0,0,1-1,.19,4.93,4.93,0,0,1-1.09,0,6.69,6.69,0,0,1,1.47-.31m-13,3.06c.21-.13.59-.48.81-.31-.15.47-.4.32-.81.31M.73,15.93a.28.28,0,0,1,0-.33c.06-.11.23-.17.41-.25a2.84,2.84,0,0,0-.23.19.68.68,0,0,0-.14.39m15,10.57.08,0c-.14.34-.11.15-.08,0"/><path class="cls-1" d="M1.22,14.62a1.37,1.37,0,0,1,.34,0c0-.05-.14-.06-.34,0"/><path class="cls-1" d="M23,9.92c-.1,0-.15-.15-.25-.19l-.1.14c.3.29.6.41.35.05"/><path class="cls-1" d="M22.43,23.17c.9.41.33-.4,1.13,0,.27-.12-.65-.35-.39-.45-.61.05-.89-.13-.74.42"/><path class="cls-1" d="M23.17,22.75l.32,0a1.38,1.38,0,0,0-.32,0"/></g></g></svg>