<svg xmlns="http://www.w3.org/2000/svg" xmlns:xlink="http://www.w3.org/1999/xlink" viewBox="0 0 27.74 27.56"><defs><style>.cls-1{fill:none;}.cls-2{opacity:0.8;}.cls-3{clip-path:url(#clip-path);}.cls-4{fill:#ff6363;}.cls-5{clip-path:url(#clip-path-2);}</style><clipPath id="clip-path"><rect class="cls-1" x="1.08" width="24.33" height="30.08"/></clipPath><clipPath id="clip-path-2"><rect class="cls-1" y="2.31" width="30.67" height="23.72"/></clipPath></defs><title>자산 59</title><g id="레이어_2" data-name="레이어 2"><g id="레이어_1-2" data-name="레이어 1"><g class="cls-2"><g class="cls-3"><polygon class="cls-4" points="4.45 27.29 4.69 27.56 4.34 27.14 4.45 27.29"/><path class="cls-4" d="M4.59,27c.2.22.44.23.55.39,0-.1-.15-.31-.29-.5.06.13,0,.17-.26.11"/><path class="cls-4" d="M4.66,26.6a2,2,0,0,0,.19.29,1.51,1.51,0,0,0-.19-.29"/><path class="cls-4" d="M4.56,25.69l-.07,0,.06.05Z"/><path class="cls-4" d="M4.61,26.32l-.24-.06c.12.06.33.14.24.06"/><path class="cls-4" d="M2.5,23.86c.31.25.51.59.09.44a7.6,7.6,0,0,0,1.9,1.35,1.09,1.09,0,0,1-.37-.45c-.2-.09-.58-.07-.8-.38,0-.26.2,0,.42,0-.44-.24-.44-.61-1-1l.11.28c-.09-.07-.2-.22-.31-.25"/><path class="cls-4" d="M4.3,25.83v.07a1.53,1.53,0,0,1,.54.17,1.2,1.2,0,0,0-.3-.37l-.21.18Z"/><polygon class="cls-4" points="4.74 25.8 5.09 26.09 4.65 25.61 4.74 25.8"/><polygon class="cls-4" points="4.87 25.54 5.18 25.79 5.04 25.58 4.87 25.54"/><path class="cls-4" d="M11.32,10l0-.13a.5.5,0,0,0,0,.13"/><path class="cls-4" d="M11,10.33l.14.14c-.07-.09-.12-.15-.14-.14"/><path class="cls-4" d="M9.11,20.07c.35.16.86.45.51.17L9.26,20c0,.1,0,.11-.15.08"/><path class="cls-4" d="M10.19,14.75l-.12-.07.27.32-.15-.25"/><path class="cls-4" d="M8.87,13.53l.29.09a.75.75,0,0,0-.29-.09"/><path class="cls-4" d="M12.72,7.77l-.27-.35c-.08.09.12.2.27.35"/><path class="cls-4" d="M6.51,23.15a.46.46,0,0,0,.33,0c-.26-.08-.6-.25-.33,0"/><path class="cls-4" d="M14.63,13.2a.46.46,0,0,0-.16-.21.46.46,0,0,0,.16.21"/><path class="cls-4" d="M7,23l-.11,0c0,.1,0,.18,0,.22.19.06.33.06.15-.19"/><path class="cls-4" d="M19.48,1.26s0,0,.06,0-.05,0-.06,0"/><path class="cls-4" d="M24.48,2.51s0,.06-.06.1.06,0,.06-.1"/><path class="cls-4" d="M5.71,24.75c0,.07,0,0,0,0"/><path class="cls-4" d="M5.22,20.83h0c-.08,0-.07,0,0,0"/><path class="cls-4" d="M5.5,24.7a.26.26,0,0,0,.15,0l-.15,0"/><path class="cls-4" d="M5.67,24.82l-.07,0c.06,0,.1.07.07,0"/><path class="cls-4" d="M5.74,24.67a.11.11,0,0,1-.09,0l.06,0a.2.2,0,0,1,0-.08"/><path class="cls-4" d="M16.8,5.65l0,0c-.09-.17-.09-.13,0,0"/><path class="cls-4" d="M6.63,16v0h0Z"/><path class="cls-4" d="M6.52,15.62c.36.42.27.41.14.39l1,.75Z"/><path class="cls-4" d="M12,9.07l-.39-.15c-.36-.56-.1-.52-.6-.78,1,.93-.31.55.69,1.47l-.28-.11s0-.08,0-.09c-.62-.29.63.77.32.83a.5.5,0,0,1-.41-.24l.12.37c-.06,0-.22-.14-.16-.17l-.13.3,0,0a5.68,5.68,0,0,1,.38.59c-.2-.07-.08-.12-.22-.22l.13.34c-.31-.18-.47-.51-.35-.56-1.12-.79.16.33-.66.06l0-.24c-.64-.43-.52-.15-1-.34.22.14,1.15.54,1.28.9-.11,0-.19,0-.05.24-.36-.32-.34-.17-.4-.06l-.47-.43c.05.22.3.43.47.68-.14.06-.53-.24-.87-.49-.23.1.7.4.61.69-.31,0-.2.25-.06.68-.26-.05-.28-.28-.45-.36l.3.42s-.14-.09-.19-.15c.08.21.47.43.5.66.5.49-1-.43-.51.24-.17-.08-.28-.27-.48-.42a4,4,0,0,0,.53,1.05l-.44-.13a2.75,2.75,0,0,1,1,1.13l.48.26.1.4a1.66,1.66,0,0,1-.43-.41l.09.14a2.23,2.23,0,0,1-.72-.65l.36.19a7.51,7.51,0,0,0-.84-.85.29.29,0,0,1,.08.17.77.77,0,0,0-.19-.18s0,.07.13.21l-.57-.42.2.19-.55-.05c.4.65,1.08,1.48,1.07,1.94a9.27,9.27,0,0,0-1.11-1c.56.35,0-.39.19-.45-.11,0-.33-.17-.39-.26l.24.64c-.38-.33-.34-.19-.55-.26.8.6.34.63.49.93-.26-.21-.5-.46-.33-.53-.7-.35.74.94.14.66,0,0,.07,0-.05-.14.17.27-.16.29-.35.06l0,0c-.27.13-.54.63.09,1.2-.08-.07-.76-.68-.89-.81l1.9,2.2c-.54-.5-2-1.48-2.16-1.92-.12,0-.26,0-.15.24a4.17,4.17,0,0,1,.9.68,7.81,7.81,0,0,0-1.07-.48c.16.05,1,.84.9.89-.12-.12-.88-.71-.94-.81l.7.91a4.76,4.76,0,0,0-1-.77c.18.12-.16.16-.12.29l.27.08c-.31.12,1,1.22.82,1.41-.16-.17-1.06-1-1.26-.95A17.29,17.29,0,0,1,7.82,20l-.28-.17.17.38c-.6-.63-1.8-2.05-2.23-2.64-.28-.08-.32-.22-.41-.07A.48.48,0,0,1,4.78,17l-.39.17c.53.41.34.66.78,1l-.28-.77C5.42,17.86,6.22,18.83,6,19A11.14,11.14,0,0,1,4.88,18c.16.17.19.48,0,.39l-.21-.31c-.29,0,.54.75-.08.49-.07,0-.79-.39-.49-.14a27.58,27.58,0,0,1,2.94,2.28A6.57,6.57,0,0,1,6,20.37c-.54-.3-1-1-1.49-1.27a1.94,1.94,0,0,1,.33.37c-.17,0-.43-.38-.46-.22.52.45-.22.19.41.42.07.23-.2,0-.28.17a4.25,4.25,0,0,1,1.15,1.27,4.35,4.35,0,0,0-.41-.28c-.23.19-.57.12-.73.32a1.34,1.34,0,0,1-.58-.33c.07.11.23.28.19.35-.56-.23,0-.2-.59-.54.3.25.3.51.42.75.51.35.26-.14.14-.38a4.22,4.22,0,0,1,1.37,1.68c0,.3-.49-.26-.41-.16-.37.23.94,1.18.25,1.07a6.58,6.58,0,0,1-1.17-.86c0-.26.44,0,.49-.11l-.29,0c-.1-.16-.14-.33,0-.29-.46-.21-.51.49-1,.47a1,1,0,0,0,.39.45v-.13c.4.19.37.52.6.54.16.29.45.7.14.7L3.92,24c.15.1.37.12.25,0,.17.22-.83-.28-.25.28l.42.15c.17.3.58.82.33.84.53.3,0-.07.6.26-.76-.45.29-.32-.55-.75.73.41.41.05,1.06.35-.16-.12-.34-.19-.18-.25l-.12-.13h0s0,0,0,0a1,1,0,0,1-.29-.13c-.33-.34-.18-.5-.33-.71.13,0,.17.17.37.26L5,23.81c.36.26.73.28.81.59l.13-.12c.26.07.43,0,.33-.17.13,0-.26-.47,0-.2l0-.38.09.06c.21-.18-.24-.9.59-.65,0-.14-.08-.3.11-.34l.32.22c0-.18.53,0,.24-.33.9.55.54-.3.81-.35L8,21.82c.11-.1.08-.29,0-.56L7.64,21c-.19-.35.49-.11.61-.32.12.12.05.14-.06.11,1,.41-.19-.94.55-.68-.09-.15,0-.16.1-.12a0,0,0,0,0,0,0,0,0,0,0,0,0,0l.24.08A1,1,0,0,0,8.88,20a.42.42,0,0,0,0-.27l.39.28s0,0,0,0c.19.05-.14-.19-.44-.39a1.53,1.53,0,0,0-.16-.26c.64.44-.08-.32.61.14-.28-.29,0-.48-.63-1.05.09.06.15.08.13.12s.25,0,.11-.22l.5.36L8.86,18a1.65,1.65,0,0,1,.85.64c-.39-.67-.07-.34-.48-1l.3.26c0-.07-.29-.51,0-.34.69.34.65-.62,1.48-.53-.95-.68.54.18-.14-.42.23.16.39.21.53.42-.06-.35.56,0,.08-.6.23.15.28.3.42.38,0-.05-.13-.21,0-.12s.15.18.22.28c.12-.21-.51-.78-1.1-1.31.36.15.36.07,0-.34.23.14.48.26.45.44.09,0,.63-.15.15-.57.14.09.12-.06.07-.12.16-.12.21-.1.29-.28l-.12,0c-.53-.56,0-.23,0-.4l.06,0c.65.11-.1-.29.6-.12L12.18,14c-.76-.7.66.18.49-.23l-.25-.13c-.2-.31,1.25.7,1.42.71s.08.12.11.19c.64.19-.45-.45-.42-.7.28.19.61.61.75.54.26.13-.55-1,.07-.75a1.16,1.16,0,0,1-.53-.49c0-.17,1,.36.48-.29a.52.52,0,0,1,.17.12c-.08-.23,0-.52-.3-.87,1.31,1-.12-1.07,1,0l.17-.32.11.11c.23-.1,0-.4-.21-.71.12,0,.2.16.25.21.45,0,.43-.1.05-.82l.39.32c-.16-.25.89.17.69-.46a1.63,1.63,0,0,1,.14.18c-.19-.67,1.59.3.36-1L17,9.08c-.31.13-.54-.57-.84-.68,0-.16.61.14.58.32l-.09-.05c.65.69.51-.05,1,.39.39-.48,1.18-.55,1.6-.94l-.57-.45.17-.12c.16.08.46.35.34.43.35.23-.09-.41-.2-.53.41,0,.54.67.61.62l0-.12-.08,0c-.15-.27-.37-.5-.22-.6s.36.27.41.26.07,0,.06,0L20,7.4l-.49-.32c-.12-.28.19-.15-.36-.53.84.58.91-.42,1.21-.27-.19-.41-.07-.52.1-.62-.12,0-.6-.48-.43-.54.91,1,.63.19,1.4.77-.53-.36.22-.44-.55-.95.17,0,.36.35.66.5-.14-.61.74-.28.91-.68a2.49,2.49,0,0,1-.49-.52l.78.47c0-.12-.67-.77-.13-.44-.12-.09-.3-.23-.3-.31,1.16,0,.67-1.64,2.37-1-.32-.17-.29-.25-.24-.31s-.3-.32-.47-.48l.7.24c-.42-.52.23-.28-.19-.76v.15c-.42-.64-1.3-1-1.94-1.76.47.72-1.18-.61-.53.45-.18-.1-.18-.26-.36-.39.24.34.24.46,0,.43L21.59.4c-.24.37-.65.2-1.18.35l.36.31a.65.65,0,0,1-.36-.12c.43.6.24-.17.72.47-.77-.59-.52.5-1.36-.22-.12.11.42.36.3.46l-.24-.18.24.3c-.11,0-.41-.2-.59-.37,0,0,0-.1,0-.14-.34-.15-.18.36-.29.31l.23,0c-.1.5-.75.59-.62,1.31L19,3c.08.52-.35,0-.46.39l0-.05c.11.21.12.35,0,.4-.12-.24-.47-.24-.6-.52.08.55.13.36.56,1.11l-.3-.23c.19.29.31.42.26.61-.13-.32-.48-.31-.67-.72-.84-.31.21,1-.76.25.62.84.63.17.72.39.29.18.45.63.3.64S17,4.54,16.77,4.77c0,0,0-.08,0-.09-.27-.11.1.4-.3.2.4.48-.14.1.41.66l.06-.32c0,.26.61,1,.11.87a2.54,2.54,0,0,1-.25-.44c-.22-.11,0,.21-.21.1-.56-.57.1-.36-.22-.89-.3-.18.2.61-.36,0,.7.84-.3.11.16.83l-.33-.33c0,.07.15.27.1.3l-.38-.5c.27.48-.54-.09-.44.22.21-.24.46.34.81.48.18.73-1.06-.69-1.2-.2,0-.09.36,0,.46.25a1.31,1.31,0,0,1-.56-.18c-.13.28.39.3.51.59-.49-.32.07.27.12.49l-.35-.33c-.46,0,.67.75.19.71l-.4-.55,0,.24-.38-.4c.18.4.07.37-.16.39.27.2.62.61.53.73-.28-.12-.3-.36-.39-.16-.19-.24-.43-.53,0-.3L14,6.75c-.31-.14-.24.15-.29.21a.18.18,0,0,1,.14,0l.28.68a.78.78,0,0,1-.32-.33c0,.08.13.26.09.35-.27-.28-.57-.55-.62-.77l.13.51c-.14-.1-.45-.21-.53-.33-.28,0,.29.8-.08.76a.39.39,0,0,1,.1.19c-.2.09-.68-.1-.45.44l-.61-.37c0,.24.78.46.77.86s-.5-.34-.7-.41c.19.32.6.94,0,.71-.06-.14.05-.11.06-.19M10.68,11c0-.1-.22-.38,0-.21.38.4.16.26,0,.21M9.26,14.4c-.1-.13,0-.11.17,0,0,.06,0,.08-.17,0M5.8,24l0,0c.21,0,.13,0,0,0m-.29,0a.64.64,0,0,0,.15.13c-.09-.09-.07-.13,0-.15-.11-.07-.19-.1-.14,0M19.59,7.43l-.12,0c0-.17,0-.06.12,0"/><path class="cls-4" d="M9,13.67l.21.16A.42.42,0,0,0,9,13.67"/><polygon class="cls-4" points="12.77 7.84 12.78 7.84 12.72 7.77 12.77 7.84"/><path class="cls-4" d="M4.25,19a.78.78,0,0,1,.24.09C4.4,19,4.31,19,4.25,19"/><path class="cls-4" d="M5.51,25.38l0-.18c0,.06-.12,0-.2,0,.09.07.24.15.22.19"/><path class="cls-4" d="M5.56,24.39c-.11,0,.4.34.25.26.38.35-.32-.61-.25-.26"/><path class="cls-4" d="M4.82,22.21V22c-.13-.12-.24-.15-.22-.06s.09.19.23.27"/><polygon class="cls-4" points="5.73 19.88 5.71 19.91 6.51 20.54 5.73 19.88"/><path class="cls-4" d="M5.18,16.68c-.31,0,.46.43.12.37.15.19.28.05.41.22-.12-.25,0-.21-.53-.59"/><path class="cls-4" d="M5.71,17.27l.08.14a.3.3,0,0,0-.08-.14"/><polygon class="cls-4" points="25.17 2.59 25.41 2.66 25.11 2.47 25.17 2.59"/><path class="cls-4" d="M24.82,1.89l.47.45-.36-.48s0,.12-.11,0"/><path class="cls-4" d="M9.47,10.39l.11.11c.14.1.17.09.23.06Z"/><polygon class="cls-4" points="10.96 9.46 10.93 9.47 11.4 9.82 10.96 9.46"/><path class="cls-4" d="M11.35,7.9c-.06,0,0,.17-.07.19,0-.16.62.29.07-.19"/></g></g><g class="cls-2"><g class="cls-5"><path class="cls-4" d="M27.74,24.14c-.21.14-.5.23-.61.61.23-.19.29-.41.61-.61"/><path class="cls-4" d="M27.24,22.86c-.17.1-.23.08-.3.05a.31.31,0,0,0,.1.25c.09-.1.27-.26.2-.3"/><path class="cls-4" d="M26.39,22.46l-.05.06.05-.05Z"/><path class="cls-4" d="M27,23.23c0,.1.08,0,.19,0a.19.19,0,0,1-.15,0s-.07.07,0,.07"/><path class="cls-4" d="M27,22.43a1.53,1.53,0,0,0-.07.24c.06-.12.15-.32.07-.24"/><path class="cls-4" d="M24.48,24.44c.26-.3.61-.49.44-.07a7.61,7.61,0,0,0,1.42-1.85,1,1,0,0,1-.46.35c-.1.2-.09.58-.41.79-.26,0,0-.2,0-.42-.25.43-.63.41-1.06,1l.29-.1c-.07.09-.23.19-.26.3"/><path class="cls-4" d="M26.52,22.72h.07a1.75,1.75,0,0,1,.19-.53,1.16,1.16,0,0,0-.39.29l.18.21Z"/><path class="cls-4" d="M26.79,22.87c-.31.31-.53.36-.76.78.14.08.31-.21.51-.29-.27-.09.21-.14.22-.45a.36.36,0,0,1,.18,0,.69.69,0,0,1,0-.24v0h0c0,.05,0,.08,0,.05h0l-.11.12c0-.12.06-.1.11-.12l0-.05h-.35c0,.09.07.12.2.16"/><path class="cls-4" d="M26.43,25.38a.28.28,0,0,1,.06-.08s-.07.05-.06.08"/><path class="cls-4" d="M26.51,25.11c.06,0,.18-.16.2-.08s-.13.15-.22.27a.61.61,0,0,0,.34-.4l0,0a2.13,2.13,0,0,1,.3-.72,10.34,10.34,0,0,0-.57.89"/><path class="cls-4" d="M26.57,24.07l-.3,0-.15.36.14-.17c0,.14.19-.09.31-.21"/><polygon class="cls-4" points="26.5 22.27 26.81 21.94 26.31 22.36 26.5 22.27"/><polygon class="cls-4" points="26.25 22.14 26.51 21.84 26.3 21.97 26.25 22.14"/><path class="cls-4" d="M10.72,15.74l-.12,0a.25.25,0,0,0,.12,0"/><path class="cls-4" d="M11.06,16.05l.14-.14c-.09.07-.15.13-.14.14"/><path class="cls-4" d="M20.82,17.73c.16-.34.44-.85.17-.5l-.25.35c.1,0,.1.05.08.15"/><path class="cls-4" d="M15.47,16.7l-.06.12.31-.28-.25.16"/><path class="cls-4" d="M14.28,18l.09-.29a1.4,1.4,0,0,0-.09.29"/><path class="cls-4" d="M8.46,14.48l-.34.29c.1.07.2-.13.34-.29"/><path class="cls-4" d="M23.89,20.41a.45.45,0,0,0,0-.33c-.08.25-.26.59,0,.33"/><path class="cls-4" d="M13.78,12.3a.51.51,0,0,0-.2.16.49.49,0,0,0,.2-.16"/><path class="cls-4" d="M23.72,19.93l0,.11c.09,0,.18,0,.21,0,.07-.19.07-.33-.18-.15"/><path class="cls-4" d="M25.48,21.26c.07,0,0,0,0,0"/><path class="cls-4" d="M24.62,22.77a1,1,0,0,0-.15.15,2,2,0,0,1,.15-.15"/><path class="cls-4" d="M21.54,21.64h0c0,.08,0,.07,0,0"/><path class="cls-4" d="M25.43,21.47a.39.39,0,0,0,0-.15.61.61,0,0,0,0,.15"/><path class="cls-4" d="M25.55,21.31s0,0,0,.06.08-.09,0-.06"/><path class="cls-4" d="M25.4,21.23a.09.09,0,0,1,.05.09.16.16,0,0,1,0-.06l-.08,0"/><path class="cls-4" d="M6.12,10.58s0,0,0,0c-.16.11-.12.1,0,0"/><path class="cls-4" d="M16.75,20.22h0v0Z"/><path class="cls-4" d="M16.37,20.33c.42-.36.41-.27.4-.14l.74-1Z"/><path class="cls-4" d="M9.78,15.13l-.13.39c-.55.38-.51.13-.75.64.88-1,.55.27,1.43-.77l-.11.29s-.07,0-.08,0c-.26.63.73-.67.81-.36a.52.52,0,0,1-.23.42l.37-.14c0,.06-.14.23-.17.18l.3.1,0,0a6.45,6.45,0,0,1,.57-.41c-.06.2-.12.09-.21.23l.34-.15c-.18.32-.5.49-.55.38-.75,1.15.32-.18.07.65l-.23,0c-.41.66-.14.52-.31,1,.13-.22.5-1.16.85-1.31,0,.11,0,.19.25,0-.31.37-.16.34-.05.4l-.41.49c.21-.07.41-.33.65-.5.07.14-.22.54-.46.88.11.23.38-.71.67-.63,0,.31.26.19.67,0,0,.25-.26.29-.34.46l.41-.32s-.09.14-.14.2c.2-.09.41-.49.64-.53.48-.51-.41,1,.25.51-.08.17-.27.29-.41.49a4.67,4.67,0,0,0,1-.56l-.12.44a2.72,2.72,0,0,1,1.1-1.05c.12-.21.21-.4.25-.49l.41-.11a2.39,2.39,0,0,1-.41.44l.14-.09a2.26,2.26,0,0,1-.63.73l.18-.36a6.63,6.63,0,0,0-.83.85.44.44,0,0,1,.17-.08,1,1,0,0,0-.18.19c0,.06.07,0,.2-.14l-.41.59.19-.21,0,.55c.63-.41,1.45-1.1,1.91-1.1a7.93,7.93,0,0,0-.95,1.12c.34-.57-.39,0-.45-.18,0,.11-.17.33-.26.39l.64-.25c-.33.39-.19.34-.25.56.58-.82.61-.36.91-.51-.21.26-.45.51-.53.34-.33.7.93-.76.66-.15,0,0,0-.07-.14.05.27-.17.29.16.06.35l0,0c.13.26.63.52,1.2-.11-.07.09-.68.77-.8.89L18.67,18c-.49.54-1.47,2-1.91,2.17,0,.12,0,.26.24.15a4.22,4.22,0,0,1,.67-.9,6.26,6.26,0,0,0-.47,1.07c.05-.16.83-1,.89-.91-.12.12-.71.88-.82.95l.91-.71a4.92,4.92,0,0,0-.77,1c.12-.19.16.15.29.11l.08-.27c.11.31,1.22-1,1.41-.81-.18.15-1,1.05-1,1.25A17.37,17.37,0,0,1,20.7,19l-.17.29.39-.17c-.64.6-2.07,1.79-2.66,2.22-.08.27-.22.32-.08.4a.47.47,0,0,1-.41.29l.16.39c.42-.53.66-.34,1-.78l-.76.28c.41-.53,1.4-1.32,1.53-1.06A11.05,11.05,0,0,1,18.76,22c.17-.16.48-.18.39,0l-.31.21c-.05.29.75-.54.48.07,0,.07-.41.79-.15.49a28.47,28.47,0,0,1,2.32-2.91,6.25,6.25,0,0,1-.4,1.11c-.3.53-1,1-1.29,1.47a2.14,2.14,0,0,1,.37-.32c-.05.16-.38.42-.22.44.46-.51.19.23.42-.4.23-.06,0,.2.17.28a4.28,4.28,0,0,1,1.29-1.12,3.56,3.56,0,0,0-.29.41c.18.22.11.56.3.73a1.42,1.42,0,0,1-.34.57c.11-.07.28-.22.36-.18-.26.55-.2-.05-.56.57.26-.29.51-.28.76-.4.36-.5-.14-.26-.38-.15a4.26,4.26,0,0,1,1.71-1.33c.3,0-.27.48-.17.41.23.38,1.21-.91,1.09-.22a7.44,7.44,0,0,1-.9,1.15c-.27,0,0-.44-.1-.5l0,.29c-.16.1-.33.13-.29,0-.21.44.48.51.45,1.06a1.18,1.18,0,0,0,.45-.38h-.13c.21-.39.53-.34.56-.58.3-.15.72-.42.71-.11l-.36.49c.11-.14.13-.36,0-.25.24-.16-.29.83.28.26l.17-.41c.3-.15.84-.55.85-.29.32-.52-.08,0,.28-.6-.48.75-.31-.3-.77.52.43-.71.06-.4.38-1.05-.12.16-.2.34-.25.17l-.13.12v0h0a1.53,1.53,0,0,1-.14.29c-.35.31-.52.16-.73.3,0-.13.18-.16.28-.36l-.32.21c.28-.36.3-.72.62-.8L25,21c.08-.26,0-.43-.16-.34,0-.12-.48.25-.2,0l-.39,0,.07-.09c-.18-.22-.91.21-.64-.61-.14,0-.3.07-.34-.12l.22-.32c-.18,0,0-.53-.33-.25.57-.89-.3-.54-.34-.82l-.33.39c-.09-.11-.29-.09-.56-.05l-.27.36c-.35.18-.11-.5-.32-.62.12-.12.14-.05.11.06.41-1-1,.18-.68-.56-.16.08-.16,0-.12-.1h0s0,0,0,0,.06-.17.08-.25a.82.82,0,0,0-.09.24.36.36,0,0,0-.27,0l.28-.4s0,0,0,0c.06-.18-.19.14-.38.45a1.12,1.12,0,0,0-.27.16c.45-.64-.32.08.15-.62-.3.28-.49,0-1.06.63.07-.09.08-.14.12-.12s0-.26-.22-.12l.36-.5-.66.52a1.69,1.69,0,0,1,.64-.85c-.67.39-.34.07-1,.49l.26-.3c-.07,0-.51.28-.34,0,.34-.7-.62-.65-.54-1.49-.67,1,.16-.54-.43.15.16-.23.21-.39.42-.53-.36.06,0-.57-.61-.08.15-.23.29-.28.38-.42-.05,0-.21.13-.13,0s.18-.16.28-.23c-.21-.11-.77.53-1.29,1.13.14-.37.06-.37-.34,0,.13-.23.25-.48.43-.46-.05-.08-.16-.63-.58-.14.09-.14-.06-.11-.12-.07-.13-.15-.1-.2-.28-.27l0,.11c-.55.55-.23,0-.41,0l.06-.06c.08-.65-.29.11-.15-.6l-.29.39c-.68.77.15-.67-.25-.49l-.12.26c-.3.2.66-1.28.66-1.44s.12-.09.18-.12c.17-.65-.42.46-.68.44.18-.29.59-.64.52-.78.11-.25-1,.59-.76,0a1.2,1.2,0,0,1-.47.54c-.17,0,.31-1-.31-.47a.67.67,0,0,1,.11-.18c-.23.1-.52,0-.86.34,1-1.35-1.06.17-.09-1l-.33-.16.11-.12c-.11-.22-.41,0-.7.24,0-.11.14-.2.2-.26-.06-.44-.13-.42-.83,0l.29-.4c-.24.17.13-.91-.49-.67a.86.86,0,0,1,.17-.15c-.65.22.19-1.62-1.06-.31l-.46.19c.15.31-.54.58-.63.89-.16,0,.1-.62.28-.6l0,.09c.64-.69-.09-.51.32-1C9,9.18,8.82,8.4,8.4,8L8,8.61l-.13-.16c.07-.17.31-.49.4-.38.21-.36-.4.12-.51.24,0-.41.63-.59.57-.66l-.12,0,0,.08c-.26.17-.47.41-.58.28s.25-.39.23-.44,0-.06,0-.06l-.15-.2-.29.51c-.27.15-.17-.18-.49.4.51-.89-.5-.88-.38-1.19-.39.23-.51.12-.62,0,0,.13-.43.65-.51.48.9-1,.13-.64.64-1.47-.31.57-.46-.18-.89.64,0-.17.31-.39.43-.7-.59.19-.35-.72-.78-.85a1.82,1.82,0,0,1-.46.53l.39-.81c-.12,0-.7.74-.43.17-.08.13-.2.32-.27.33C3.89,4.11,2.25,4.79,2.65,3c-.13.33-.21.31-.28.27s-.28.33-.42.52l.16-.72c-.47.47-.31-.2-.74.27l.15,0A21.3,21.3,0,0,0,0,5.48C.66,4.93-.47,6.72.5,6c-.08.19-.23.21-.35.4.31-.28.43-.29.43,0L.5,6.36C.89,6.55.77,7,1,7.48l.27-.38c0,.11,0,.24-.07.36C1.7,7,1,7.25,1.55,6.7c-.51.83.54.47-.09,1.37.12.1.31-.45.43-.35L1.73,8,2,7.71c0,.11-.16.43-.32.62,0,0-.1,0-.13,0-.12.36.36.15.33.26V8.37c.5.05.65.68,1.35.48l.12-.2c.5-.12,0,.35.42.42l0,0C3.93,9,4.08,9,4.13,9c-.23.15-.19.49-.47.65C4.21,9.55,4,9.51,4.72,9l-.2.32c.27-.21.39-.34.58-.31-.31.16-.27.51-.66.73-.24.86.93-.29.31.73.78-.69.12-.64.33-.75.15-.31.59-.5.61-.35S5,10.52,5.25,10.69c0,0-.07,0-.09,0-.08.27.39-.14.22.27.45-.43.11.14.63-.46l-.32,0c.24-.07.94-.7.85-.19a1.92,1.92,0,0,1-.42.28c-.09.23.2,0,.11.21-.52.59-.36-.08-.87.29-.15.31.6-.25,0,.36.78-.77.13.29.81-.23l-.31.36c.07,0,.26-.17.3-.13l-.47.41c.45-.3-.06.55.24.43-.26-.19.31-.49.42-.84.71-.25-.61,1.1-.13,1.2-.08,0,0-.36.22-.47a1.06,1.06,0,0,1-.14.56c.29.11.27-.4.55-.55-.29.51.26-.09.48-.15L7,12.4c0,.45.7-.72.69-.24l-.52.44.23,0-.37.4c.39-.2.36-.09.39.14.19-.29.58-.67.7-.58-.11.28-.34.31-.13.39-.23.21-.51.47-.3.07-.1.11-.23.2-.33.31-.13.33.16.23.22.28a.18.18,0,0,1,0-.14l.66-.33a.91.91,0,0,1-.32.35c.08,0,.25-.15.35-.12-.27.29-.52.6-.74.67l.5-.16c-.09.15-.18.46-.3.55,0,.27.78-.34.75,0a.39.39,0,0,1,.19-.1c.1.19-.07.67.45.41l-.34.63c.25,0,.42-.8.83-.81s-.32.51-.38.71c.31-.2.91-.64.7-.07-.14.06-.11-.06-.19,0m2,1.2c-.1.05-.37.23-.21,0,.39-.39.25-.16.21,0m3.41,1.3c-.13.1-.12,0-.05-.17.06,0,.08,0,.05.17m9.57,3.52h0c.05-.21,0-.13,0,0m0,.29a.37.37,0,0,0,.13-.15c-.09.08-.13.06-.14,0-.07.11-.11.19,0,.15M7.68,7.67l0,.12c-.16,0-.06,0,0-.12"/><path class="cls-4" d="M14.42,17.89l.16-.22a.5.5,0,0,0-.16.22"/><path class="cls-4" d="M8.53,14.42h0l-.06.07Z"/><path class="cls-4" d="M19.71,22.59a.78.78,0,0,1,.09-.24c-.07.09-.12.18-.09.24"/><path class="cls-4" d="M26.1,21.49h-.18c.07,0,0,.12,0,.2.07-.09.16-.23.19-.21"/><path class="cls-4" d="M25.09,24.52c.05,0,0,0,.09,0l.13-.17c-.07,0-.23.06-.22.19"/><path class="cls-4" d="M25.18,22.81c-.25.32-.1.26,0,.26a0,0,0,0,1,0,0c.38-.42.18-.34,0-.25"/><path class="cls-4" d="M25.23,23.07s.06,0,.07.05c.15-.17,0-.06-.07-.05"/><path class="cls-4" d="M25.12,21.39c0,.11.35-.38.26-.24.37-.36-.62.3-.26.24"/><polygon class="cls-4" points="24.39 23.89 24.68 23.48 24.39 23.76 24.39 23.89"/><path class="cls-4" d="M24.06,23.14l0,.2a.28.28,0,0,1,.14-.1c-.06-.07-.07-.21-.17-.1"/><path class="cls-4" d="M24.23,23.24a.1.1,0,0,0,.14,0,.13.13,0,0,0-.14,0"/><polygon class="cls-4" points="24.14 23.88 24.17 23.77 24.12 23.67 24.14 23.88"/><path class="cls-4" d="M22.91,22.07h-.22c-.12.12-.15.23-.06.22s.19-.09.28-.23"/><path class="cls-4" d="M22.41,23.44a1.33,1.33,0,0,1,.19-.34l-.4.47Z"/><path class="cls-4" d="M22,23.25c-.12.13-.49.24-.31.34.12-.13.33-.13.31-.34"/><polygon class="cls-4" points="20.6 21.12 20.63 21.14 21.28 20.35 20.6 21.12"/><path class="cls-4" d="M17.41,21.65c0,.31.44-.45.37-.11.19-.16,0-.28.22-.41-.25.12-.2,0-.59.52"/><path class="cls-4" d="M18,21.13l.14-.08a.37.37,0,0,0-.14.08"/><path class="cls-4" d="M11.17,17.55l.1-.11c.1-.14.08-.17.05-.23Z"/><polygon class="cls-4" points="10.2 16.13 10.21 16.16 10.54 15.67 10.2 16.13"/><path class="cls-4" d="M8.65,15.83c0,.05.17,0,.19.05-.16,0,.27-.63-.19-.05"/></g></g></g></g></svg>