<svg xmlns="http://www.w3.org/2000/svg" viewBox="0 0 47.21 47.65"><defs><style>.cls-1{fill:#dcdee2;}.cls-2{fill:none;stroke:#878787;stroke-miterlimit:10;stroke-width:1.33px;}</style></defs><title>자산 63</title><g id="레이어_2" data-name="레이어 2"><g id="레이어_1-2" data-name="레이어 1"><path class="cls-1" d="M3,25.67C2.1,24.92-2.21,22,1.46,15.25c0,0,2.89-5.79,11-3.09C12.45,12.16,9-.19,24,0a7.74,7.74,0,0,1,7.53,5.21S41.21,0,42.94,11.39c0,0,4.64,1,4.25,6.76a10.86,10.86,0,0,1-5,8.53,7.1,7.1,0,0,1-3.89,1.11c-6.46,0-12.92,0-19.39,0-5.21,0-11.63,1.46-15.92-2.11"/><line class="cls-2" x1="22.92" y1="31.65" x2="18.67" y2="47.48"/><line class="cls-2" x1="15.58" y1="31.07" x2="12.88" y2="39.95"/><line class="cls-2" x1="30.64" y1="31.27" x2="28.71" y2="39.95"/></g></g></svg>