<svg xmlns="http://www.w3.org/2000/svg" viewBox="0 0 48.72 53.27"><defs><style>.cls-1{fill:#fedd81;}.cls-2{fill:none;stroke:#878787;stroke-miterlimit:10;stroke-width:1.33px;}</style></defs><title>자산 66</title><g id="레이어_2" data-name="레이어 2"><g id="레이어_1-2" data-name="레이어 1"><path class="cls-1" d="M3.45,28.92C2.27,30.44,3.87,5.24,25.88,3.77c0,0,21.79-1.67,22.84,24.94,0,0-5.24-11.53-11.32,0,0,0-4.4-11.95-10.69-1.05,0,0-5.86-11.94-11.73,1.26,0,0-3.56-10.27-11.53,0"/><path class="cls-2" d="M1,28.92C-.23,30.44,1.37,5.24,23.37,3.77c0,0,21.8-1.67,22.84,24.94,0,0-5.23-11.53-11.31,0,0,0-4.4-11.95-10.69-1.05,0,0-5.87-11.94-11.73,1.26C12.48,28.92,8.91,18.65,1,28.92Z"/><path class="cls-2" d="M16,48.2c.42.62-.42,4,4.19,4.4a3.53,3.53,0,0,0,4-3.57V27.66"/><line class="cls-2" x1="23.37" y1="3.77" x2="23.37"/><path class="cls-2" d="M31.76,9.64a24,24,0,0,1,7.54,7.54"/></g></g></svg>