<svg xmlns="http://www.w3.org/2000/svg" viewBox="0 0 100.27 28.94"><defs><style>.cls-1{fill:#fedee4;}.cls-2{fill:#fff;}.cls-3{fill:none;stroke:#ff847d;stroke-miterlimit:10;stroke-width:0.78px;}</style></defs><title>자산 45</title><g id="레이어_2" data-name="레이어 2"><g id="레이어_1-2" data-name="레이어 1"><path class="cls-1" d="M95.66,28.94h-91A4.61,4.61,0,0,1,0,24.33V4.61A4.6,4.6,0,0,1,4.61,0H95.66a4.61,4.61,0,0,1,4.61,4.61V24.33a4.62,4.62,0,0,1-4.61,4.61"/><path class="cls-2" d="M92.59,25.65H7.87a4.31,4.31,0,0,1-4.32-4.32V7.57A4.31,4.31,0,0,1,7.87,3.26H92.59A4.31,4.31,0,0,1,96.9,7.57V21.33a4.31,4.31,0,0,1-4.31,4.32"/><rect class="cls-3" x="3.55" y="3.26" width="93.35" height="22.39" rx="4.31"/></g></g></svg>