<svg xmlns="http://www.w3.org/2000/svg" viewBox="0 0 43.47 51.58"><defs><style>.cls-1{fill:#ffb945;}.cls-2{fill:#ff9617;}.cls-3{fill:#fff873;}.cls-4{fill:none;stroke:#824803;stroke-miterlimit:10;stroke-width:0.92px;}.cls-5{fill:#fff9eb;}</style></defs><title>자산 69</title><g id="레이어_2" data-name="레이어 2"><g id="레이어_1-2" data-name="레이어 1"><path class="cls-1" d="M28.88,50.53H12.61a4,4,0,0,1-4-4V15.61H32.85v31a4,4,0,0,1-4,4"/><rect class="cls-2" x="10.9" y="19.13" width="8.4" height="31.19"/><rect class="cls-3" x="13.3" y="26.86" width="2.71" height="18.7"/><rect class="cls-3" x="21.88" y="36.83" width="2.26" height="9.77"/><path class="cls-4" d="M30.82,51.12H10.94A4.14,4.14,0,0,1,6.79,47V14.45H35V47A4.14,4.14,0,0,1,30.82,51.12Z"/><line class="cls-4" x1="35.46" y1="39.4" x2="35.81" y2="39.4"/><path class="cls-4" d="M35.22,42.45h4A3.64,3.64,0,0,0,43,38.94V22.07a3.64,3.64,0,0,0-3.76-3.51H34.62"/><path class="cls-4" d="M34.79,21.42H38a1.71,1.71,0,0,1,1.77,1.65V37.75A1.72,1.72,0,0,1,38,39.4H35.14"/><path class="cls-5" d="M12.94,10.92s-5.6-3.4-9.6,1c0,0-5.59,4.79-1.2,11.19,0,0,3.8,5.4,13,1.4,0,0,3.2-2.4,3.8-5.6,0,0,3-.8,3.79,3.4,0,0-.4,5.8.8,6.4,0,0,1.2,2,2.8-.6l.4-8.8a8.51,8.51,0,0,0,5.2,2,5.82,5.82,0,0,0,6.6-4.2s2.59-7.19-7-8.39"/><path class="cls-4" d="M12.94,10.92s-5.6-3.4-9.6,1c0,0-5.59,4.79-1.2,11.19,0,0,3.8,5.4,13,1.4,0,0,3.2-2.4,3.8-5.6,0,0,3-.8,3.79,3.4,0,0-.4,5.8.8,6.4,0,0,1.2,2,2.8-.6l.4-8.8a8.51,8.51,0,0,0,5.2,2,5.82,5.82,0,0,0,6.6-4.2s2.59-7.19-7-8.39"/><path class="cls-5" d="M31.33,14.11s.1-.31.21-.84A10.81,10.81,0,0,0,21.08.47C16.83.34,11.22,1.74,8.14,8.92"/><path class="cls-4" d="M31.33,14.11s.1-.31.21-.84A10.81,10.81,0,0,0,21.08.47C16.83.34,11.22,1.74,8.14,8.92"/><polyline class="cls-4" points="13.3 26.56 13.3 45.56 16.01 45.56"/><line class="cls-4" x1="22.35" y1="39.23" x2="22.35" y2="46.47"/></g></g></svg>