<svg xmlns="http://www.w3.org/2000/svg" xmlns:xlink="http://www.w3.org/1999/xlink" viewBox="0 0 39.76 34.51"><defs><style>.cls-1{fill:none;}.cls-2{opacity:0.8;}.cls-3{clip-path:url(#clip-path);}.cls-4{fill:#ff6363;}</style><clipPath id="clip-path" transform="translate(0 -7.5)"><rect class="cls-1" width="39.76" height="42.01"/></clipPath></defs><title>자산 57</title><g id="레이어_2" data-name="레이어 2"><g id="레이어_1-2" data-name="레이어 1"><g class="cls-2"><g class="cls-3"><path class="cls-4" d="M15.74,13.24c.11-.05.09-.36.17-.49l-.4-.24c.1.22.33.59.23.73" transform="translate(0 -7.5)"/><path class="cls-4" d="M15.91,12.75l.59.37c-.38-.46-.53-.48-.59-.37" transform="translate(0 -7.5)"/><polygon class="cls-4" points="17.44 7.63 16.99 7.53 17.74 7.76 17.44 7.63"/><path class="cls-4" d="M18.62,16.35c-.35-.06,0,.53-.3.4a3.4,3.4,0,0,0,1.11.61,2.3,2.3,0,0,1-.81-1" transform="translate(0 -7.5)"/><path class="cls-4" d="M20,17.62a3.6,3.6,0,0,0-.59-.26,2.25,2.25,0,0,0,.59.26" transform="translate(0 -7.5)"/><path class="cls-4" d="M17.21,14a.73.73,0,0,0,.12.6l.06-.41L17.21,14" transform="translate(0 -7.5)"/><path class="cls-4" d="M17.39,14.18h0c.18.22.31.37.37.43l-.37-.44" transform="translate(0 -7.5)"/><path class="cls-4" d="M17.17,14l0,.05s0-.06,0-.05" transform="translate(0 -7.5)"/><path class="cls-4" d="M17.25,13.44l-.42-.58c0,.07-.06.25-.26.17Z" transform="translate(0 -7.5)"/><polygon class="cls-4" points="17.56 6.12 17.25 5.94 17.41 6.15 17.56 6.12"/><path class="cls-4" d="M19.4,16.53a2.81,2.81,0,0,1,.83.62,8,8,0,0,0-.77-.95c-.11,0-.36,0-.06.33" transform="translate(0 -7.5)"/><path class="cls-4" d="M18.44,15.38l.06,0c0-.05,0-.08-.06,0" transform="translate(0 -7.5)"/><polygon class="cls-4" points="22.82 12.32 22.82 12.23 22.77 12.26 22.82 12.32"/><path class="cls-4" d="M19.46,16.11a.89.89,0,0,0-.54-.4,4.79,4.79,0,0,1,.54.49c.05,0,.08,0,0-.09" transform="translate(0 -7.5)"/><path class="cls-4" d="M20.85,18.27a4.51,4.51,0,0,0-.24-.5c0,.18.14.52.24.5" transform="translate(0 -7.5)"/><path class="cls-4" d="M18.5,15.55l0,0c0,.12,0,.08,0,0" transform="translate(0 -7.5)"/><path class="cls-4" d="M18.5,15.55a1.81,1.81,0,0,0,.42.16,4.23,4.23,0,0,0-.42-.3.33.33,0,0,1,0,.14" transform="translate(0 -7.5)"/><path class="cls-4" d="M25.07,19.15c-.24.17-1-.19-1.26-.9-.63-.32-1,.68-1,1.49.11-.08.19-.16.81.2-.06-.28-.82-1.36-.22-1.13.76.54.46.6.67,1,0-.53,1.22.44,1.45-.09l-.7-.43c0-.07.35,0,.24-.17" transform="translate(0 -7.5)"/><path class="cls-4" d="M21.91,18.76l-.23-.18a3,3,0,0,1,.41,1c.44.24.59.23.68.19l-1-1.05Z" transform="translate(0 -7.5)"/><path class="cls-4" d="M20.78,17.66c.39-.06,1,.33.92-.21-.6-.59-.6-.24-1.05-.5,1,.93-.4-.16.15.68a4.79,4.79,0,0,1-.57-.48,6.89,6.89,0,0,1,.38.62v0h0c0-.07,0-.1,0,0h0a.4.4,0,0,1,.13,0c.22.33,0,.11-.13,0l0,0h0l1.08.85a7.82,7.82,0,0,0-.9-.92" transform="translate(0 -7.5)"/><path class="cls-4" d="M17.56,12.1a.61.61,0,0,1-.44-.27c-.11-.28.12-.11.19-.19-.19-.09-.62-.35-.34.21l.1,0c.28.48.45,1.28.35,1.23a2.21,2.21,0,0,0,.14-1" transform="translate(0 -7.5)"/><path class="cls-4" d="M19.23,14.86l.89.72L19.93,15l-.11.14c-.39-.52-.44-.28-.59-.25" transform="translate(0 -7.5)"/><polygon class="cls-4" points="22.8 12.52 22.45 12.66 23.26 12.78 22.8 12.52"/><polygon class="cls-4" points="23.89 13.53 23.64 13.71 24.04 13.85 23.89 13.53"/><path class="cls-4" d="M23.18,13.64l.31-.16a1.22,1.22,0,0,0-.31.16" transform="translate(0 -7.5)"/><path class="cls-4" d="M20.81,14.15l0,.16c.09-.11.12-.18,0-.16" transform="translate(0 -7.5)"/><path class="cls-4" d="M24.07,27.07c-.4-.39-.82-.93-.85-.59l.07.35a1.6,1.6,0,0,1,.78.24" transform="translate(0 -7.5)"/><path class="cls-4" d="M31.88,28.14c-.19,0-.27,0-.24.05.41.1,1,.21.24-.05" transform="translate(0 -7.5)"/><path class="cls-4" d="M23,17.21c.19-.1.26-.19.23-.26-.18.1-.28.19-.23.26" transform="translate(0 -7.5)"/><path class="cls-4" d="M32,28.42l.18.06a3.34,3.34,0,0,1-.49-.29c-.29-.07-.5-.14.31.23" transform="translate(0 -7.5)"/><path class="cls-4" d="M10.94,24.25a.42.42,0,0,1,0-.1c-.05,0-.05,0,0,.1" transform="translate(0 -7.5)"/><path class="cls-4" d="M28.12,25.23c-.25-.19-.06,0,0,0" transform="translate(0 -7.5)"/><path class="cls-4" d="M27.86,23.26a.2.2,0,0,0,.2,0,.28.28,0,0,1-.2,0" transform="translate(0 -7.5)"/><path class="cls-4" d="M27.87,24.8a3,3,0,0,0,.23.35,2.35,2.35,0,0,0-.23-.35" transform="translate(0 -7.5)"/><path class="cls-4" d="M27.81,25l-.18-.21c-.07,0-.06.06.18.21" transform="translate(0 -7.5)"/><path class="cls-4" d="M28.45,25.52a4,4,0,0,1-.35-.37c0,.05,0,.09,0,.08l.33.29" transform="translate(0 -7.5)"/><path class="cls-4" d="M18.86,34.07l-.07,0c-.09.32,0,.2.07,0" transform="translate(0 -7.5)"/><path class="cls-4" d="M15.43,28.45h0l0,0Z" transform="translate(0 -7.5)"/><path class="cls-4" d="M14.29,28.42a1,1,0,0,1,1.14,0l-.14-1Z" transform="translate(0 -7.5)"/><path class="cls-4" d="M30.39,12.12a5,5,0,0,0-1.1-.12,9,9,0,0,1,1.24-.48l.78-.2c.36-.1.4-.16-.07-.36a2.25,2.25,0,0,1-1.17.62c-.57.19-1.24.33-1.92.48a15.82,15.82,0,0,0-1.83.45c-.38.16-.48.31-.48.57l-.55-.1c.14,0,.15-.09.3-.1-1.09-.28-.59.86-1.89,1-.46,0-.8-.06-.52-.24l-.94.46c-.29.05-.26-.14,0-.19l-1.49.43v0A8,8,0,0,1,20,15c-.42,0,.16-.15,0-.25l-.77.44c-.41-.17.22-.59.81-.69-1-.79-.64.4-2.46.27l.76-.34c-.66-.42-1.22-.06-2.21-.17.26.13,2,.41,1.18.89a1.57,1.57,0,0,0-1.05.38c-.1-.35-.55-.13-1.14.06L15,15.15c-.61.32-.49.53-.8.85A1.11,1.11,0,0,1,13,15.62c-1.17.28,1,.33-.36.83A5.88,5.88,0,0,0,10,17.66c-.71.08,0-.32-.27-.36l-.45.57c-.14,0-.14-.08-.14-.15-.43.32.13.46-.58.87,0,.3-.37.22-1.18.35a3.32,3.32,0,0,0-2.1.85c-.45.06-.14-.26-.41-.33-.75.56-1,.76-1.25,1a2.31,2.31,0,0,0-.44.81c-.46.15-.94.32-1.42.5.63-.19.87-.11.94.05a.65.65,0,0,1-.06.57c.2-.05.55-.1.77-.13l.56-.1a4.24,4.24,0,0,0-.33.5,2.3,2.3,0,0,1-1-.05.28.28,0,0,0,.1.09,4.58,4.58,0,0,1-.56.11,1.94,1.94,0,0,1-.37,0c-.11,0-.15-.08-.19-.16.24-.07.49-.15.74-.21a1,1,0,0,0-.84-.34c0,.05,0,.14-.09.24a.2.2,0,0,0-.2-.06c-.1,0,0,.1,0,.21l-.83.16.21,0-.33.24c-.11.09-.22.15-.27.3a.91.91,0,0,0,0,.46.48.48,0,0,0,.12.23,12.71,12.71,0,0,0,2.42.43c1,.12,2.16.16,3.22.29-1,.17-1,.43-1.55.76,0-.26-.57-.31-1.17-.43a3.8,3.8,0,0,1-1.53-.5c.31.24-.12.3-.33.26a9.76,9.76,0,0,0,2.44.54c-.6.25.11.32.59.6.43-.67,2.33,0,3.36.06-.06.25-.42.42-1.61.07a1.78,1.78,0,0,0,1.61.22c.5-.12,1-.24,1.35.09-.2,0-.28-.1-.42,0,.55-.09,1.64.35,1.32.5l-.2,0c1.32.41,4.07,1,4.42.42a3.38,3.38,0,0,1-.46.81l2.89-1.5c-.34.48.16,1.94-1,2a2.41,2.41,0,0,0,1.39.31c-.2-.12-.36-.9-.05-.87.68.79.49.45,1.38,1.2-.3-.19.26-.94.77-.79-.11.11-.16.84-.37.88l1.48-.51c-.35.07-.22.68,0,1-.09-.19,1.1.28,1.47.29l-.5-.33c1.42.48,1.71-.8,3.13-.41-.21.13-.68.94,0,1.22.43-.34,2-1.66,3.32-1.68l.18.3c.33,0,.74,0,1-.05a16.89,16.89,0,0,1-3.8,1.71c.5.32.08.32.9.49.23.3-.53.23-.77.19l1.86.6c0-.25.41-.29.79-.31l.29,0h.37c.21,0,.34-.07.32-.18-.23,0-.56-.05-.73,0H26.31c0-.26.4-.53.94-.69a2.9,2.9,0,0,1,.91-.14,3.85,3.85,0,0,1,1.14.17.39.39,0,0,1,.05.57c-.12.2-.34.37-.32.46a4.82,4.82,0,0,1,2,.28l-.75.1a2.66,2.66,0,0,0,1.43.13,2.68,2.68,0,0,1,1.67.42c.44.15,2.21,1.21,1.93.83a17.19,17.19,0,0,1-3.93-3.82l1.41.77c.53.28,1.13.59,1.5.8a3.72,3.72,0,0,1,1.22,1,2.69,2.69,0,0,0,1,1,.48.48,0,0,1-.19-.45c.52.18.64.57,1.2.51-.78-.64,1.32.1-.46-.52.37-.11.84.17,1.44.18-.77-.37-.74-.75-1-1.1.2.12.47.26.74.4l.58.28c.18,0,.36.1.52.12a.37.37,0,0,0,.37-.25.3.3,0,0,0-.1-.36l-.25-.22c-.33-.3-.62-.58-1.08-1,.1,0,0-.27.53,0a7.53,7.53,0,0,1-1-.68c.26-.29.81.7,1.37.62-.59-.24-1.55-1.05-2.37-1.55-.79-.13.9.88,1.62,1.4-.6-.22-1.27-.57-2.45-1.13s-2-1-2.68-1.35c-.91-.54.56-.05.27-.17a4.22,4.22,0,0,0-1.82-.95c-.55-.17-.88-.19-1-.59a.58.58,0,0,1,.44-.4c.21-.06.47-.06.57-.17.83.54.68.92,1.08,1.24-.07-.14-.15-.29-.25-.46a2.53,2.53,0,0,1,1.07.75c.09-.16-.6-.76-1.39-1.46-.4-.36-.82-.73-1.21-1.11a9,9,0,0,1-1-1.06c-.3-.09-.76-.33-.7-.05l.42.31c.13.56-1-.32-.64.23A4.52,4.52,0,0,1,27.1,23l.18-.46c-.08.11.27.65.58.73-.45-.13-.67-1.49-1.41-1.36l.28.71a5.13,5.13,0,0,1-2.16-1.28c0,.61.17.11.25.92.07-.85,1.61,1.56,1.46.46,0,.89.62,1,.88,1.9.08-.13,0-.41.47.14a.76.76,0,0,1,.21,0l0,0,0,0s0,0,0,0a.93.93,0,0,1-.12-.42c.51,0,1.36.78,1.77.91.28.34-.25,0-.18.29l.62.18a.38.38,0,0,0,0,.3l0,.18a.36.36,0,0,1,0,.11c0,.07,0,.12-.09.14s-.07.09-.32-.07l.21.19.11.11c0,.23,0,.34.26.39,0,.07.8.2.32.13.22.09.46.21.73.35l-.15,0a10.91,10.91,0,0,0,1.07.64c.4.24.75.52.05.32.38.2.9.48.81.52l-1-.45c.13.06.13.12,0,.14a.83.83,0,0,1-.4-.12c-.27-.11-.41-.17,0,.09-1.32-.72-1.48-.8-1.5-.77s.08.18-.15.06l.67.55-.11,0c-.16,0-.2.07-.36.16l.35.43c-.06.13-.41,0-.72-.18a3.13,3.13,0,0,0-.86-.41c.05-.12.16-.06.26.05a1.66,1.66,0,0,0-.21-.26c-.09-.06-.06-.06-.3-.12A6.53,6.53,0,0,0,27.49,28a3.83,3.83,0,0,1-2.16-.45,1.15,1.15,0,0,1-.8-.19h.09l-.13,0c-.14-.09-.27-.19-.42-.28a2.34,2.34,0,0,0,.34.27,5.52,5.52,0,0,0-1-.12l-.08-.39H23.2c-.34-.22-.34.09-.2.4a2.1,2.1,0,0,0-.55.09c-.16-.63-1,0-1.3-.75-.32.24-1.95-.24-2.3.34,0-.09-.09-.15.11-.11a2.13,2.13,0,0,0-1.22-.26L17.67,26l-1.06.38c-.49-.41-.69-.62-.05-.83-1.46.2-1.13-.07-2.4.18l.13-.27c-.41-.09-1.15.14-1.34-.16a8,8,0,0,0-2.8-1l-1-.26a5.74,5.74,0,0,1-.58-.18,1.66,1.66,0,0,1-.77-.43c-.41.35-.45.24-.48.11s0-.27-.54-.06a1.67,1.67,0,0,1,.79-.33c-.41,0-.46-.09-.53-.14s-.2-.08-1.13,0c.48-.1.88-.1,1.14-.16-.14,0-.6,0-.32,0a7.92,7.92,0,0,1,.81-.08c-.24,0-.68-.14-1.24-.12l-2.09,0c1.12-.23,1.09-.27.55-.48.58-.05,1.17-.11.92.11.15-.06.64-.22,1-.36s.52-.3.22-.43a.39.39,0,0,0,.41-.2,12.51,12.51,0,0,0,1.25-.5H8.31c-.07-.59.47-.33,1.18-.68v.06c1.79-.2.64-.46,2.44-.58l-.21-.31c-.09-.78,1.6-.07,2.47-.64l-.4-.08c.45-.42,1.77.54,2.32.5.14,0-.15.15-.29.24,1.5.05,0-.5,1.05-.9.26.19-.07.69.63.54.4.11,1.81-1.34,2.9-1.09-.26-.14-.52-.28-.06-.54.73-.26,2.19.25,2.73-.51a.26.26,0,0,1,.17.11c.54-.27,1.81-.66,2.09-1.06,1,1.07,3.1-1.25,2.67,0l1-.25-.16.15A5.32,5.32,0,0,0,30.65,15c0,.08-.3.25-.42.33l.18,0a.28.28,0,0,1,.08.22c0,.17-.16.24-.15.32s.16.13.37.35l-.69.31c.12,0-.35.43-.74.77s-.72.62-.79,1.08a.31.31,0,0,1-.09-.16,1.54,1.54,0,0,1,0,.17l-.2.3a6.8,6.8,0,0,1-.5.59c-.35.38-.75.72-1.11,1.06-.7.68-1.23,1.3-.92,2l-.51,1.18c1.09-1.18.31.55.9.18-.33.54-1.34,1-.91.37l.13,0c-.37-.67-1.44,1.39-1.79,1-2,2.46-4.24,4.57-6.16,6.84l.64.08-.68.78c-.27.13-.57,0-.08-.55-.24.05-.39.33-.46.61a.55.55,0,0,0,0,.31.51.51,0,0,0,.06.18c-.36.26-.37,0-.38-.18s0-.4,0-.34L16.2,33h.08A1.13,1.13,0,0,1,16,34c-.23.11-.18-.31-.25-.26s0-.05-.1.1l-.36.37a2.14,2.14,0,0,0,.12.54c-.24.62-.48.55-.32,1.12-.07-.21-.21-.21-.37-.11a1.18,1.18,0,0,0-.51.65c-.07.16-.14.32-.2.48a2.39,2.39,0,0,1-.12.22s0-.13,0-.19a2.61,2.61,0,0,1,0-.75c-.33.33-.33-.32-.31-1-.08.29-.52,1.22-.52.57v-.1a3,3,0,0,0,.68-1.47,2.24,2.24,0,0,1,.46-1.25c-.48.68-.12-1.17-.8-.47.08-.5.37-.11.61-.43-.38-1.63.28-3.68.22-5.75-.13,0-.34.31-.53-.14l.7-1.08c0-.41-.75-.41-.26-1.14-.12.1-.29.26-.32,0,.81-4-.07-8.37,1.54-12.37-.3.53-.29.15-.26-.27-.09.27-.33,0-.51,0l.67-1.68c-.46-.36.18-1.84-.27-2.08l0,.56c-.47-.79-1.36.87-2.06.69.55.89-1.17,2.07-.39,3.51-.17.28-.2-.28-.38-.13.27.37.29.78.09,1.54l-.07-.09a49.48,49.48,0,0,1-.84,5.47l.37-.16a2.62,2.62,0,0,1-.3.86c.5.63.11-1.46.67-.88-.77.64-.21,3.66-1.05,4.09,0,.81.42-.21.38.59l-.23.2.28.22c-.07.52-.36.77-.54.79a3,3,0,0,0-.05-.51c-.29.68,0,1.94-.07,2.17l.15-.77c.08,1.1,0,2.31,0,3.52,0,.61,0,1.21,0,1.79,0,.29,0,.58.07.86l.06.53.08.58.17-.26a6.13,6.13,0,0,1,.05,2,9.18,9.18,0,0,0,0,2.28l0,0a2.55,2.55,0,0,1,.25,1q0,.15.06.33c-.28-.16-.17,1.42-.49,1.15.37.64.45.76.56.75s.1,0,.18-.06a.54.54,0,0,1,.31-.09l-.1.58c.2,0,.27-.16.4.52-.08-.19-.11.05-.12.26s0,.4-.17.29a.83.83,0,0,0,.07.3.1.1,0,0,0,.1,0,.92.92,0,0,0,.13-.14c.09-.13.2-.32.32-.51a2.73,2.73,0,0,1,.3-.32,1.18,1.18,0,0,1,.29-.24c.17-.1.3-.05.4.27.91-2-1.08.13-.64-.47-.16-.18.76-1.53,1.11-1.81.11-.09.18-.06.26,0a.93.93,0,0,1,.12.18.49.49,0,0,0,.18.08c.27.07.73-.17,1.46-1.22-.14.2-.14.29-.29.49a5.87,5.87,0,0,0,.81-1.12,3.31,3.31,0,0,1,.94-1c.1-.85.88-1,.55-1.56l-1.1,1.56a13.83,13.83,0,0,0,.75-1.61,4.58,4.58,0,0,1,.38-.7,2.32,2.32,0,0,1,.61-.6,2.21,2.21,0,0,1-.19.8c.37-.18.37-.63.75-.81.19.23,0,.57-.35,1a8.16,8.16,0,0,0-.51.67,4.83,4.83,0,0,0-.57,1A3.61,3.61,0,0,0,19,34.84c.14-.26.25-.41.36-.05-.25-1,1-1.06,1.18-2.23l.23.28a2.32,2.32,0,0,1,.33-.74l0,.7c.22-.87,1.27-1,1.6-1.72-1,1.27-.56,0-1.2.37.92-1.85,1.45-.29,2.77-2.15-.16.27-.9.75-.72.28a3.73,3.73,0,0,1,1.11-.72c.9-1.21-.43-.06-.19-.69.66-.12.33-.68.64-1.28l.28.22c1.26-1.18-.3-.82.89-1.84l0,.82.4-.71.22.39a3.34,3.34,0,0,1,1.17-1.64c-.33,0-.45-.5,0-1.1.48-.27.09.45.71-.44,0,.33.09.72-.46.88.06.11,0,.33.09.44.54-.28.91-1.07,1.15-1.38a1.33,1.33,0,0,1-.33.28l.56-1.54c.26-.12.23.1.19.32a8.25,8.25,0,0,1,.42-.94c.16.28.42.44.13,1.05l.32-.7a6.85,6.85,0,0,1,.41-.8c.2-.05,1.09-.89,1-.58a10,10,0,0,0,1.31-2.13,8.18,8.18,0,0,1,1.07-2.13s0-.17.08-.44a1.07,1.07,0,0,0,.18-.4l.1-.33a5.09,5.09,0,0,0,.18-.67,2.34,2.34,0,0,0,0-.64c0-.21-.4-.65-.68-.58a5,5,0,0,1,0-.59c-.4-.12-.4.12-.45.3s-.16.32-.9.27c-.54,0-.51-.14-.39-.29s.47-.37.25-.43c-.56.18-1.31.45-2,.64a6.73,6.73,0,0,1-1,.19,4.93,4.93,0,0,1-1.09,0,6.69,6.69,0,0,1,1.47-.31m-13,3.06c.21-.13.59-.47.81-.31-.15.47-.4.33-.81.31m12.9,11.55h0c0,.18,0,.12,0,0m-.2-.38a.13.13,0,0,0-.13.09c.09-.05.18,0,.24.11.06-.07.06-.16-.11-.2M15.76,34l.08,0c-.14.33-.11.14-.08,0" transform="translate(0 -7.5)"/><path class="cls-4" d="M25.62,23.14l.56.4a1.23,1.23,0,0,1-.36-.51c-.05.07,0,.25-.2.11" transform="translate(0 -7.5)"/><path class="cls-4" d="M23,17.42c-.1,0-.15-.15-.25-.18l-.1.13c.3.29.6.41.35.05" transform="translate(0 -7.5)"/><path class="cls-4" d="M26,21.83c.18-.25-.2-.47-.58-.76l.06.06c-.4.21.06.46.52.7" transform="translate(0 -7.5)"/><path class="cls-4" d="M25.32,21a3,3,0,0,1-.32-.3c-.16.08.11.15.32.3" transform="translate(0 -7.5)"/><path class="cls-4" d="M29.05,25.74c-.12-.21-.37.2-.38,0-.45.12,1.44.65.38,0" transform="translate(0 -7.5)"/><polygon class="cls-4" points="26.41 13.35 26.27 13.73 26.68 13.7 26.41 13.35"/><path class="cls-4" d="M28.94,23.59,28.45,23s-.13,0-.23-.05c.33.33.66.72.72.63" transform="translate(0 -7.5)"/><path class="cls-4" d="M28.22,23a1.88,1.88,0,0,0-.49-.36,2.59,2.59,0,0,0,.49.36" transform="translate(0 -7.5)"/><polygon class="cls-4" points="27.23 13.97 27.34 14.18 27.71 14.57 27.23 13.97"/><path class="cls-4" d="M34.38,27.06c.09.18,0,.19-.12.28l.79,0Z" transform="translate(0 -7.5)"/><path class="cls-4" d="M33.81,31.55l.2.05-1.24-1.09c.36.35.71.7,1,1" transform="translate(0 -7.5)"/><path class="cls-4" d="M22.43,30.68c.9.4.33-.41,1.13,0,.27-.12-.65-.35-.39-.45-.61.05-.89-.13-.74.43" transform="translate(0 -7.5)"/><path class="cls-4" d="M23.17,30.25a1.87,1.87,0,0,0,.32,0,1.38,1.38,0,0,0-.32,0" transform="translate(0 -7.5)"/><path class="cls-4" d="M15.38,14.7l0,.13c.13.1.28.06.57,0Z" transform="translate(0 -7.5)"/><polygon class="cls-4" points="23.86 5.5 23.71 5.52 24.07 5.89 23.86 5.5"/></g></g></g></g></svg>