<svg xmlns="http://www.w3.org/2000/svg" xmlns:xlink="http://www.w3.org/1999/xlink" viewBox="0 0 45.8 60.89"><defs><style>.cls-1{fill:none;}.cls-2{fill:#fcf4d8;}.cls-3{fill:#ee95a4;}.cls-4{fill:#fabf00;}.cls-5{fill:#64a3d9;}.cls-6{opacity:0.79;}.cls-7{clip-path:url(#clip-path);}</style><clipPath id="clip-path"><rect class="cls-1" x="10.38" y="14.26" width="4.33" height="4.32"/></clipPath></defs><title>자산 74</title><g id="레이어_2" data-name="레이어 2"><g id="레이어_1-2" data-name="레이어 1"><path class="cls-2" d="M7,21.35,0,60.89,35.88,40S26.25,24,7,21.35"/><path class="cls-3" d="M6.1,27.63c.8.2,8.82-2.41,17.44,0l5.82,4.61s-21-2-24.46.8Z"/><path class="cls-3" d="M3.49,40.86s7.84-4.41,32.39-.9L27,44.67s-13.63-1.6-24.46,1.8Z"/><path class="cls-3" d="M1.09,54.09s6.61-2.2,12.83-1.2L5.5,57.7l-5.21.6Z"/><path class="cls-3" d="M18,18.79a2.49,2.49,0,0,1,.89-3.24c1.23-.84,2.63-1.28,3.56-2.54,2-2.76.65-6.22-.67-8.94-.61-1.27-2.5-.16-1.89,1.11a10.26,10.26,0,0,1,1.4,4.52,3.45,3.45,0,0,1-2.06,3.14,6.68,6.68,0,0,0-3.2,2.7,4.79,4.79,0,0,0,.08,4.36c.65,1.25,2.55.15,1.89-1.11"/><path class="cls-3" d="M32.94,28.9c1.89-2.71,5.27-.18,7.76-.23,3.14-.08,4.41-3,5.06-5.63a1.09,1.09,0,0,0-2.11-.58,7.77,7.77,0,0,1-1.33,3.22c-.87,1-2.09.85-3.26.52a11.07,11.07,0,0,0-4.25-.73A5.33,5.33,0,0,0,31,27.79a1.1,1.1,0,0,0,.39,1.5,1.13,1.13,0,0,0,1.51-.39"/><path class="cls-3" d="M30.08,16.36a12,12,0,0,0-1.35-3.62l-.66,1.61,3.34-.69c.86-.17,2-.21,2.59-.91s.2-1.74-.24-2.53l-1.61-3-.66,1.61,3.2-.8a7.13,7.13,0,0,0,2.89-.93c.78-.65.57-1.78.54-2.68,0-1.14,0-2.27-.08-3.41a1.1,1.1,0,0,0-2.2,0c0,.88,0,1.75.07,2.63l0,1.24a1.82,1.82,0,0,0,0,.62q0,.3.09,0c.17-.18.11-.2-.2,0a15.74,15.74,0,0,0-2.32.58l-2.62.66a1.11,1.11,0,0,0-.66,1.61l1.18,2.15A5.3,5.3,0,0,0,32,11.6c.17.49.34.36.51-.41a1.94,1.94,0,0,1-.33.07c-1.57.34-3.14.65-4.71,1a1.12,1.12,0,0,0-.66,1.62A9.7,9.7,0,0,1,28,17c.27,1.38,2.39.8,2.12-.59"/><rect class="cls-4" x="25.68" y="21.9" width="2.64" height="2.64"/><rect class="cls-4" x="12.17" y="8.55" width="2.64" height="2.64" transform="translate(-3.03 12.43) rotate(-45)"/><rect class="cls-4" x="40.89" y="11.39" width="2.64" height="2.64" transform="translate(-1.84 11.03) rotate(-14.58)"/><path class="cls-5" d="M29.78,5.66a2.18,2.18,0,1,1-.34-3,2.17,2.17,0,0,1,.34,3"/><path class="cls-5" d="M39.28,35A2.18,2.18,0,1,1,39,32a2.17,2.17,0,0,1,.33,3"/><path class="cls-5" d="M35.52,22.27a2.18,2.18,0,1,1-.33-3,2.16,2.16,0,0,1,.33,3"/><g class="cls-6"><g class="cls-7"><path class="cls-5" d="M14.23,17.8a2.19,2.19,0,1,1-.33-3,2.15,2.15,0,0,1,.33,3"/></g></g></g></g></svg>