<svg xmlns="http://www.w3.org/2000/svg" xmlns:xlink="http://www.w3.org/1999/xlink" viewBox="0 0 20.78 30.48"><defs><style>.cls-1{fill:none;}.cls-2{opacity:0.8;}.cls-3{clip-path:url(#clip-path);}.cls-4{fill:#ff6363;}</style><clipPath id="clip-path" transform="translate(0 -3.85)"><rect class="cls-1" width="22.98" height="34.33"/></clipPath></defs><title>자산 58</title><g id="레이어_2" data-name="레이어 2"><g id="레이어_1-2" data-name="레이어 1"><g class="cls-2"><g class="cls-3"><polygon class="cls-4" points="19.36 0.25 19.09 0 19.48 0.4 19.36 0.25"/><path class="cls-4" d="M19.21,4.5c-.22-.2-.47-.15-.6-.3,0,.13.17.33.33.51-.07-.14,0-.21.27-.21" transform="translate(0 -3.85)"/><path class="cls-4" d="M19.15,5a1.47,1.47,0,0,0-.22-.29,1.09,1.09,0,0,0,.22.29" transform="translate(0 -3.85)"/><path class="cls-4" d="M19.21,5.32h.27c-.14,0-.36-.06-.27,0" transform="translate(0 -3.85)"/><path class="cls-4" d="M19.56,5.82V5.73a1.37,1.37,0,0,1-.59,0,1,1,0,0,0,.35.35l.21-.28Z" transform="translate(0 -3.85)"/><polygon class="cls-4" points="19.09 2.14 18.7 1.89 19.19 2.34 19.09 2.14"/><polygon class="cls-4" points="18.96 2.49 18.62 2.29 18.78 2.49 18.96 2.49"/><path class="cls-4" d="M12.37,29l0,.27a1.37,1.37,0,0,0,0-.27" transform="translate(0 -3.85)"/><path class="cls-4" d="M12.84,28.18l-.08-.25c0,.16.06.28.08.25" transform="translate(0 -3.85)"/><path class="cls-4" d="M14.74,14.31c-.39-.07-1-.22-.56,0l.41.17c0-.11,0-.15.15-.15" transform="translate(0 -3.85)"/><path class="cls-4" d="M14.1,21l.13,0-.33-.26.2.23" transform="translate(0 -3.85)"/><path class="cls-4" d="M15.64,21.9h-.32a1.16,1.16,0,0,0,.32,0" transform="translate(0 -3.85)"/><path class="cls-4" d="M9.77,32.62l-.1.64c.15.23.08-.27.1-.64" transform="translate(0 -3.85)"/><path class="cls-4" d="M17.33,9.73a.5.5,0,0,0-.36.11c.28,0,.66.09.36-.11" transform="translate(0 -3.85)"/><path class="cls-4" d="M10.53,22.69c0,.12.06.25.1.37a1.86,1.86,0,0,0-.1-.37" transform="translate(0 -3.85)"/><path class="cls-4" d="M16.83,10.1H17c0-.1-.05-.19,0-.26-.2,0-.36,0-.14.26" transform="translate(0 -3.85)"/><path class="cls-4" d="M18.1,7.56c0-.09,0,0,0,0" transform="translate(0 -3.85)"/><path class="cls-4" d="M18.84,12.06h0c.08,0,.07,0,0,0" transform="translate(0 -3.85)"/><path class="cls-4" d="M18.33,7.55a.39.39,0,0,0-.16,0,.56.56,0,0,0,.16,0" transform="translate(0 -3.85)"/><path class="cls-4" d="M18.14,7.46l.07,0c-.06,0-.11,0-.07,0" transform="translate(0 -3.85)"/><path class="cls-4" d="M18.07,7.66a.15.15,0,0,1,.1-.09H18.1s0,.05,0,.1" transform="translate(0 -3.85)"/><polygon class="cls-4" points="17.75 14.37 17.73 14.35 17.71 14.36 17.75 14.37"/><path class="cls-4" d="M17.9,18.62c-.42-.36-.33-.39-.19-.41l-1.14-.51Z" transform="translate(0 -3.85)"/><path class="cls-4" d="M11.3,31.26c.08.13.16.24.25.36,0,1.42-.26,1.37,0,2a3.14,3.14,0,0,1,.16-1.9,2.39,2.39,0,0,0,.1-1.75l.19.24s0,.16,0,.19c.43.58-.2-1.71.1-1.85.12,0,.26.15.27.48l0-.8c.07-.06.16.26.09.33l.24-.67,0,.06c-.06-.34-.14-.89-.18-1.13.17.11.05.23.15.4l0-.65a1.09,1.09,0,0,1,.17,1.05c.42.65.42.47.39.19s-.08-.66.32-.56l-.06.48c.54.62.52.07,1,.16-.23-.12-1.12-.49-1.13-1.18.11,0,.21-.07.13-.5.3.46.32.17.42-.07l.41.58A2.6,2.6,0,0,0,14,25.65c.18-.2.57.13.91.38.32-.38-.74-.31-.55-.91.36-.17.31-.62.2-1.23.31-.1.3.27.5.29-.1-.17-.21-.34-.31-.49s.16,0,.22.1c-.08-.27-.54-.35-.55-.68-.59-.4,1.1.12.52-.49.18,0,.33.22.55.32a3.55,3.55,0,0,0-.68-1h.48A2.21,2.21,0,0,1,14.1,21l-.54-.12-.16-.43a1.2,1.2,0,0,1,.5.32,1.47,1.47,0,0,0-.1-.13,1.67,1.67,0,0,1,.83.48l-.4-.09a5.35,5.35,0,0,0,1,.69.33.33,0,0,1-.1-.18.78.78,0,0,0,.22.15c.06,0-.05-.07-.17-.2l.66.28-.24-.15.59-.15c-.49-.6-1.3-1.32-1.34-1.87a6,6,0,0,0,1.28.72c-.64-.19.08.45-.16.6.12-.08.37.09.45.17l-.33-.67c.45.25.38.1.62.1-.92-.4-.44-.59-.62-.89.3.15.58.35.41.5.77.15-.9-.83-.22-.73,0,.05-.08.05.06.15-.2-.25.15-.4.37-.2l0,.05A.84.84,0,0,0,16.46,18c.1.05.88.52,1,.62l-2.23-1.89c.61.39,2.25,1,2.47,1.48.13,0,.29-.06.15-.33a3.21,3.21,0,0,1-1-.48,5.47,5.47,0,0,0,1.18.18c-.18,0-1.14-.63-1.05-.73.15.1,1,.53,1.09.63l-.84-.83a3.52,3.52,0,0,0,1.15.55c-.21-.07.15-.24.1-.37h-.3c.33-.25-1.22-1.07-1-1.37.19.15,1.21.77,1.42.67A14.07,14.07,0,0,1,16.13,14l.32.1-.21-.4c.68.54,2.08,1.8,2.6,2.34.29,0,.36.15.43-.05.31.08.36.33.34.39L20,16c-.6-.3-.42-.65-.92-.89l.36.79c-.6-.3-1.53-1.17-1.26-1.42a8.56,8.56,0,0,1,1.22.73c-.18-.15-.24-.5-.08-.45l.25.3c.32-.05-.63-.7,0-.6.08-.05.88.2.53,0a21.75,21.75,0,0,1-3.31-1.7,6.17,6.17,0,0,1,1.23.08c.59.17,1.17.85,1.67,1a1.59,1.59,0,0,1-.37-.32c.18,0,.48.3.5.1-.59-.35.22-.3-.47-.35-.09-.25.21-.1.29-.3a3.4,3.4,0,0,1-1.32-1.12,2.25,2.25,0,0,0,.46.19c.23-.29.59-.31.76-.61.16.05.42,0,.64.2-.08-.1-.26-.25-.23-.35.62.1,0,.25.67.45-.34-.2-.35-.5-.5-.75-.56-.25-.27.25-.12.5A3.52,3.52,0,0,1,18.48,10c-.05-.34.54.15.46.05.38-.39-1.09-1.09-.34-1.19a5.32,5.32,0,0,1,1.31.65c.07.3-.47.15-.53.29l.32,0c.12.14.17.34,0,.34.5.1.51-.74,1.09-.89-.12-.15-.23-.35-.44-.4v.15c-.44-.1-.41-.5-.67-.45-.18-.3-.51-.7-.18-.8l.56.25c-.16-.08-.4,0-.26.12-.2-.22.9.06.25-.42l-.46-.05c-.18-.3-.66-.79-.38-.89-.58-.2,0,.07-.66-.13.84.3-.3.47.62.72-.8-.25-.44.08-1.15-.07.18.09.37.12.2.23l.14.12h0s0,0,0,0a1,1,0,0,1,.32.06c.36.3.21.55.38.75-.14.05-.18-.15-.4-.2l.25.3c-.41-.2-.8-.1-.91-.45l-.13.19c-.28,0-.46.12-.34.31-.14.05.3.48,0,.23l.07.44-.1,0c-.21.29.31,1-.59,1,0,.16.1.34-.1.45l-.36-.15c0,.2-.56.22-.24.47-1-.34-.55.55-.84.7l.44.25c-.11.15-.07.38,0,.68l.4.19c.23.35-.52.3-.63.6-.14-.1-.06-.15.05-.15-1.07-.15.28,1-.53,1,.1.15,0,.18-.1.18s0,0,0,0l0,0a1.13,1.13,0,0,0-.26,0,.87.87,0,0,0,.26,0,.47.47,0,0,0,0,.32l-.44-.19s0,0,0,0c-.21,0,.16.18.5.31a1.36,1.36,0,0,0,.2.25c-.72-.3.11.35-.67.05.32.25,0,.57.76,1-.1-.05-.16-.05-.14-.1-.14,0-.27.1-.11.3l-.56-.25.61.6a1.35,1.35,0,0,1-1-.45c.48.65.11.38.6,1l-.34-.2c0,.1.35.5,0,.4-.77-.15-.64,1-1.54,1.17,1.08.45-.59,0,.19.45-.26-.1-.43-.1-.6-.3.1.4-.6.2,0,.75-.26-.1-.33-.25-.48-.3,0,.05.16.2,0,.15s-.18-.15-.26-.25c-.11.3.62.73,1.31,1.13-.4,0-.4.06,0,.4-.26-.07-.54-.12-.53-.33-.08.07-.65.41-.1.72-.15,0-.11.11-.06.17-.15.2-.21.19-.27.43h.12c.64.44.05.29.06.45l-.06,0c-.62,0,.14.29-.51.17l.38.29c.41.34.24.33,0,.26s-.5-.22-.4,0l.23.15c.18.4-1.12-.89-1.21-1a1.13,1.13,0,0,1-.12-.21c-.46-.44.41.56.44.81a10.24,10.24,0,0,0-.6-.83c-.09-.12.06.17.16.46s.16.57,0,.25a3.62,3.62,0,0,1,.38.83c0,.24-.6-1-.27.15a2.77,2.77,0,0,1-.1-.26c.06.35,0,.7.16,1.41-.32-1.16-.3-.78-.29-.33s0,1-.2-.3l-.09.35,0-.28a4.56,4.56,0,0,0,0,1.4,4.3,4.3,0,0,1-.05-.61c0-.11-.08-.18-.1-.17-.05-.14-.05.22-.14,1l0-.93c0,.24-.07-.19-.11-.55s-.09-.64-.19-.26c0-.09,0-.23,0-.34-.1.37-.13-.3-.13-.65s0-.44-.34.71a4.28,4.28,0,0,1-.26.42c.11.42-.31,1-.34,1.45-.13,0,0-1,.13-1l0,.14c.38-1.13-.08-.72.21-1.45-.31-.37-.22-1.19-.35-1.45L8,22.19,7.89,22c.11-.14.44-.38.46-.29.31-.28-.37.08-.51.15.06-.44.78-.36.73-.47s-.07-.05-.11-.07l-.05.07c-.32.07-.59.23-.68,0s.33-.31.33-.37,0-.06,0-.09l-.13-.3-.41.42c-.32,0-.15-.27-.61.22.72-.74-.37-1.22-.18-1.5-.47.06-.57-.11-.66-.35-.07.12-.59.51-.64.29,1.16-.68.26-.65,1-1.32-.44.48-.46-.42-1.09.28,0-.21.42-.29.6-.57-.66-.07-.23-1-.67-1.31a1.59,1.59,0,0,1-.61.36l.58-.72c-.13,0-.89.49-.49,0-.11.1-.27.26-.36.23.15-1.33-1.74-1.36-1-3.12-.2.31-.28.25-.35.16,0,.11-.37.24-.56.38l.31-.73c-.59.3-.29-.36-.85-.05l.18.05C1.35,13.66.83,14.53,0,15c.82-.3-.75,1.15.45.76-.12.17-.29.12-.45.27.39-.15.51-.11.47.15l-.1,0c.38.4.17.82.28,1.47l.37-.3c0,.14-.09.25-.15.36.68-.27-.17-.32.57-.65-.71.68.49.78-.36,1.48.11.17.43-.35.53-.18l-.22.21.35-.17c0,.14-.25.4-.46.54,0,0-.11,0-.15-.05-.19.34.37.34.31.45l0-.26c.53.3.58,1.07,1.37,1.18L3,20.17c.56.11,0,.4.37.67H3.36c.24-.05.4,0,.44.11-.28.05-.31.45-.63.49.61.12.41,0,1.26-.23l-.27.26c.33-.1.49-.19.69-.06-.37,0-.39.43-.86.49-.42.83,1.06.12.19.95,1-.39.26-.65.51-.67.22-.27.73-.27.73-.1s-1,.94-.74,1.24c0,0-.08,0-.1,0-.14.26.45,0,.19.41.56-.27.1.22.78-.18a2.31,2.31,0,0,0-.35-.21c.27,0,1.15-.31,1,.28a1.17,1.17,0,0,1-.51.11c-.11.25.25.1.14.36-.62.51-.48-.41-1.1-.25-.05.07,0,.1,0,.12a.72.72,0,0,0,.2.09c.12,0,.17.1-.22.29.51-.22.55-.1.59.08s.07.41.47.26L5.43,25c.09,0,.32-.06.37,0l-.55.29c.54-.13,0,.91.43,1-.39-.57.28-.61.36-1.12.81.06-.54,1.43.15,2.06-.11,0-.11-.69.13-.73a3.13,3.13,0,0,1,0,1c.4.43.2-.59.49-.67-.17.78.28,0,.49,0l-.22.54c.24.91.53-1,.67-.13-.12.21-.26.41-.39.61l.23.05-.24.62c.35-.2.36,0,.5.5.07-.52.31-1.13.45-.94,0,.55-.19.54,0,.78-.12.36-.29.79-.27,0-.05.2-.14.34-.2.53,0,.65.31.6.4.73a1.1,1.1,0,0,1-.07-.31,3.17,3.17,0,0,0,.49-.48,1.2,1.2,0,0,1-.12.67c.08,0,.17-.24.27-.16-.09.57-.15,1.22-.35,1.26a2.72,2.72,0,0,0,.43-.15A9,9,0,0,1,9,32.11c.2.72.55-.54.79.36a.31.31,0,0,1,.09-.23c.17.39.36,1.18.55,1.31a4.92,4.92,0,0,0,.15-.77l.23,1c.17-.65-.3-1.31,0-2.36.17-.78.18.93.3,1.14.06-.87.06-2.4.4-1.81,0,.34-.11.26-.16.46m2.1-4.57c0,.18.11.67-.08.43-.27-.68-.09-.46.08-.43M15.12,21c.12.11,0,.13-.17.11,0-.06,0-.11.17-.11M18,8.49l0,0c-.23,0-.14,0,0,0m.31-.13a.62.62,0,0,0-.17-.11c.1.08.08.13,0,.18.12,0,.21.05.15-.07" transform="translate(0 -3.85)"/><path class="cls-4" d="M15.46,21.79l-.24-.1a.38.38,0,0,0,.24.1" transform="translate(0 -3.85)"/><path class="cls-4" d="M9.79,32.5v.12Z" transform="translate(0 -3.85)"/><path class="cls-4" d="M18.29,6.74l0,.21c0-.08.12-.06.21-.06-.1,0-.26-.1-.24-.15" transform="translate(0 -3.85)"/><path class="cls-4" d="M18.27,7.94c.12,0-.44-.28-.28-.23-.43-.3.37.63.28.23" transform="translate(0 -3.85)"/><path class="cls-4" d="M19.19,10.3l0,.25c.15.1.26.1.24,0s-.1-.2-.26-.25" transform="translate(0 -3.85)"/><polygon class="cls-4" points="18.37 9.51 18.39 9.46 17.49 8.99 18.37 9.51"/><path class="cls-4" d="M19.22,16.93c.33-.1-.52-.35-.15-.4-.18-.16-.3,0-.46-.11.15.25,0,.25.61.51" transform="translate(0 -3.85)"/><path class="cls-4" d="M18.61,16.42s-.06-.08-.1-.14a.64.64,0,0,0,.1.14" transform="translate(0 -3.85)"/><path class="cls-4" d="M14.57,27.28l-.09-.16c-.13-.12-.17-.07-.25,0Z" transform="translate(0 -3.85)"/><polygon class="cls-4" points="12.46 26.32 12.5 26.28 12.21 25.57 12.46 26.32"/><path class="cls-4" d="M11.08,34.33c.07-.08.13-.46.2-.55-.13.47-.34-.74-.2.55" transform="translate(0 -3.85)"/></g></g></g></g></svg>