<svg xmlns="http://www.w3.org/2000/svg" xmlns:xlink="http://www.w3.org/1999/xlink" viewBox="0 0 27.44 25.37"><defs><style>.cls-1{fill:none;}.cls-2{opacity:0.8;}.cls-3{clip-path:url(#clip-path);}.cls-4{fill:#ff6363;}</style><clipPath id="clip-path" transform="translate(0 0)"><rect class="cls-1" width="27.44" height="25.37"/></clipPath></defs><title>자산 60</title><g id="레이어_2" data-name="레이어 2"><g id="레이어_1-2" data-name="레이어 1"><g class="cls-2"><g class="cls-3"><path class="cls-4" d="M15.57,5.49c-.08,0,.06.38.07.45.07-.1-.1-.55-.07-.45" transform="translate(0 0)"/><polygon class="cls-4" points="16.58 4.41 16.57 4.58 16.75 4.16 16.58 4.41"/><path class="cls-4" d="M17.78,4.5c0-.72-.46.07-.64-.21l0-.17L17,4.68c.24,0,.64-.4.79-.18" transform="translate(0 0)"/><path class="cls-4" d="M18,6.14c.05-.27.17-.2-.09-.11v.08a.13.13,0,0,1,.09,0" transform="translate(0 0)"/><path class="cls-4" d="M17.89,6.11c-.1,0,0,.24,0,0" transform="translate(0 0)"/><path class="cls-4" d="M18.39,6.1l-.21.18c0,.17.06.24,0,.34.17-.08.21-.24.23-.52" transform="translate(0 0)"/><path class="cls-4" d="M18.7,5.66l-.11.07c0,.07,0,.1.11-.07" transform="translate(0 0)"/><path class="cls-4" d="M18.36,5.88l.23-.15c0-.11.1-.33-.1,0,.09-.19,0,0-.13.1" transform="translate(0 0)"/><path class="cls-4" d="M18.32,5.74c0-.18-.11-.29.11-.49-.32,0-.4.51-.11.49" transform="translate(0 0)"/><path class="cls-4" d="M18,3.79a1.6,1.6,0,0,0-.1-.23l-.16.22c.08-.12.23.22.26,0" transform="translate(0 0)"/><path class="cls-4" d="M19,6.79c.08-.13.15-.38.23-.55l-.18.1a.68.68,0,0,1,0,.45" transform="translate(0 0)"/><path class="cls-4" d="M19.24,6.24l.28-.15c-.13-.1-.21,0-.28.15" transform="translate(0 0)"/><path class="cls-4" d="M19,4.94c-.16.13-.32.26-.47.4L19.08,5Z" transform="translate(0 0)"/><polygon class="cls-4" points="19.49 7.11 19.22 7.35 19.65 7 19.49 7.11"/><path class="cls-4" d="M19.85,7.28c-.23.2-.23.44-.4.54A1.34,1.34,0,0,0,20,7.6c-.15,0-.19-.06-.14-.32" transform="translate(0 0)"/><path class="cls-4" d="M20.31,7.44a2.14,2.14,0,0,0-.32.15,1.2,1.2,0,0,0,.32-.15" transform="translate(0 0)"/><path class="cls-4" d="M19.73,6.3a1.09,1.09,0,0,0-.13.44l.18-.4Z" transform="translate(0 0)"/><path class="cls-4" d="M19.79,6.33h0l.11.11-.1-.12" transform="translate(0 0)"/><path class="cls-4" d="M19.72,6.28v0s0-.06,0,0" transform="translate(0 0)"/><path class="cls-4" d="M19.31,5.48c.2-.16.53-.27.49-.71-.2.22-.18.47-.49.71" transform="translate(0 0)"/><path class="cls-4" d="M19.93,5.79l-.13-.18a.88.88,0,0,1-.21.34Z" transform="translate(0 0)"/><path class="cls-4" d="M20.08,5.72l-.15.07,0,.06Z" transform="translate(0 0)"/><path class="cls-4" d="M20.34,6.93a.33.33,0,0,1,.35,0,.58.58,0,0,0-.17-.31c-.09.09-.27.25-.18.31" transform="translate(0 0)"/><path class="cls-4" d="M20.1,6.61h0s0,0,0,0" transform="translate(0 0)"/><path class="cls-4" d="M21.39,7.63l.05-.06-.06,0Z" transform="translate(0 0)"/><path class="cls-4" d="M20.56,6.54c0-.12-.12-.06-.24,0a.27.27,0,0,1,.2.06c.05,0,.07-.08,0-.08" transform="translate(0 0)"/><path class="cls-4" d="M20.64,7.46a1.22,1.22,0,0,0,.06-.26c-.06.13-.15.33-.06.26" transform="translate(0 0)"/><path class="cls-4" d="M20.08,6.71h0c0,.08,0,0,0,0" transform="translate(0 0)"/><path class="cls-4" d="M20.08,6.71a2.29,2.29,0,0,0,.24-.15.46.46,0,0,0-.19,0l-.05.11" transform="translate(0 0)"/><path class="cls-4" d="M23.71,6.11c-.32.22-.78.27-.62-.19-.38,0-1.21,1-1.65,1.65A.77.77,0,0,1,22,7.34c.12-.18.07-.67.45-.78.36.08.06.27,0,.5.3-.42.78-.16,1.31-.65l-.36-.07c.08-.07.28-.1.31-.23" transform="translate(0 0)"/><path class="cls-4" d="M21.22,7.27l-.08,0a1.31,1.31,0,0,1-.21.57,1.05,1.05,0,0,0,.45-.2l-.22-.32Z" transform="translate(0 0)"/><path class="cls-4" d="M20.88,7c.34-.28.62-.28.84-.7-.21-.15-.38.15-.61.19.37.18-.24.11-.2.47a.34.34,0,0,1-.22-.05,1.22,1.22,0,0,1,0,.27v0h0s0-.08,0,0h0A.6.6,0,0,1,20.88,7c0,.13-.06.09-.12.11l-.05,0h0a3.21,3.21,0,0,1,.43.07c0-.1-.09-.16-.26-.23" transform="translate(0 0)"/><path class="cls-4" d="M20.44,4.06a.3.3,0,0,1,0,.1c.06,0,.08-.06,0-.1" transform="translate(0 0)"/><path class="cls-4" d="M20.48,4.38c-.06,0-.17.17-.24.09s.1-.19.16-.31c-.11.07-.34.16-.26.44l.05,0a1.36,1.36,0,0,1-.06.81,4.23,4.23,0,0,0,.35-1" transform="translate(0 0)"/><path class="cls-4" d="M20.87,5.63l.41,0c0-.14.06-.27.08-.4l-.13.18c-.11-.19-.24.06-.36.18" transform="translate(0 0)"/><polygon class="cls-4" points="21.25 7.8 20.89 8.07 21.49 7.78 21.25 7.8"/><polygon class="cls-4" points="21.55 8.06 21.23 8.29 21.48 8.23 21.55 8.06"/><path class="cls-4" d="M7.45,22.89l-.18,0a.33.33,0,0,0,.18,0" transform="translate(0 0)"/><path class="cls-4" d="M8.33,23.38l.1-.16c-.08.07-.14.13-.1.16" transform="translate(0 0)"/><path class="cls-4" d="M21.52,16.46c-.36-.12-.88-.41-.54-.13l.35.26c0-.11.08-.14.19-.13" transform="translate(0 0)"/><path class="cls-4" d="M16.1,22.31a.75.75,0,0,0,.07.12c0-.15,0-.3,0-.43,0,.1-.07.2-.11.31" transform="translate(0 0)"/><path class="cls-4" d="M16.25,24.11a3.36,3.36,0,0,1-.29-.24.89.89,0,0,0,.29.24" transform="translate(0 0)"/><path class="cls-4" d="M3,19.64l-.45.15c.17.2.27,0,.45-.15" transform="translate(0 0)"/><path class="cls-4" d="M23.25,11.53c-.17.12-.23.2-.25.28.24-.14.61-.29.25-.28" transform="translate(0 0)"/><path class="cls-4" d="M10,19a.41.41,0,0,0-.2.19A.34.34,0,0,0,10,19" transform="translate(0 0)"/><path class="cls-4" d="M23,12.09l.1-.06C23,12,23,11.9,23,11.81c-.18.1-.29.19,0,.28" transform="translate(0 0)"/><path class="cls-4" d="M5.82,1.26l.07,0c0-.05,0,0-.07,0" transform="translate(0 0)"/><path class="cls-4" d="M11.81,3.68a.26.26,0,0,1-.15,0s.07,0,.15,0" transform="translate(0 0)"/><path class="cls-4" d="M22.23,9.44c-.06-.06-.05,0,0,0" transform="translate(0 0)"/><path class="cls-4" d="M23.52,8.25a.59.59,0,0,0,.2-.07l-.2.07" transform="translate(0 0)"/><path class="cls-4" d="M25.67,13.11h0c.09,0,.07,0,0,0" transform="translate(0 0)"/><path class="cls-4" d="M22.35,9.25a1,1,0,0,0-.07.15.35.35,0,0,0,.07-.15" transform="translate(0 0)"/><path class="cls-4" d="M22.17,9.36a.17.17,0,0,1,0-.08c-.07,0-.11.05,0,.08" transform="translate(0 0)"/><path class="cls-4" d="M22.29,9.53a.18.18,0,0,1,0-.13l-.05,0,.06.09" transform="translate(0 0)"/><path class="cls-4" d="M1.45,10.61l.05,0c-.18-.14-.15-.08-.05,0" transform="translate(0 0)"/><path class="cls-4" d="M22.57,21.61v0h0Z" transform="translate(0 0)"/><path class="cls-4" d="M22.38,22.14c-.14-.56,0-.56.16-.56l-.85-.93c.24.49.47,1,.69,1.49" transform="translate(0 0)"/><path class="cls-4" d="M5.4,21.63c0,.17,0,.34,0,.51-.71.25-.81-.14-.91.51.87-1,1.19.72,2-.37l0,.36s-.1,0-.14,0c0,.78.8-.65,1.14-.22.1.18.12.42-.07.5L8,22.8c.09.07-.05.27-.14.19l.62.19,0,0a5.93,5.93,0,0,1,.64-.45c.06.23-.13.1-.16.27l.44-.18c0,.38-.4.59-.61.45-.24,1.37.4-.21.77.8l-.38,0c-.07.79.28.66.53,1.23,0-.26-.36-1.41.13-1.59.06.14.19.22.47,0-.14.46.09.41.35.45l-.2.61c.33-.09.39-.41.62-.65.29.13.25.63.23,1.05.49.21-.18-.85.44-.84.35.33.71.11,1.23-.22.26.24-.09.38,0,.57l.31-.48c.06,0,0,.17,0,.25.22-.18.07-.62.39-.78.1-.71.65,1,1,.23.11.18,0,.39,0,.64a2.76,2.76,0,0,0,.84-1.15l.43.38c-.34-.45-.05-1,.13-1.56-.12-.21-.22-.4-.28-.49l.35-.41a1.07,1.07,0,0,1,.05.59,1.09,1.09,0,0,1,.05-.17,1.2,1.2,0,0,1,.13,1l-.22-.36a3.79,3.79,0,0,0,0,1.21.39.39,0,0,1,.13-.2.6.6,0,0,0,0,.27c0,.06.06-.08.11-.26l.23.68,0-.28.74.31c.31-.84.39-1.92.9-2.42a4.55,4.55,0,0,0,.45,1.4c-.39-.54-.44.44-.86.42.21,0,.25.31.23.42a8.93,8.93,0,0,0,.48-.77c.15.49.26.31.5.44-.46-.89.25-.8.38-1.18.15.3.22.64-.13.69.65.56,0-1.26.56-.83-.07.05-.13,0-.09.19a.3.3,0,0,1,.59,0l-.07,0c.56-.1,1.46-.83,1.05-1.57A11.5,11.5,0,0,1,21.91,22,22.17,22.17,0,0,0,21,19.16c.37.63,1.69,1.82,1.57,2.42.17,0,.38,0,.45-.37-.14,0-.83-.7-.78-.82.76.43.44.2,1.2.46-.2,0-.84-1-.67-1.1a10.88,10.88,0,0,1,.79,1c-.11-.4-.24-.78-.38-1.17.05.23.65.71.95.85-.19-.12.35-.33.37-.52h-.35c.54-.34-.76-1.47-.4-1.85.14.19,1,1,1.31.88a24.31,24.31,0,0,1-2-2.67l.32.1-.16-.45a10.49,10.49,0,0,1,2.19,2.86c.35,0,.35.18.54-.13.33.07.27.43.21.53a7.65,7.65,0,0,0,.65-.62c-.58-.33-.23-.91-.74-1.15.05.36.1.73.13,1.12-.57-.36-1.34-1.45-1-1.81.29,0,1,.65,1.2.76-.16-.19-.15-.7,0-.67l.22.38c.37-.2-.58-.85.16-.94.09-.11.95-.08.59-.24a14,14,0,0,1-3.52-1.2,10.15,10.15,0,0,1,1.27-.27c.64,0,1.28.69,1.82.68a1.15,1.15,0,0,1-.4-.3c.18-.09.54.21.53-.1-.65-.22.18-.58-.53-.28-.13-.32.2-.26.24-.6a3.1,3.1,0,0,1-1.59-.78,2,2,0,0,0,.5,0c.1-.5.46-.78.41-1.29.17-.05.35-.32.65-.23-.13-.07-.36-.12-.39-.28.57-.38.12.36.81,0-.39,0-.57-.38-.87-.56-.58.16,0,.51.21.74a3.82,3.82,0,0,1-2.2-.56c-.27-.29.5-.26.37-.29,0-.72-1.57-.14-1.12-.8a4.85,4.85,0,0,1,1.35-.56c.29.24-.17.57-.09.75L25,9.76c.2,0,.4.21.29.36.4-.33-.28-1.21-.16-1.91-.2,0-.44-.1-.6.08l.14.13c-.33.33-.67,0-.76.26-.36-.08-.92,0-.85-.4l.5-.37c-.15.1-.21.36,0,.34-.29,0,.46-.86-.29-.54a3.45,3.45,0,0,1-.25.41c-.35,0-1,.18-1-.13-.42.45.09,0-.38.55.64-.63.31.5.94-.2-.6.59-.14.45-.63,1,.17-.1.29-.25.3,0l.18,0v0s0,0,0,0A.8.8,0,0,1,22.59,9c.47-.15.59.17.85.17,0,.16-.23.05-.4.2h.4c-.4.2-.56.57-.91.43l.08.22c-.18.22-.24.42,0,.47-.06.12.56.12.2.12.12.09.25.18.36.28l-.11,0c0,.18.22.32.35.51s.11.39-.27.6c.12.11.28.24.12.43l-.39,0c.12.15-.42.36,0,.47-1.07,0-.33.62-.62.83l.48.16c-.09.16,0,.37.11.67l.42.16c.23.35-.53.39-.65.7-.14-.11-.05-.16.06-.16-.53-.07-.49.18-.41.48s.16.63-.26.55c.07.18,0,.2-.14.18a0,0,0,0,0,0,0,0,0,0,0,0,0,0l-.27-.05a1,1,0,0,0,.25.07.76.76,0,0,0,0,.34l-.4-.28v0c-.21-.05.11.21.42.41a1.11,1.11,0,0,0,.11.3c-.63-.46,0,.4-.69-.09.24.36-.2.6.31,1.28-.08-.08-.14-.09-.09-.14-.17,0-.33,0-.27.3l-.43-.44c.11.27.19.54.28.82a1.1,1.1,0,0,1-.7-.8c.09.82-.1.41,0,1.22l-.2-.34c-.1.07,0,.63-.25.39-.61-.49-1.33.63-2.27.2.52,1.05-.48-.36-.22.48-.12-.25-.26-.37-.23-.63-.27.36-.61-.28-.66.53-.1-.26,0-.42-.09-.57,0,.07-.05.26-.12.11s0-.24,0-.37c-.32.11-.19.95-.07,1.74-.27-.34-.34-.27-.41.28-.11-.25-.26-.5,0-.63-.14,0-.83-.31-.8.34,0-.16-.19,0-.22,0-.31,0-.33-.1-.63,0l.08.11c-.13.77-.26.17-.51.26l0-.08c-.51-.62-.28.24-.75-.45l0,.48c-.22,1-.4-.68-.77-.36l.06.29c-.27.31-.16-1.46-.25-1.64s.09-.12.15-.17c-.2-.7-.21.59-.56.64.05-.34.33-.8.16-.92,0-.26-.94.82-1,.11,0,.26-.08.53-.3.65s-.12-1.16-.69-.52a.59.59,0,0,1,.06-.2c-.26.11-.67,0-1,.33.37-.74,0-.72-.3-.7s-.69.06-.2-.54L7.8,18l.11-.1c-.2-.3-.52-.13-.87.05,0-.14.16-.2.22-.25-.15-.58-.21-.55-1.08-.4L6.53,17c-.32.09.17-1-.58-1.11a.48.48,0,0,1,.22-.07c-.38-.09-.27-.55-.22-.87s0-.54-.88-.27c-.19-.05-.37-.12-.55-.18,0,.53-.75.21-1,.53-.18-.18.32-.71.5-.5L4,14.54c.91-.24.08-.7.71-.88-.33-.91.11-1.88.18-2.63l-.74.07.07-.3c.17-.07.57-.05.53.14.42-.07-.33-.36-.49-.39.35-.37.83.25.87.12a.83.83,0,0,1,0-.15l-.09,0c-.27-.16-.58-.23-.5-.47s.45,0,.49-.05.08,0,0-.08a2.41,2.41,0,0,1,.15-.33h-.6c-.23-.23.13-.34-.55-.34C5,9.29,4.83,8,5.23,8a.59.59,0,0,1,.06-.85c-.14,0-.72-.3-.5-.5,1.08.82.75-.1,1.66.33-.63-.25.31-.64-.56-1,.22-.1.39.31.73.39,0-.73,1-.54,1.31-1-.1-.14-.35-.29-.41-.58a8.37,8.37,0,0,1,.79.53c0-.14-.49-.9,0-.52-.1-.11-.27-.26-.23-.36a3.16,3.16,0,0,0,1.72-.67,1.29,1.29,0,0,1,1.79.37c-.17-.33-.08-.37,0-.39-.08-.07,0-.43-.06-.67.19.22.35.43.5.64.11-.66.5,0,.61-.63l-.17.1c.31-.72-.2-1.68-.15-2.64-.19.41-.38.11-.64-.15s-.59-.48-.8.16c-.14-.17.07-.32,0-.53-.1.43-.24.54-.59.41l0-.1A3.48,3.48,0,0,1,9.24.42,4.65,4.65,0,0,0,8,.43L8.2.84A.76.76,0,0,1,7.73.68c.06.75.58-.2.68.62C8.1.91,7.73,1,7.4,1.2s-.65.3-1-.12c-.29.18.37.41.09.59l-.24-.2.14.37c-.21.06-.51-.18-.66-.38.06,0,.09-.15.12-.2-.44-.11-.62.57-.75.55l.37-.05C4.88,2.53,3.76,3,3.67,4.11l.21.1c-.07.76-.55.23-.79,1l0-.06a.57.57,0,0,1,0,.61c-.12-.29-.62,0-.74-.33,0,.86.12.5.63,1.29L2.54,6.6c.24.29.37.37.33.71-.18-.39-.6,0-.86-.5-1,.42.33,1.32-.88,1.29.88.63.73-.46.89-.2.36,0,.63.51.48.69s-1.4,0-1.5.65c0-.07-.05-.09,0-.15-.3.19.27.52-.2.75.58.24-.09.37.7.5a3.82,3.82,0,0,1-.11-.57c.14.36,1,.71.57,1.16a1.16,1.16,0,0,1-.47-.32c-.24.14.14.3-.11.45C.56,11,1.2,10.36.65,9.94c-.37.14.51.74-.33.49,1.08.33-.2.66.65,1.1l-.47,0c.07.06.3.2.3.32l-.63-.21c.55.33-.43.73-.1,1.07C0,12,.62,12.47,1,12.15c.69.76-1.19.62-.81,1.61-.09-.13.2-.56.45-.39A1.54,1.54,0,0,1,.17,14c.27.62.45-.21.81,0-.51.35.31.25.55.46l-.46.13c-.09.79,1-.12.86.59l-.73,0,.28.26-.54.12c.52.21.44.35.46.75.28-.22.82-.31,1-.05-.17.31-.46.09-.21.46-.31.05-.7.1-.39-.26-.15.05-.31,0-.47.08-.19.36.2.58.28.73a.25.25,0,0,1,0-.22,9.26,9.26,0,0,0,.9.26.45.45,0,0,1-.44.18c.12.09.35.05.49.2-.37.16-.7.38-1,.22l.7.33c-.13.13-.2.53-.37.54,0,.44,1.11.3,1.17.83a.36.36,0,0,1,.27,0c.2.39.11,1,.87,1l-.28.71c.4.17.34-.91,1-.64.49.14-.28.56-.28.82.43-.11,1.17-.4,1.15.31-.2,0-.22-.14-.35-.18m4.38,2.14c-.12.06-.41.28-.37,0,.3-.48.28-.2.37,0m7.11-.67c0,.17-.15.11-.29-.05.07-.05.16-.05.29.05m6.05-13h0c-.14.19-.08.12,0,0M23,9.76a.31.31,0,0,0-.19.06c.12,0,.15,0,.15.11.11-.07.18-.13,0-.17M4.81,10l-.13,0c-.11-.15,0-.09.13,0" transform="translate(0 0)"/><path class="cls-4" d="M16.23,23.9a2,2,0,0,1-.07-.26.24.24,0,0,0,.07.26" transform="translate(0 0)"/><path class="cls-4" d="M3,19.61H3l-.08,0Z" transform="translate(0 0)"/><path class="cls-4" d="M27.22,15.09a.58.58,0,0,1-.3.09.23.23,0,0,0,.3-.09" transform="translate(0 0)"/><path class="cls-4" d="M21.63,8.85l.19.08c-.06-.06,0-.14.06-.22s-.22.18-.25.14" transform="translate(0 0)"/><path class="cls-4" d="M22.82,5.62c-.06,0-.05,0-.12,0l-.15.17c.11.09.31,0,.27-.13" transform="translate(0 0)"/><path class="cls-4" d="M22.86,7.81c.32-.24.13-.27,0-.34v0c-.48.3-.24.31,0,.32" transform="translate(0 0)"/><path class="cls-4" d="M22.81,7.45a.21.21,0,0,1-.09-.1c-.19.12,0,.07.09.1" transform="translate(0 0)"/><path class="cls-4" d="M22.63,9.54c.07-.1-.48.19-.34.09-.5.15.72.09.34-.09" transform="translate(0 0)"/><polygon class="cls-4" points="23.88 6.95 23.5 7.28 23.89 7.12 23.88 6.95"/><path class="cls-4" d="M24.25,8.22V7.94a.22.22,0,0,1-.19,0c.07.15.07.34.2.26" transform="translate(0 0)"/><path class="cls-4" d="M24.05,8a.18.18,0,0,0-.17-.13.4.4,0,0,0,.17.13" transform="translate(0 0)"/><polygon class="cls-4" points="24.21 7.15 24.17 7.28 24.23 7.46 24.21 7.15"/><path class="cls-4" d="M25.05,10.8l.19.25c.18,0,.27-.09.18-.19s-.21-.13-.37-.06" transform="translate(0 0)"/><path class="cls-4" d="M26.18,9.62c-.07.11-.18.14-.32.23l.6-.16Z" transform="translate(0 0)"/><path class="cls-4" d="M26.54,10.49c.17,0,.57.39.45,0-.17,0-.37-.29-.45,0" transform="translate(0 0)"/><polygon class="cls-4" points="25.43 15.05 25.45 14.97 24.48 14.66 25.43 15.05"/><path class="cls-4" d="M25.31,20c.47-.16-.41-.48.06-.58-.13-.22-.38.09-.48-.12.05.35-.16.35.42.7" transform="translate(0 0)"/><path class="cls-4" d="M24.89,19.32a.88.88,0,0,0,0-.2.5.5,0,0,0,0,.2" transform="translate(0 0)"/><polygon class="cls-4" points="12.37 4.24 12.5 4.46 12.43 4.11 12.37 4.24"/><path class="cls-4" d="M12.75,3.51l0,.65.17-.58s-.12.08-.13-.07" transform="translate(0 0)"/><path class="cls-4" d="M10.1,25.24l.07-.14a.25.25,0,0,0-.17-.27Z" transform="translate(0 0)"/><polygon class="cls-4" points="6.84 23.26 6.89 23.3 7.09 22.74 6.84 23.26"/><path class="cls-4" d="M3.85,22c.08.11.29.11.37.22-.29-.11.1-.78-.37-.22" transform="translate(0 0)"/></g></g></g></g></svg>