<svg xmlns="http://www.w3.org/2000/svg" xmlns:xlink="http://www.w3.org/1999/xlink" viewBox="0 0 19.01 66.48"><defs><style>.cls-1{fill:none;}.cls-2{fill:#499d40;}.cls-3{fill:#f2f2f2;}.cls-4{opacity:0.45;}.cls-5{clip-path:url(#clip-path);}.cls-6{fill:#fff;}.cls-7{clip-path:url(#clip-path-2);}.cls-8{opacity:0.86;}.cls-9{clip-path:url(#clip-path-3);}.cls-10{fill:#338428;}</style><clipPath id="clip-path"><rect class="cls-1" x="13.6" y="28.61" width="3.63" height="4.8"/></clipPath><clipPath id="clip-path-2"><rect class="cls-1" x="10.11" y="8.56" width="2.54" height="15.39"/></clipPath><clipPath id="clip-path-3"><rect class="cls-1" x="1.57" y="27.57" width="4.49" height="37.72"/></clipPath></defs><title>자산 68</title><g id="레이어_2" data-name="레이어 2"><g id="레이어_1-2" data-name="레이어 1"><path class="cls-2" d="M14.32,25.73,12.19,4.35h.65V0H6.37V4.35h.52L4.77,25.68C1.33,27.16,0,30.58,0,34.56V64.74a1.73,1.73,0,0,0,1.74,1.74H18.3c1,0,.67-.77.67-1.74V34.56c0-3.93-1.28-7.31-4.65-8.83"/><rect class="cls-3" x="7.9" y="36.85" width="11.03" height="21.88"/><g class="cls-4"><g class="cls-5"><path class="cls-6" d="M13.84,29.54A4.11,4.11,0,0,1,15.29,31a13.19,13.19,0,0,1,.95,2,.5.5,0,1,0,1-.27c-.62-1.55-1.33-3.22-2.85-4.09a.5.5,0,0,0-.51.86"/></g></g><g class="cls-4"><g class="cls-7"><path class="cls-6" d="M10.12,9.18q1,7.13,1.53,14.28c0,.64,1,.65,1,0q-.57-7.29-1.57-14.54c-.09-.64-1.05-.37-1,.26"/></g></g><g class="cls-8"><g class="cls-9"><path class="cls-10" d="M6.06,27.57s-4.62.7-4.48,10.94V65.29H5.22S5.1,44.88,5,34.09a17.25,17.25,0,0,1,1-6.52"/></g></g></g></g></svg>