<svg xmlns="http://www.w3.org/2000/svg" xmlns:xlink="http://www.w3.org/1999/xlink" viewBox="0 0 57.07 56.47"><defs><style>.cls-1{fill:url(#무제_그라디언트_22);}.cls-2{fill:none;}.cls-3{opacity:0.4;}.cls-4{clip-path:url(#clip-path);}.cls-5{clip-path:url(#clip-path-2);}.cls-6{mask:url(#mask);}.cls-7{fill:url(#무제_그라디언트_21);}</style><linearGradient id="무제_그라디언트_22" x1="-423.33" y1="342.67" x2="-422.33" y2="342.67" gradientTransform="matrix(0, -29.91, -29.91, 0, 10276.49, -12619.64)" gradientUnits="userSpaceOnUse"><stop offset="0" stop-color="#666"/><stop offset="0.04" stop-color="#6a6a6a"/><stop offset="0.29" stop-color="gray"/><stop offset="1" stop-color="#fff"/></linearGradient><clipPath id="clip-path"><rect class="cls-2" x="12.2" y="14.14" width="32.67" height="28.18"/></clipPath><clipPath id="clip-path-2"><path class="cls-2" d="M28.62,21.8c0-5.05-4.16-7.66-8.91-7.66s-7.51,4.1-7.51,9.16A9.42,9.42,0,0,0,15,30.09H15L28.75,42.32l13.13-12.1a9.34,9.34,0,0,0,3-6.92c0-5.06-2.75-9.16-7.51-9.16s-8.64,2.61-8.64,7.66Z"/></clipPath><mask id="mask" x="0" y="0" width="57.07" height="56.47" maskUnits="userSpaceOnUse"><rect class="cls-1" x="7.35" y="7.87" width="42.38" height="40.74" transform="translate(-10.29 18.05) rotate(-30)"/></mask><linearGradient id="무제_그라디언트_21" x1="-423.33" y1="342.67" x2="-422.33" y2="342.67" gradientTransform="matrix(0, -29.91, -29.91, 0, 10276.49, -12619.64)" gradientUnits="userSpaceOnUse"><stop offset="0" stop-color="#f7b52c"/><stop offset="0.14" stop-color="#f9bd14"/><stop offset="0.29" stop-color="#fac300"/><stop offset="1" stop-color="#e95513"/></linearGradient></defs><title>자산 36</title><g id="레이어_2" data-name="레이어 2"><g id="레이어_1-2" data-name="레이어 1"><g class="cls-3"><g class="cls-4"><g class="cls-5"><g class="cls-6"><rect class="cls-7" x="7.35" y="7.87" width="42.38" height="40.74" transform="translate(-10.29 18.05) rotate(-30)"/></g></g></g></g></g></g></svg>