<svg xmlns="http://www.w3.org/2000/svg" viewBox="0 0 78.3 33.55"><defs><style>.cls-1{fill:#32a69d;}.cls-2{fill:#e6fdfb;}</style></defs><title>자산 82</title><g id="레이어_2" data-name="레이어 2"><g id="레이어_1-2" data-name="레이어 1"><path class="cls-1" d="M22,1.13,0,33.52s78.76.22,78.3-.47S60.93,12.78,55.12,6a2.51,2.51,0,0,0-3.82,0l-11,13.17L26.07,1A2.52,2.52,0,0,0,22,1.13"/><path class="cls-2" d="M36.27,13.94,32.62,9.42,26.14,1A2.6,2.6,0,0,0,22,1.12l-6.54,9.62L17.89,15l2.71-3.67L24.27,15l4.63-1.92s1.44,2.72,1.92,1.92a7.77,7.77,0,0,1,2.23-1.76l2.24,1.92"/><path class="cls-2" d="M60.73,12.58,55.09,6a2.51,2.51,0,0,0-3.82,0l-5,6,2.17-.81s.41,3.76.58,3.19,1.31-3.93,1.55-3.68,5.65,5.81,5.73,5.48a27.64,27.64,0,0,0-.16-2.86l5.07,2.45,1.31-1.22Z"/></g></g></svg>