<svg xmlns="http://www.w3.org/2000/svg" xmlns:xlink="http://www.w3.org/1999/xlink" viewBox="0 0 55.82 59.45"><defs><style>.cls-1{fill:none;}.cls-2{fill:#f9d7e5;}.cls-3{fill:#32a69d;}.cls-4{fill:#ee95a4;}.cls-5{opacity:0.3;}.cls-6{clip-path:url(#clip-path);}.cls-7{fill:#565656;}.cls-8{clip-path:url(#clip-path-2);}.cls-9{clip-path:url(#clip-path-3);}</style><clipPath id="clip-path"><rect class="cls-1" x="31.03" y="22.26" width="0.94" height="35.96"/></clipPath><clipPath id="clip-path-2"><rect class="cls-1" x="4.13" y="22.28" width="19.12" height="0.94"/></clipPath><clipPath id="clip-path-3"><rect class="cls-1" x="31.97" y="22.23" width="18.98" height="0.94"/></clipPath></defs><title>자산 84</title><g id="레이어_2" data-name="레이어 2"><g id="레이어_1-2" data-name="레이어 1"><path class="cls-2" d="M49,58.08H6.08a2,2,0,0,1-2-2V22.74a2,2,0,0,1,2-2H49a2,2,0,0,1,2,2V56.07a2,2,0,0,1-2,2"/><path class="cls-3" d="M54.8,22.31H1a1,1,0,0,1-1-1V12a1,1,0,0,1,1-1H54.8a1,1,0,0,1,1,1v9.33a1,1,0,0,1-1,1"/><path class="cls-4" d="M30.09,59.45H24.18a.92.92,0,0,1-.92-.92V10.82a.92.92,0,0,1,.92-.92h5.91a.92.92,0,0,1,.92.92V58.53a.92.92,0,0,1-.92.92"/><path class="cls-4" d="M24.05,9.89l-7.51-9a.45.45,0,0,0-.71,0l-4.92,6.7a.46.46,0,0,0,.29.72l12.41,2.3a.46.46,0,0,0,.44-.74"/><path class="cls-4" d="M30.33,11,41.72,8.26a.45.45,0,0,0,.3-.65L38.18.24a.46.46,0,0,0-.77-.06L29.86,10.31a.45.45,0,0,0,.47.71"/><g class="cls-5"><g class="cls-6"><rect class="cls-7" x="31.03" y="22.26" width="0.94" height="35.96"/></g></g><g class="cls-5"><g class="cls-8"><rect class="cls-7" x="4.13" y="22.28" width="19.12" height="0.94"/></g></g><g class="cls-5"><g class="cls-9"><rect class="cls-7" x="31.97" y="22.23" width="18.98" height="0.94"/></g></g></g></g></svg>