<svg xmlns="http://www.w3.org/2000/svg" viewBox="0 0 49.67 46.7"><defs><style>.cls-1{fill:none;stroke:#7e95b7;stroke-miterlimit:10;stroke-width:1.33px;}</style></defs><title>자산 71</title><g id="레이어_2" data-name="레이어 2"><g id="레이어_1-2" data-name="레이어 1"><line class="cls-1" x1="25.48" x2="25.48" y2="46.7"/><line class="cls-1" y1="23.17" x2="49.67" y2="23.17"/><line class="cls-1" x1="7.84" y1="7.49" x2="41.83" y2="41.47"/><line class="cls-1" x1="6.54" y1="42.13" x2="42.48" y2="6.18"/><polyline class="cls-1" points="21.77 2.85 25.14 6.22 28.75 2.85"/><polyline class="cls-1" points="22 7.06 25.37 10.43 28.98 7.06"/><polyline class="cls-1" points="38.51 5.63 38.29 10.39 43.21 10.8"/><polyline class="cls-1" points="35.55 8.64 35.33 13.41 40.25 13.81"/><polyline class="cls-1" points="47.48 19.48 43.95 22.69 47.15 26.46"/><polyline class="cls-1" points="43.26 19.52 39.73 22.73 42.93 26.5"/><polyline class="cls-1" points="42.41 36.73 37.66 37.11 37.88 42.04"/><polyline class="cls-1" points="39.05 34.17 34.3 34.55 34.52 39.48"/><polyline class="cls-1" points="28.95 44.33 25.6 40.94 21.97 44.29"/><polyline class="cls-1" points="28.74 40.12 25.39 36.73 21.76 40.08"/><polyline class="cls-1" points="10.82 42.72 10.85 37.95 5.91 37.75"/><polyline class="cls-1" points="13.65 39.59 13.68 34.82 8.74 34.62"/><polyline class="cls-1" points="2.01 26.74 5.4 23.39 2.05 19.76"/><polyline class="cls-1" points="6.23 26.53 9.62 23.18 6.27 19.55"/><polyline class="cls-1" points="6.84 11.38 11.61 11.37 11.77 6.43"/><polyline class="cls-1" points="10 14.19 14.77 14.17 14.92 9.23"/></g></g></svg>