<svg xmlns="http://www.w3.org/2000/svg" viewBox="0 0 47.21 51.37"><defs><style>.cls-1{fill:#dcdee2;}.cls-2{fill:#fbe176;}.cls-3{fill:none;stroke:#878787;stroke-miterlimit:10;stroke-width:1.33px;}</style></defs><title>자산 64</title><g id="레이어_2" data-name="레이어 2"><g id="레이어_1-2" data-name="레이어 1"><path class="cls-1" d="M3,25.67C2.1,24.92-2.21,22,1.45,15.25c0,0,2.9-5.79,11-3.09C12.45,12.16,9-.19,24,0a7.74,7.74,0,0,1,7.53,5.21S41.21,0,42.94,11.39c0,0,4.64,1,4.25,6.76a10.86,10.86,0,0,1-5,8.53,7.1,7.1,0,0,1-3.89,1.11c-6.46,0-12.92,0-19.39,0-5.21,0-11.63,1.46-15.92-2.11"/><polygon class="cls-2" points="23.4 32.57 27.67 32.57 26.17 38.55 29.59 38.55 24.04 51.37 24.46 42.61 20.62 42.61 23.4 32.57"/><line class="cls-3" x1="16.47" y1="31.65" x2="14.72" y2="36.91"/><line class="cls-3" x1="13.66" y1="40.33" x2="11.9" y2="45.58"/><line class="cls-3" x1="9.14" y1="31.07" x2="6.44" y2="39.95"/><line class="cls-3" x1="34.17" y1="31.7" x2="32.24" y2="40.39"/><line class="cls-3" x1="39.98" y1="31.7" x2="38.9" y2="36.97"/></g></g></svg>