<svg id="레이어_1" data-name="레이어 1" xmlns="http://www.w3.org/2000/svg" viewBox="0 0 164.3 130.58"><defs><style>.cls-1{fill:#f2f2f2;}.cls-2{font-size:12.47px;font-family:BradleyHandITCTT-Bold, Bradley Hand;font-weight:700;}.cls-3{fill:none;stroke:#000;stroke-linecap:round;stroke-linejoin:round;stroke-width:0.3px;}.cls-4{font-size:8.09px;font-family:NanumSquareRoundOTFL, NanumSquareRoundOTFL KSCpc-EUC-H;}</style></defs><title>대지 13</title><rect class="cls-1" y="18.43" width="164.3" height="112.15"/><text class="cls-2" transform="translate(2.89 9.62) scale(0.96 1)">Daily Record</text><ellipse class="cls-3" cx="101.14" cy="33.48" rx="6.93" ry="7"/><path class="cls-3" d="M104.4,38.55s-3.49-.35.1-5.23C104.5,33.32,107.77,38.05,104.4,38.55Z"/><line class="cls-3" x1="100.09" y1="31.56" x2="100.09" y2="33.48"/><line class="cls-3" x1="102.5" y1="31.56" x2="102.5" y2="33.48"/><path class="cls-3" d="M97.82,36.82s2.87-2.42,5.05-.9"/><ellipse class="cls-3" cx="120.84" cy="33.35" rx="6.93" ry="7"/><line class="cls-3" x1="116.92" y1="31.22" x2="119.93" y2="32.44"/><ellipse cx="118.85" cy="32.57" rx="0.43" ry="0.43"/><line class="cls-3" x1="124.75" y1="31.22" x2="121.74" y2="32.44"/><ellipse cx="122.82" cy="32.57" rx="0.43" ry="0.43"/><path class="cls-3" d="M117.22,37s3.62-2.44,6.63,0"/><ellipse class="cls-3" cx="140.63" cy="33.35" rx="6.93" ry="7"/><ellipse class="cls-3" cx="81.62" cy="33.34" rx="6.93" ry="7"/><line class="cls-3" x1="80.57" y1="31.43" x2="80.57" y2="33.34"/><line class="cls-3" x1="82.98" y1="31.43" x2="82.98" y2="33.34"/><path class="cls-3" d="M85.54,33.65a3.62,3.62,0,1,1-7.23,0"/><text class="cls-4" transform="translate(15.02 36.48) scale(0.99 1)">오늘의 기분은?</text></svg>